<?xml version="1.0" standalone="no"?>
<!DOCTYPE svg PUBLIC "-//W3C//DTD SVG 1.1//EN" "http://www.w3.org/Graphics/SVG/1.1/DTD/svg11.dtd" >
<svg>
<metadata>
Created by FontForge 20090914 at Mon Oct  4 15:33:50 2021
 By www-data
Copyright &#194;&#169; 2017 by Kastelov. All rights reserved.
</metadata>
<defs>
<font id="Axiforma-ExtraBold" horiz-adv-x="846" >
  <font-face 
    font-family="Axiforma ExtraBold"
    font-weight="800"
    font-stretch="normal"
    units-per-em="1000"
    panose-1="0 0 9 0 0 0 0 0 0 0"
    ascent="771"
    descent="-229"
    x-height="547"
    cap-height="739"
    bbox="-472 -362.999 1296 1058"
    underline-thickness="50"
    underline-position="-150"
    unicode-range="U+000D-U+25CA"
  />
<missing-glyph horiz-adv-x="130" 
 />
    <glyph glyph-name="f_b" unicode="fb" horiz-adv-x="1127" 
d="M110 548v4c0 77.333 18.167 136 54.5 176s87.833 60 154.5 60c54 0 104.667 -13 152 -39l-35 -121c-33.333 16 -61.333 24 -84 24c-26.667 0 -47.667 -7.83301 -63 -23.5s-23 -37.5 -23 -65.5v-15h170v-130h-170v-418h-156v418h-81v130h81zM822 562
c77.333 0 142.001 -27.667 194.001 -83c52.667 -54.667 79 -123 79 -205s-26 -150.667 -78 -206c-52 -54.667 -117 -82 -195 -82c-66.667 0 -121.334 25 -164.001 75v-61h-152v761h157v-267c43.333 45.333 96.333 68 159 68zM935.001 275c0 40.667 -13 74.334 -39 101.001
c-26 28 -59.333 42 -100 42c-40 0 -73.667 -14 -101 -42c-26 -26.667 -39 -60.334 -39 -101.001s13 -75 39 -103c27.333 -28 61 -42 101 -42c40.667 0 74 14 100 42s39 62.333 39 103z" />
    <glyph glyph-name="f_f" unicode="ff" horiz-adv-x="864" 
d="M779 651c-30 0 -53.334 -7.66797 -70.001 -23.001s-25 -37.333 -25 -66v-14h170v-130h-170v-418h-155v418h-263v-418h-155v418h-82v130h82v16c0 72.667 22 128.334 66 167.001s103 57.667 177 57c58.667 -0.666992 115.334 -15 170.001 -43l-49 -121
c-40 18.667 -73 28 -99 28c-33.333 0 -60 -8 -80 -24s-30 -37.667 -30 -65v-15h263v16c0 72.667 21 128 63 166c41.333 38.667 96 58 164 58c52 0 105.667 -14.667 161 -44l-52 -118c-35.333 16.667 -64 25 -86 25z" />
    <glyph glyph-name="f_f_i" unicode="ffi" horiz-adv-x="1156" 
d="M1019 605c-27.333 0 -50 8.83301 -68 26.5s-27 39.834 -27 66.501s9.16699 48.834 27.5 66.501s40.833 26.5 67.5 26.5c26 0 48 -8.83301 66 -26.5s27 -39.834 27 -66.501s-9 -48.834 -27 -66.501s-40 -26.5 -66 -26.5zM771 652c-26.667 0 -47.667 -7.83398 -63 -23.501
s-23 -37.5 -23 -65.5v-15h188v-130h-188v-418h-156v418h-263v-418h-156v418h-81v130h81v16c0 74.667 22.333 130.334 67 167.001c44.667 38 102.667 57 174 57c55.333 0 113.666 -14.333 174.999 -43l-49 -121c-43.333 18 -78.333 27 -105 27
c-32 0 -57.667 -7.83301 -77 -23.5s-29 -37.5 -29 -65.5v-14h263v4c0 76.667 19 135.167 57 175.5s90.667 60.5 158 60.5c54.667 0 105.334 -13 152.001 -39l-42 -121c-32 16 -59.667 24 -83 24zM1096 -0.000976562h-157v548h157v-548z" />
    <glyph glyph-name="f_f_j" unicode="ffj" horiz-adv-x="1156" 
d="M1018 605c-26.667 0 -49 8.83301 -67 26.5s-27 39.834 -27 66.501s9 48.834 27 66.501s40.333 26.5 67 26.5c26 0 48 -8.83301 66 -26.5s27 -39.834 27 -66.501s-9 -48.834 -27 -66.501s-40 -26.5 -66 -26.5zM864 548l-0.000976562 -130.001h-180v-418h-156v418h-262
v-418h-156v418h-81v130h81v16c0 74.667 22.333 130.334 67 167.001c44.667 38 102.667 57 174 57c60.667 0 117.334 -14.333 170.001 -43l-44 -121c-40.667 18 -75.667 27 -105 27c-32 0 -57.667 -8 -77 -24s-29 -37.667 -29 -65v-14h262v4c0 76.667 19 135.167 57 175.5
s91 60.5 159 60.5c53.333 0 104 -13 152 -39l-42 -121c-33.333 16 -61.333 24 -84 24c-26.667 0 -47.667 -7.83301 -63 -23.5s-23 -37.5 -23 -65.5v-15h180zM938.999 9.99902v538h157v-550c0 -75.333 -19.833 -132.833 -59.5 -172.5s-93.167 -59.5 -160.5 -59.5
c-59.333 0 -104.333 10.333 -135 31l29 123c28 -10.667 54 -16 78 -16c60.667 0 91 35.333 91 106z" />
    <glyph glyph-name="f_h" unicode="fh" horiz-adv-x="1097" 
d="M110 548l-0.000976562 4c0 77.333 18.333 136 55 176s88.334 60 155.001 60c54 0 104.667 -13 152 -39l-36 -121c-33.333 16 -61.333 24 -84 24c-26.667 0 -47.667 -7.83301 -63 -23.5s-23 -37.5 -23 -65.5v-15h170v-130h-170v-418h-156v418h-81v130h81zM831.999 563
c58.667 0 108.666 -19.667 149.999 -59s62 -95.666 62 -168.999v-335h-157v294c0 39.333 -9.5 70 -28.5 92s-44.833 33 -77.5 33c-35.333 0 -63.833 -11.833 -85.5 -35.5s-32.5 -54.834 -32.5 -93.501v-290h-157v761h153v-286c15.333 25.333 38.333 46.333 69 63
s65.334 25 104.001 25z" />
    <glyph glyph-name="f_i" unicode="fi" horiz-adv-x="738" 
d="M600 605c-26.667 0 -49 8.83301 -67 26.5s-27 39.834 -27 66.501s9 48.834 27 66.501s40.333 26.5 67 26.5c26 0 48 -8.83301 66 -26.5s27 -39.834 27 -66.501s-9 -48.834 -27 -66.501s-40 -26.5 -66 -26.5zM110 548l-0.000976562 4c0 76.667 19 135.167 57 175.5
s90.667 60.5 158 60.5c54.667 0 105.334 -13 152.001 -39l-41 -121c-33.333 16 -61.333 24 -84 24c-26.667 0 -47.667 -7.83301 -63 -23.5s-23 -37.5 -23 -65.5v-15h170v-130h-170v-418h-156v418h-81v130h81zM676.999 0h-157v548h157v-548z" />
    <glyph glyph-name="f_j" unicode="fj" horiz-adv-x="738" 
d="M600 605c-26.667 0 -49 8.83301 -67 26.5s-27 39.834 -27 66.501s9 48.834 27 66.501s40.333 26.5 67 26.5c26 0 48 -8.83301 66 -26.5s27 -39.834 27 -66.501s-9 -48.834 -27 -66.501s-40 -26.5 -66 -26.5zM444 548l-0.000976562 -130h-178v-418h-156v418h-81v130h81v4
c0 76.667 19 135.167 57 175.5s90.667 60.5 158 60.5c54.667 0 105.334 -13 152.001 -39l-41 -121c-33.333 16 -61.333 24 -84 24c-26.667 0 -47.667 -7.83301 -63 -23.5s-23 -37.5 -23 -65.5v-15h178zM519.999 10l0.000976562 538h157v-550
c0 -75.333 -19.833 -132.833 -59.5 -172.5s-92.834 -59.5 -159.501 -59.5c-60 0 -105.333 10.333 -136 31l30 123c27.333 -10.667 53.333 -16 78 -16c60 0 90 35.333 90 106z" />
    <glyph glyph-name="f_k" unicode="fk" horiz-adv-x="1043" 
d="M110 548v4c0 77.333 18 136 54 176s87.333 60 154 60c54 0 105 -13 153 -39l-35 -121c-33.333 16 -61.333 24 -84 24c-26.667 0 -47.667 -7.83301 -63 -23.5s-23 -37.5 -23 -65.5v-15h170v-130h-170v-418h-156v418h-81v130h81zM1057 0h-190l-173 227l-31 -29v-198h-157
v761h157v-388l184 175h194l-240 -223z" />
    <glyph glyph-name="f_l" unicode="fl" horiz-adv-x="723" 
d="M110 548v4c0 157.333 70.333 236 211 236c51.333 0 101 -13 149 -39l-34 -121c-33.333 16 -61.333 24 -84 24c-26.667 0 -47.667 -7.83301 -63 -23.5s-23 -37.5 -23 -65.5v-15h170v-130h-170v-418h-156v418h-81v130h81zM506 0v761h157v-761h-157z" />
    <glyph glyph-name=".notdef" horiz-adv-x="130" 
 />
    <glyph glyph-name="CR.001" horiz-adv-x="130" 
 />
    <glyph glyph-name="CR.001" horiz-adv-x="130" 
 />
    <glyph glyph-name="CR" unicode="&#xd;" horiz-adv-x="333" 
 />
    <glyph glyph-name="space" unicode=" " horiz-adv-x="247" 
 />
    <glyph glyph-name="exclam" unicode="!" horiz-adv-x="320" 
d="M234 214h-143l-9 544h163zM165 -13c-25.333 0 -46.666 8.5 -63.999 25.5s-26 38.167 -26 63.5c0 24 8.66699 44.333 26 61s38.666 25 63.999 25c23.333 0 43.5 -8.33301 60.5 -25s25.5 -37 25.5 -61c0 -25.333 -8.33301 -46.5 -25 -63.5s-37 -25.5 -61 -25.5z" />
    <glyph glyph-name="quotedbl" unicode="&#x22;" horiz-adv-x="583" 
d="M184 421h-152l90 315h180zM455 421h-152l90 315h180z" />
    <glyph glyph-name="numbersign" unicode="#" horiz-adv-x="760" 
d="M729 576l-25 -132h-99l-28 -144h99l-24 -132h-100l-32 -168h-157l34 168h-114l-34 -168h-157l35 168h-95l26 132h97l30 144h-100l26 132h102l34 163h151l-33 -163h113l33 163h150l-31 -163h99zM309 300h114l29 144h-113z" />
    <glyph glyph-name="dollar" unicode="$" horiz-adv-x="600" 
d="M562 218c0 -55.333 -16.3311 -102.499 -48.998 -141.499s-76.667 -65.5 -132 -79.5v-109h-145v105c-88.667 16.667 -158 64.667 -208 144l107 107c18 -30 41.833 -54.333 71.5 -73s60.167 -28 91.5 -28c24 0 43.667 6 59 18s23 27.333 23 46c0 27.333 -20 50.333 -60 69
c-6.66699 4 -17.334 9 -32.001 15l-41 20c-38.667 20 -65.334 35.333 -80.001 46c-68 46 -102 105.333 -102 178c0 52.667 15.667 97.667 47 135s73.666 62.333 126.999 75v98h145v-97c58.667 -12.667 113 -43 163 -91l-86 -120c-50.667 42.667 -100 64 -148 64
c-23.333 0 -41.833 -5.33301 -55.5 -16s-20.5 -25 -20.5 -43c-0.666992 -14.667 7.33301 -29 24 -43l25 -17l14 -7c8 -4 12.667 -6.66699 14 -8l65 -33c32.667 -14.667 60.334 -29.334 83.001 -44.001c66.667 -42 100 -98.667 100 -170z" />
    <glyph glyph-name="percent" unicode="%" horiz-adv-x="911" 
d="M221 384c-52.667 0 -97.668 17.667 -135.001 53c-37.333 36 -56 79 -56 129c0 51.333 18.667 95 56 131s82.333 54 135 54c54 0 99.333 -18 136 -54c37.333 -36 56 -79.667 56 -131c0 -50 -18.667 -93 -56 -129c-37.333 -35.333 -82.666 -53 -135.999 -53zM258.999 0
h-150l537 739h150zM166.999 512c15.333 -14 33.333 -21 54 -21s38.667 7 54 21c15.333 14.667 23 33 23 55s-7.66699 40.333 -23 55s-33.333 22 -54 22s-38.667 -7.33301 -54 -22c-14.667 -14.667 -22 -33 -22 -55s7.33301 -40.333 22 -55zM688.999 -12
c-52.667 0 -97.668 17.667 -135.001 53c-37.333 36 -56 79.333 -56 130s18.667 94 56 130s82.333 54 135 54c54 0 99.333 -18 136 -54c37.333 -36 56 -79.333 56 -130s-18.667 -94 -56 -130c-37.333 -35.333 -82.666 -53 -135.999 -53zM688.998 95
c22 0 40.501 7.33301 55.501 22s22.5 33 22.5 55c0 21.333 -7.83301 39.5 -23.5 54.5s-33.834 22.5 -54.501 22.5s-38.5 -7.33301 -53.5 -22s-22.5 -33 -22.5 -55s7.5 -40.333 22.5 -55s32.833 -22 53.5 -22z" />
    <glyph glyph-name="ampersand" unicode="&#x26;" horiz-adv-x="705" 
d="M600 164l101 -90l-88 -93l-100 92c-66 -56 -141 -84 -225 -84c-76 0 -137.667 20.667 -185 62c-46.667 42 -70 94 -70 156c0 86 43 156 129 210c-28.667 45.333 -43 92.333 -43 141c0 50 19.667 94.667 59 134c40.667 39.333 93 59 157 59c54 0 99.333 -16.333 136 -49
c38 -32 57 -71.333 57 -118c0 -50.667 -18.667 -91.667 -56 -123c-34 -28 -73.333 -53.333 -118 -76l32 -29l120 -108l1 1c20.667 23.333 46.667 56.333 78 99l95 -79c-29.333 -42.667 -56 -77.667 -80 -105zM326 634c-21.333 0 -38.833 -7.66602 -52.5 -22.999
s-20.5 -34.333 -20.5 -57c0 -24.667 7.66699 -50.667 23 -78l57 30c36 21.333 54 44.666 54 69.999c0 16 -5.66699 29.667 -17 41s-26 17 -44 17zM298 123.001c41.333 0 80.333 13.333 117 40l-133 122l-38 35c-36.667 -28.667 -55 -62 -55 -100
c0 -28 10.167 -51.167 30.5 -69.5s46.5 -27.5 78.5 -27.5z" />
    <glyph glyph-name="quotesingle" unicode="'" horiz-adv-x="311" 
d="M184 421h-152l90 315h180z" />
    <glyph glyph-name="parenleft" unicode="(" horiz-adv-x="427" 
d="M423 -97l-73 -124c-103.333 54 -182 125 -236 213s-81 188.667 -81 302c0 114 27.5 215 82.5 303s135.167 158.667 240.5 212l68 -126c-146.667 -92.667 -220 -222 -220 -388c0 -162 73 -292.667 219 -392z" />
    <glyph glyph-name="parenright" unicode=")" horiz-adv-x="427" 
d="M77 -221l-73.001 124c146 99.333 219 230 219 392c0 166 -73 295.333 -219 388l67 126c106 -53.333 186.5 -124 241.5 -212s82.5 -189 82.5 -303c0 -112.667 -27.167 -213.167 -81.5 -301.5s-133.166 -159.5 -236.499 -213.5z" />
    <glyph glyph-name="asterisk" unicode="*" horiz-adv-x="506" 
d="M254 474l-96 -115l-85 76l91 102l-131 56l45 104l121 -58l-5 140h119l-5 -140l121 58l44 -103l-129 -57l89 -102l-85 -76z" />
    <glyph glyph-name="plus" unicode="+" horiz-adv-x="589" 
d="M369 421h188v-147h-188v-189l-147 -2v191h-190v147h190v189h147v-189z" />
    <glyph glyph-name="comma" unicode="," horiz-adv-x="269" 
d="M132 158c28 0 51.002 -9.83398 69.002 -29.501s27 -44.167 27 -73.5c0 -79.333 -55 -154.666 -165 -225.999l-45 60c8 6 17 13.167 27 21.5s15.667 12.833 17 13.5c9.33301 7.33301 20.166 17.333 32.499 30s21.166 24 26.499 34h-3c-20.667 0 -38.667 8 -54 24
s-23 35 -23 57c0 25.333 9 46.5 27 63.5s39.333 25.5 64 25.5z" />
    <glyph glyph-name="hyphen" unicode="-" horiz-adv-x="535" 
d="M477 204h-419v146h419v-146z" />
    <glyph glyph-name="period" unicode="." horiz-adv-x="253" 
d="M128 -16c-25.333 0 -46.5 8.33203 -63.5 24.999s-25.5 37.667 -25.5 63c0 24.667 8.5 45.334 25.5 62.001s38.167 25 63.5 25c24 0 44.333 -8.5 61 -25.5s25 -37.5 25 -61.5c0 -25.333 -8.33301 -46.333 -25 -63s-37 -25 -61 -25z" />
    <glyph glyph-name="slash" unicode="/" horiz-adv-x="693" 
d="M192 -123h-175l483 948h176z" />
    <glyph glyph-name="zero" unicode="0" horiz-adv-x="691" 
d="M345 -12c-96 0 -170.667 35.6689 -224 107.002c-52 71.333 -78 163 -78 275s26 203.667 78 275c53.333 71.333 128 107 224 107c98 0 173 -35.667 225 -107c52.667 -70.667 79 -162.334 79 -275.001s-26.333 -204.334 -79 -275.001c-52 -71.333 -127 -107 -225 -107z
M485 370.002c0 66.667 -11.999 121 -35.999 163c-22.667 42.667 -57 64 -103 64c-46.667 0 -81.334 -21.333 -104.001 -64c-23.333 -42.667 -35 -97 -35 -163c0 -70 11.833 -125.333 35.5 -166s58.167 -61 103.5 -61s79.833 20.333 103.5 61s35.5 96 35.5 166z" />
    <glyph glyph-name="one" unicode="1" horiz-adv-x="429" 
d="M-5 555l236 184h120v-739h-161v522l-112 -85z" />
    <glyph glyph-name="two" unicode="2" horiz-adv-x="587" 
d="M384 259l-103.001 -107.999h259v-152h-489v138l227 236c38.667 39.333 62.334 68 71.001 86c10 18 15 35.667 15 53c0 25.333 -8.5 45.666 -25.5 60.999s-38.833 23 -65.5 23c-48.667 0 -102.667 -27 -162 -81l-89 119c80.667 78.667 169.667 118 267 118
c70 0 128.333 -21.667 175 -65c46.667 -42.667 70 -96.667 70 -162c0 -39.333 -12 -80 -36 -122s-62 -90 -114 -144z" />
    <glyph glyph-name="three" unicode="3" horiz-adv-x="569" 
d="M256 -12c-85.333 0 -167.334 24.333 -246.001 73l68 132c60.667 -35.333 116.334 -53 167.001 -53c34 0 60.833 7.33301 80.5 22s29.5 34.334 29.5 59.001c0 23.333 -9.16699 42.166 -27.5 56.499s-42.5 21.5 -72.5 21.5h-95v148h77c31.333 0 56.166 7 74.499 21
s27.5 32.333 27.5 55c0 22 -8.66699 39.833 -26 53.5s-39.333 20.5 -66 20.5c-41.333 0 -88.666 -18.333 -141.999 -55l-78 119c30 28 66.333 50.167 109 66.5s86.667 24.5 132 24.5c68 0 124.333 -18.333 169 -55c46 -37.333 69 -83 69 -137
c0 -37.333 -11.5 -71 -34.5 -101s-52.833 -51.333 -89.5 -64v-4c45.333 -10 80.833 -31.5 106.5 -64.5s38.5 -72.167 38.5 -117.5c0 -66 -25.333 -119.333 -76 -160c-49.333 -40.667 -114.333 -61 -195 -61z" />
    <glyph glyph-name="four" unicode="4" horiz-adv-x="623" 
d="M507 303h79v-136h-79v-167h-153v167h-319l-32 107l381 465h123v-436zM354 514l-170 -211h170v211z" />
    <glyph glyph-name="five" unicode="5" horiz-adv-x="594" 
d="M309 474c70.667 0 129.666 -21.667 176.999 -65c48 -43.333 72 -100 72 -170c0 -72 -25.333 -132 -76 -180c-51.333 -47.333 -119.333 -71 -204 -71c-89.333 0 -173.333 26.333 -252 79l63 132c63.333 -39.333 123.666 -59 180.999 -59
c38.667 0 68.834 9.33301 90.501 28s32.5 42.334 32.5 71.001c0 27.333 -10.667 50.166 -32 68.499s-48.333 27.5 -81 27.5c-43.333 0 -82.666 -15.667 -117.999 -47l-92 81l38 370h400v-152h-278l-13 -128c30 10 60.667 15 92 15z" />
    <glyph glyph-name="six" unicode="6" horiz-adv-x="640" 
d="M359 477c71.333 0 129.336 -22.332 174.003 -66.999c46 -45.333 69 -101.666 69 -168.999c0 -72.667 -25.333 -132.334 -76 -179.001c-50.667 -47.333 -115.334 -71 -194.001 -71c-93.333 0.666992 -165.333 34.5 -216 101.5s-75 151.833 -73 254.5
c0 108.667 26 201.667 78 279c26.667 39.333 61.5 70.166 104.5 92.499s90.833 33.5 143.5 33.5c77.333 0 147 -22 209 -66l-72 -124c-40 28 -83 42 -129 42c-52.667 0 -94.334 -19 -125.001 -57c-30 -36 -47.667 -83 -53 -141c35.333 47.333 88.666 71 159.999 71z
M439.003 238.001c0 29.333 -10.168 53.833 -30.501 73.5s-45.5 29.5 -75.5 29.5c-30.667 0 -56.5 -9.66699 -77.5 -29s-31.5 -44 -31.5 -74c0 -30.667 10.333 -56.167 31 -76.5s46.334 -30.5 77.001 -30.5s56.167 10.333 76.5 31s30.5 46 30.5 76z" />
    <glyph glyph-name="seven" unicode="7" horiz-adv-x="532" 
d="M22 586v153h487v-117l-256 -622h-172l244 586h-303z" />
    <glyph glyph-name="eight" unicode="8" horiz-adv-x="639" 
d="M320 -12c-84.667 0 -152.334 20.001 -203.001 60.001c-51.333 41.333 -77 93.666 -77 156.999c0 42 12.167 80 36.5 114s57.5 58.333 99.5 73v2c-70 34.667 -105 88 -105 160c0 57.333 22.667 104.666 68 141.999c46.667 37.333 107 56 181 56
c73.333 0 133.333 -18.667 180 -56c46 -37.333 69 -84.666 69 -141.999c0 -36 -9.5 -67.667 -28.5 -95s-45.167 -49 -78.5 -65v-3c42 -14.667 75.5 -38.834 100.5 -72.501s37.5 -71.5 37.5 -113.5c0 -63.333 -26 -115.666 -78 -156.999
c-51.333 -40 -118.666 -60 -201.999 -60zM320 618.001c-30 0 -54.167 -7.83398 -72.5 -23.501s-27.5 -35.5 -27.5 -59.5c0 -23.333 9 -43 27 -59c18.667 -15.333 42.667 -23 72 -23c30 0 53.667 7.66699 71 23c18 14.667 27 34.334 27 59.001
c0 24 -8.83301 43.833 -26.5 59.5s-41.167 23.5 -70.5 23.5zM205 225c0 -27.333 10.667 -49.5 32 -66.5s49 -25.5 83 -25.5s61.5 8.5 82.5 25.5s31.5 38.833 31.5 65.5s-10.5 48.5 -31.5 65.5s-48.5 25.5 -82.5 25.5s-61.667 -8.5 -83 -25.5s-32 -38.5 -32 -64.5z" />
    <glyph glyph-name="nine" unicode="9" horiz-adv-x="633" 
d="M306 752c90.667 0 160.667 -33 210 -99c49.333 -66.667 74 -152.334 74 -257.001c0 -54.667 -6.5 -106.167 -19.5 -154.5s-32.333 -91.5 -58 -129.5s-59.334 -68.167 -101.001 -90.5s-89.167 -33.5 -142.5 -33.5c-82.667 0 -152 22 -208 66l60 122
c42.667 -28.667 88.334 -43 137.001 -43c49.333 0 88.5 16.5 117.5 49.5s47.5 79.167 55.5 138.5c-37.333 -37.333 -89.333 -56 -156 -56c-68.667 0 -125.334 22 -170.001 66c-44.667 44.667 -67 101.334 -67 170.001c0 72.667 24.667 132.667 74 180
c50.667 47.333 115.334 71 194.001 71zM303 402c30.667 0 56 9.83301 76 29.5s30 44.5 30 74.5c0 30.667 -10.167 56 -30.5 76s-45.5 30 -75.5 30c-30.667 0 -56 -9.83301 -76 -29.5s-30 -45.167 -30 -76.5c0 -30 10.167 -54.833 30.5 -74.5s45.5 -29.5 75.5 -29.5z" />
    <glyph glyph-name="colon" unicode=":" horiz-adv-x="284" 
d="M143 340c-25.333 0 -46.5 8.33203 -63.5 24.999s-25.5 37.667 -25.5 63c0 24.667 8.5 45.334 25.5 62.001s38.167 25 63.5 25c23.333 0 43.5 -8.5 60.5 -25.5s25.5 -37.5 25.5 -61.5c0 -25.333 -8.33301 -46.333 -25 -63s-37 -25 -61 -25zM143 -16.001
c-25.333 0 -46.5 8.33203 -63.5 24.999s-25.5 37.667 -25.5 63c0 24.667 8.5 45.334 25.5 62.001s38.167 25 63.5 25c23.333 0 43.5 -8.5 60.5 -25.5s25.5 -37.5 25.5 -61.5c0 -25.333 -8.33301 -46.333 -25 -63s-37 -25 -61 -25z" />
    <glyph glyph-name="semicolon" unicode=";" horiz-adv-x="303" 
d="M156 338c-26 0 -47.833 8.66699 -65.5 26s-26.5 39 -26.5 65c0 25.333 8.83301 46.666 26.5 63.999s39.5 26 65.5 26c24.667 0 45.667 -8.66699 63 -26s26 -38.666 26 -63.999c0 -26 -8.66699 -47.667 -26 -65s-38.333 -26 -63 -26zM149 158
c28 0 51.002 -9.83398 69.002 -29.501s27 -44.167 27 -73.5c0 -79.333 -55 -154.666 -165 -225.999l-45 60c8 6 17 13.167 27 21.5s15.667 12.833 17 13.5c9.33301 7.33301 20.166 17.333 32.499 30s21.166 24 26.499 34h-3c-20.667 0 -38.667 8 -54 24s-23 35 -23 57
c0 25.333 9 46.5 27 63.5s39.333 25.5 64 25.5z" />
    <glyph glyph-name="less" unicode="&#x3c;" horiz-adv-x="552" 
d="M490 199v-158l-460 217v131l460 216v-155l-292 -125z" />
    <glyph glyph-name="equal" unicode="=" horiz-adv-x="585" 
d="M524 364h-462v128h462v-128zM524 163h-462v128h462v-128z" />
    <glyph glyph-name="greater" unicode="&#x3e;" horiz-adv-x="542" 
d="M513 258l-455 -222v158l280 126l-280 125v154l455 -220v-121z" />
    <glyph glyph-name="question" unicode="?" horiz-adv-x="564" 
d="M331 205l-152.001 0.00195312v63c0 56 20.667 103 62 141l31 26.5c15.333 13 26.333 22.833 33 29.5s14.834 15.5 24.501 26.5s16.5 21.667 20.5 32s6 21.166 6 32.499c0 23.333 -8.33301 42.333 -25 57s-37.667 22 -63 22c-47.333 0 -96.666 -29.667 -147.999 -89
l-97 108c68 86 153.667 129 257 129c72.667 0 131.667 -20.667 177 -62c44.667 -40.667 67 -92.334 67 -155.001c0 -56.667 -22.667 -107 -68 -151l-41 -36c-20.667 -18 -35.334 -31.333 -44.001 -40s-17.5 -20.667 -26.5 -36s-13.5 -30.333 -13.5 -45v-53zM317.999 12.002
c-16.667 -16.667 -37.001 -25 -61.001 -25s-45 8.33301 -63 25c-17.333 17.333 -26 38.333 -26 63s8.66699 45.334 26 62.001s38.333 25 63 25s45.334 -8.33301 62.001 -25s25 -37.334 25 -62.001s-8.66699 -45.667 -26 -63z" />
    <glyph glyph-name="at" unicode="@" horiz-adv-x="964" 
d="M577 450l-0.00390625 38.9971h117v-252c0 -18.667 3.83301 -33.167 11.5 -43.5s17.167 -15.5 28.5 -15.5c22 0 41.333 14.333 58 43c18 29.333 27 65.666 27 108.999c0 86.667 -32 159.667 -96 219c-63.333 58.667 -140.666 87.334 -231.999 86.001
c-94 -0.666992 -174.333 -35 -241 -103c-65.333 -67.333 -98 -148.666 -98 -243.999c0 -97.333 34.333 -180.333 103 -249s152.334 -103 251.001 -103c46 0 92.167 8 138.5 24s87.5 38 123.5 66l52 -89c-33.333 -29.333 -78.666 -54.333 -135.999 -75
c-58.667 -21.333 -119.334 -32 -182.001 -32c-85.333 0 -163.666 21 -234.999 63c-70.667 40.667 -126.667 96.334 -168 167.001c-40 70 -60 146.333 -60 229c0 126 44 232.333 132 319c88 88 195.667 132 323 132c126 0 230.333 -39.333 313 -118
c83.333 -79.333 125 -174.333 125 -285c0 -78 -21 -142.333 -63 -193c-40.667 -50.667 -92 -76 -154 -76c-57.333 0 -97 24 -119 72c-34.667 -48 -84.334 -72 -149.001 -72c-57.333 0 -105.666 20.667 -144.999 62c-38.667 40.667 -58 92.334 -58 155.001
s19.333 114.667 58 156c38.667 42 87.334 63 146.001 63c54 0 97 -18 129 -54zM470.996 178.997c28.667 0 53.166 10.168 73.499 30.501s30.5 45.5 30.5 75.5c0 31.333 -10 57.333 -30 78c-19.333 21.333 -43.666 32 -72.999 32s-54.333 -10.333 -75 -31
c-20 -21.333 -30 -47 -30 -77c0 -30.667 10 -56.334 30 -77.001s44.667 -31 74 -31z" />
    <glyph glyph-name="A" unicode="A" horiz-adv-x="704" 
d="M697 0h-172l-49 149h-248l-51 -149h-172l277 739h144zM432 294l-79 234l-80 -234h159z" />
    <glyph glyph-name="B" unicode="B" horiz-adv-x="699" 
d="M522 405c45.333 -11.333 80.167 -33.834 104.5 -67.501s36.5 -74.167 36.5 -121.5c0 -61.333 -21.667 -112.666 -65 -153.999s-100.333 -62 -171 -62h-349v739h332c68.667 0 121.334 -18.333 158.001 -55c37.333 -36 56 -78.667 56 -128c0 -33.333 -9.33301 -64 -28 -92
s-43.334 -47.667 -74.001 -59zM381.001 596.999h-140v-145h133c26.667 0 47.667 7 63 21s23 31.667 23 53c0 20 -7.16699 36.833 -21.5 50.5s-33.5 20.5 -57.5 20.5zM241.001 142.999h151c31.333 0 55.833 8.33301 73.5 25s26.5 37.334 26.5 62.001
c0 25.333 -8.5 46.166 -25.5 62.499s-40.833 24.5 -71.5 24.5h-154v-174z" />
    <glyph glyph-name="C" unicode="C" horiz-adv-x="761" 
d="M418 -11c-108 0 -198.333 35 -271 105c-72.667 70.667 -109 161.667 -109 273c0 112 37 204 111 276c74.667 72.667 165 109 271 109c65.333 0 126 -13.5 182 -40.5s101 -63.5 135 -109.5l-108 -110c-56 67.333 -122.667 101 -200 101
c-61.333 0 -113.333 -21.333 -156 -64s-64 -96.334 -64 -161.001c0 -63.333 21 -116 63 -158s94 -63 156 -63c80 0 148.333 34 205 102l111 -104c-34.667 -47.333 -81 -85.166 -139 -113.499s-120.333 -42.5 -187 -42.5z" />
    <glyph glyph-name="D" unicode="D" horiz-adv-x="774" 
d="M368 0h-290.001v739h295c113.333 0 201.333 -33.333 264 -100c64 -66 96 -156 96 -270c0 -114.667 -32.333 -204.667 -97 -270c-65.333 -66 -154.666 -99 -267.999 -99zM242.999 580v-421h132c60 0 106 20 138 60c32.667 40.667 49 91 49 151
c0 60.667 -16.333 110.667 -49 150c-32 40 -78 60 -138 60h-132z" />
    <glyph glyph-name="E" unicode="E" horiz-adv-x="647" 
d="M593 0h-515v739h516v-154h-350v-137h324v-153h-324v-141h349v-154z" />
    <glyph glyph-name="F" unicode="F" horiz-adv-x="614" 
d="M243 0h-165v739h507v-156h-342v-146h301v-155h-301v-282z" />
    <glyph glyph-name="G" unicode="G" horiz-adv-x="809" 
d="M426 -11c-112.667 0 -205.666 35.667 -278.999 107c-72.667 72 -109 163 -109 273c0 111.333 37.667 203 113 275s168.666 108 279.999 108c58 0 113 -10.5 165 -31.5s95.333 -48.833 130 -83.5l-106 -120c-53.333 50.667 -116.666 76 -189.999 76
c-64.667 0 -118 -21.333 -160 -64c-42 -42 -63 -94.667 -63 -158c0 -62.667 20.667 -115.667 62 -159s94.666 -65 159.999 -65c35.333 0 69.5 6.5 102.5 19.5s60.167 29.833 81.5 50.5v85h-188v142h338v-311c-96 -96 -208.333 -144 -337 -144z" />
    <glyph glyph-name="H" unicode="H" horiz-adv-x="775" 
d="M243 0h-165v739h165v-289h288v289h166v-739h-166v291h-288v-291z" />
    <glyph glyph-name="I" unicode="I" horiz-adv-x="322" 
d="M78 0v739h166v-739h-166z" />
    <glyph glyph-name="J" unicode="J" horiz-adv-x="594" 
d="M235 -12c-94 0 -172.001 30 -234.001 90l76 131c43.333 -41.333 91.333 -62 144 -62c42.667 0 76.334 13.333 101.001 40s37 63 37 109v443h165v-449c0 -101.333 -27.333 -177 -82 -227c-54 -50 -123 -75 -207 -75z" />
    <glyph glyph-name="K" unicode="K" horiz-adv-x="706" 
d="M719 0h-203l-186 281l-87 -105v-176h-165v739h165v-330l259 330h200l-264 -332z" />
    <glyph glyph-name="L" unicode="L" horiz-adv-x="626" 
d="M612 0h-534v739h166v-581h368v-158z" />
    <glyph glyph-name="M" unicode="M" horiz-adv-x="946" 
d="M241 0h-163v739h116l279 -402l277 402h118v-739h-165v391l-201 -287h-60l-201 287v-391z" />
    <glyph glyph-name="N" unicode="N" horiz-adv-x="799" 
d="M559 307v432h162v-739h-119l-361 428v-428h-163v739h112z" />
    <glyph glyph-name="O" unicode="O" 
d="M37 368c0 107.333 36.999 198 110.999 272c74.667 74.667 166.334 112 275.001 112s200 -37.333 274 -112c74.667 -74 112 -164.333 112 -271s-37 -197 -111 -271c-74.667 -73.333 -166.667 -110 -276 -110c-110 0 -201.667 36.667 -275 110s-110 163.333 -110 270z
M422.999 151c60.667 0 111.668 20.667 153.001 62c41.333 42.667 61.666 94.667 60.999 156c-1.33301 64 -22.333 116.333 -63 157c-41.333 42 -91.666 63 -150.999 63c-60.667 0 -111.334 -21 -152.001 -63c-41.333 -42.667 -62 -95 -62 -157
c0 -61.333 20.667 -113.333 62 -156c41.333 -41.333 92 -62 152 -62z" />
    <glyph glyph-name="P" unicode="P" horiz-adv-x="650" 
d="M78 739l283 -0.000976562c90 0 157 -24 201 -72c44.667 -47.333 67 -106.666 67 -177.999c0 -70.667 -23 -129 -69 -175s-116.333 -69 -211 -69h-106v-245h-165v739zM243 393.999l111.999 0.000976562c32.667 0 58.334 9.16699 77.001 27.5s28 41.5 28 69.5
c0 27.333 -9 50.166 -27 68.499s-41.667 27.5 -71 27.5h-119v-193z" />
    <glyph glyph-name="Q" unicode="Q" 
d="M805 -5l22.999 -135c-46 -16.667 -93.667 -25 -143 -25c-122.667 0 -220.667 51.667 -294 155c-102 9.33301 -186.333 49.666 -253 120.999c-67.333 72.667 -101 159 -101 259c0 106.667 37 197 111 271c74.667 74 166.334 111 275.001 111s200 -37 274 -111
c74.667 -74 112 -164.667 112 -272c0 -79.333 -21.333 -150.666 -64 -213.999c-42 -63.333 -98 -109.333 -168 -138c29.333 -27.333 69 -41 119 -41c32.667 0 69 6.33301 109 19zM422.999 592c-60.667 0 -112.333 -21.333 -155 -64c-42 -42.667 -63 -95.667 -63 -159
s21 -116 63 -158s93.667 -63 155 -63s113 21 155 63s63 94.667 63 158s-21 116.333 -63 159s-93.667 64 -155 64z" />
    <glyph glyph-name="R" unicode="R" horiz-adv-x="686" 
d="M661 0l-192.001 0.000976562l-145 258h-81v-258h-165v739h294c84.667 0 149.334 -23 194.001 -69c44.667 -44.667 67 -101.334 67 -170.001c0 -49.333 -12.167 -93.333 -36.5 -132s-59.833 -67.667 -106.5 -87zM370.999 587.001l-128 0.000976562v-183h117
c33.333 0 58.833 8.66699 76.5 26s26.5 39.666 26.5 66.999c0 26 -8.16699 47.5 -24.5 64.5s-38.833 25.5 -67.5 25.5z" />
    <glyph glyph-name="S" unicode="S" horiz-adv-x="621" 
d="M306 -13c-58.667 0 -113.166 11.501 -163.499 34.501s-92.5 56.167 -126.5 99.5l90 118c55.333 -65.333 122.333 -98 201 -98c28.667 0 52 6.16699 70 18.5s27 28.5 27 48.5c0 27.333 -21.333 50.333 -64 69l-66 24c-40.667 15.333 -72.334 29 -95.001 41
c-79.333 43.333 -119 105.666 -119 186.999c0 64 24.333 117 73 159s112 63 190 63c98 0 181.667 -32.667 251 -98l-82 -123c-21.333 20 -47.5 36 -78.5 48s-60.5 18 -88.5 18c-27.333 0 -48.833 -5.5 -64.5 -16.5s-23.5 -25.833 -23.5 -44.5c0 -25.333 20 -47 60 -65
l72 -29c44.667 -17.333 73 -29 85 -35c88.667 -40 133 -102.667 133 -188c0 -68 -26 -123.333 -78 -166c-51.333 -43.333 -119 -65 -203 -65z" />
    <glyph glyph-name="T" unicode="T" horiz-adv-x="611" 
d="M223 0v580h-209v159h583v-159h-208v-580h-166z" />
    <glyph glyph-name="U" unicode="U" horiz-adv-x="731" 
d="M366 -13c-84 0 -154.333 24.3301 -211 72.9971s-85 121.334 -85 218.001v461h166v-454c0 -45.333 11.5 -79.666 34.5 -102.999s54.833 -35 95.5 -35c39.333 0 70.666 11.833 93.999 35.5s35 57.834 35 102.501v454h166v-461c0 -96 -28 -168.667 -84 -218
c-55.333 -48.667 -125.666 -73 -210.999 -73z" />
    <glyph glyph-name="V" unicode="V" horiz-adv-x="748" 
d="M375 248l180 491h189l-299 -739h-140l-303 739h191z" />
    <glyph glyph-name="W" unicode="W" horiz-adv-x="1078" 
d="M395 0h-149l-242 739h182l138 -481l159 481h111l161 -481l136 481h182l-241 -739h-149l-144 460z" />
    <glyph glyph-name="X" unicode="X" horiz-adv-x="684" 
d="M196 0h-193l233 373l-216 366h191l132 -241l140 241h193l-229 -366l227 -373h-191l-142 248z" />
    <glyph glyph-name="Y" unicode="Y" horiz-adv-x="693" 
d="M493 739h193l-257 -486v-253h-165v253l-255 486h193l144 -306z" />
    <glyph glyph-name="Z" unicode="Z" horiz-adv-x="662" 
d="M624 0h-588v121l353 466h-339v152h563v-127l-345 -460h356v-152z" />
    <glyph glyph-name="bracketleft" unicode="[" horiz-adv-x="420" 
d="M399 -227h-327v1038h327v-141h-167v-756h167v-141z" />
    <glyph glyph-name="backslash" unicode="\" horiz-adv-x="681" 
d="M193 825l471 -948h-173l-473 948h175z" />
    <glyph glyph-name="bracketright" unicode="]" horiz-adv-x="420" 
d="M348 -227h-327v141h167v756h-167v141h327v-1038z" />
    <glyph glyph-name="asciicircum" unicode="^" horiz-adv-x="550" 
d="M186 431h-154l189 340h108l189 -340h-154l-89 179z" />
    <glyph glyph-name="underscore" unicode="_" horiz-adv-x="594" 
d="M594 -199h-594v145h594v-145z" />
    <glyph glyph-name="grave" unicode="`" horiz-adv-x="379" 
d="M211 799l63 -179h-140l-94 179h171z" />
    <glyph glyph-name="a" unicode="a" horiz-adv-x="681" 
d="M472 490l0.000976562 58.001h148v-548h-148v56c-46.667 -46.667 -103 -70 -169 -70c-78 0 -142.667 27.667 -194 83c-50.667 55.333 -76 124.666 -76 207.999c0 81.333 25.667 149.333 77 204c51.333 54 115.666 81 192.999 81c66 0 122.333 -24 169 -72z
M190.001 275.001c0 -40.667 12.999 -75.332 38.999 -103.999c27.333 -28 61 -42 101 -42c40.667 0 74.334 14.333 101.001 43c27.333 29.333 41 63.666 41 102.999s-13.667 73.333 -41 102c-27.333 28 -61 42 -101 42s-73.667 -14 -101 -42c-26 -28 -39 -62 -39 -102z" />
    <glyph glyph-name="b" unicode="b" horiz-adv-x="682" 
d="M376 562c77.333 0 142.001 -27.667 194.001 -83c52.667 -54.667 79 -123 79 -205s-26 -150.667 -78 -206c-52 -54.667 -117 -82 -195 -82c-66.667 0 -121.334 25 -164.001 75v-61h-152v761h157v-267c43.333 45.333 96.333 68 159 68zM489.001 275
c0 40.667 -13 74.334 -39 101.001c-26 28 -59.333 42 -100 42c-40 0 -73.667 -14 -101 -42c-26 -26.667 -39 -60.334 -39 -101.001s13 -75 39 -103c27.333 -28 61 -42 101 -42c40.667 0 74 14 100 42s39 62.333 39 103z" />
    <glyph glyph-name="c" unicode="c" horiz-adv-x="605" 
d="M324 -12c-85.333 0 -155.333 26.666 -210 79.999c-54 54 -81 123 -81 207c0 84.667 27.333 153.334 82 206.001c54.667 54 125.334 81 212.001 81c57.333 0 109.166 -13.667 155.499 -41s80.5 -65.666 102.5 -114.999l-125 -67c-32 52 -75.333 78 -130 78
c-40 0 -73.667 -13.667 -101 -41c-26.667 -26.667 -40 -60.334 -40 -101.001c0 -42 13 -76.333 39 -103c26.667 -26.667 60 -40 100 -40c27.333 0 52.833 7.16699 76.5 21.5s41.167 32.833 52.5 55.5l127 -75c-24 -44.667 -59.167 -80.167 -105.5 -106.5
s-97.833 -39.5 -154.5 -39.5z" />
    <glyph glyph-name="d" unicode="d" horiz-adv-x="679" 
d="M461 495l-0.000976562 266.001h157v-761h-152v59c-42.667 -48.667 -97 -73 -163 -73c-76.667 0 -141 27.333 -193 82c-51.333 55.333 -77 124 -77 206c0 81.333 25.667 149.666 77 204.999c52 55.333 116.333 83 193 83c62.667 0 115.334 -22.333 158.001 -67z
M468.999 275.001c0 40.667 -13.333 74.667 -40 102c-26 28 -59.333 42 -100 42s-74.334 -14 -101.001 -42c-26 -28 -39 -62 -39 -102c0 -41.333 13 -76 39 -104c26.667 -28 60.334 -42 101.001 -42s74 14 100 42c26.667 27.333 40 62 40 104z" />
    <glyph glyph-name="e" unicode="e" horiz-adv-x="632" 
d="M600 287c0 -16 -1.66895 -38 -5.00195 -66h-403c18.667 -68.667 68.334 -103 149.001 -103c61.333 0 118.333 17.667 171 53l62 -107c-66.667 -50.667 -146.667 -76 -240 -76c-96.667 0 -171 27.667 -223 83c-51.333 55.333 -77 123.333 -77 204
c0 82 26.667 150.333 80 205c52.667 54.667 122.334 82 209.001 82c80 0 146.333 -24.667 199 -74c52 -49.333 78 -116.333 78 -201zM322.998 435c-32 0 -59.833 -9 -83.5 -27s-39.834 -43 -48.501 -75h258c-7.33301 32 -22.166 57 -44.499 75s-49.5 27 -81.5 27z" />
    <glyph glyph-name="f" unicode="f" horiz-adv-x="446" 
d="M362 651c-30.667 0 -54.333 -7.66699 -71 -23s-25 -37.333 -25 -66v-14h169v-130h-169v-418h-156v418h-81v130h81v18c0 72.667 21 128 63 166c43.333 38 98.333 57 165 57c56 0 111.667 -14.667 167 -44l-51 -119c-36 16.667 -66.667 25 -92 25z" />
    <glyph glyph-name="g" unicode="g" horiz-adv-x="678" 
d="M475 494l0.00195312 54.002h143v-494c0 -88.667 -29 -158.334 -87 -209.001c-56.667 -52 -130 -78 -220 -78c-96 0 -181.333 27.333 -256 82l60 116c62.667 -42.667 126 -64 190 -64c50.667 0 90.5 13.167 119.5 39.5s43.5 60.166 43.5 101.499v21
c-40.667 -42.667 -94.667 -64 -162 -64c-80.667 0 -146.334 26.333 -197.001 79s-76 119.667 -76 201c0 82.667 26.667 150.667 80 204c52.667 52.667 119 79 199 79c65.333 0 119.666 -22.667 162.999 -68zM470.002 278.002c0 40.667 -13.166 74.167 -39.499 100.5
s-59.5 39.5 -99.5 39.5s-73.333 -13.333 -100 -40c-26.667 -26 -40 -59.333 -40 -100c0 -41.333 13.333 -75.333 40 -102c27.333 -27.333 60.666 -41 99.999 -41c40 0 73 13.333 99 40c26.667 26.667 40 61 40 103z" />
    <glyph glyph-name="h" unicode="h" horiz-adv-x="652" 
d="M217 0h-157.001v761h153v-286c15.333 25.333 38.333 46.333 69 63s65.334 25 104.001 25c58.667 0 108.667 -19.667 150 -59s62 -95.666 62 -168.999v-335h-157v294c0 39.333 -9.5 70 -28.5 92s-44.833 33 -77.5 33c-35.333 0 -63.833 -11.833 -85.5 -35.5
s-32.5 -54.834 -32.5 -93.501v-290z" />
    <glyph glyph-name="i" unicode="i" horiz-adv-x="278" 
d="M143 604c-26.667 0 -49 8.83301 -67 26.5s-27 39.834 -27 66.501s9 48.834 27 66.501s40.333 26.5 67 26.5c26 0 48 -8.83301 66 -26.5s27 -39.834 27 -66.501s-9 -48.834 -27 -66.501s-40 -26.5 -66 -26.5zM220 548v-548h-157v548h157z" />
    <glyph glyph-name="j" unicode="j" horiz-adv-x="302" 
d="M163 604c-26.667 0 -49 8.83301 -67 26.5s-27 39.834 -27 66.501s9 48.834 27 66.501s40.333 26.5 67 26.5c26 0 48 -8.83301 66 -26.5s27 -39.834 27 -66.501s-9 -48.834 -27 -66.501s-40 -26.5 -66 -26.5zM21 -234c-59.333 0 -104.333 10.333 -135 31l30 123
c27.333 -10.667 53.333 -16 78 -16c60 0 90 35.333 90 106v538h157v-550c0 -75.333 -19.833 -132.833 -59.5 -172.5s-93.167 -59.5 -160.5 -59.5z" />
    <glyph glyph-name="k" unicode="k" horiz-adv-x="597" 
d="M611 0h-190l-173 227l-31 -29v-198h-157v761h157v-388l184 175h194l-240 -223z" />
    <glyph glyph-name="l" unicode="l" horiz-adv-x="277" 
d="M217 761v-761h-157v761h157z" />
    <glyph glyph-name="m" unicode="m" horiz-adv-x="1012" 
d="M733 563c64.667 0 118.334 -19.998 161.001 -59.998s64 -96.667 64 -170v-333h-157v303c0 37.333 -9.16699 66 -27.5 86s-42.833 30 -73.5 30c-33.333 0 -60.333 -11 -81 -33s-31 -51.333 -31 -88v-298h-157v302c0 36 -9.5 64.5 -28.5 85.5s-43.833 31.5 -74.5 31.5
c-32.667 0 -59.334 -11 -80.001 -33s-31 -51.667 -31 -89v-297h-157v548h153v-78c15.333 29.333 38.333 52.333 69 69s64 24.667 100 24c34.667 0 66 -7.83301 94 -23.5s49 -38.834 63 -69.501c20 29.333 47.333 52.166 82 68.499s72 24.5 112 24.5z" />
    <glyph glyph-name="n" unicode="n" horiz-adv-x="652" 
d="M217 0h-156.999v548h153v-76c14.667 26.667 37.5 48.5 68.5 65.5s65.833 25.5 104.5 25.5c59.333 0 109.666 -19.667 150.999 -59s62 -95.666 62 -168.999v-335h-157v294c0 39.333 -9.66699 70 -29 92s-45.333 33 -78 33c-35.333 0 -63.833 -11.833 -85.5 -35.5
s-32.5 -54.834 -32.5 -93.501v-290z" />
    <glyph glyph-name="o" unicode="o" horiz-adv-x="657" 
d="M328 -15c-86.667 0 -157.667 27.667 -213 83c-54.667 55.333 -82 124 -82 206s27.333 150.333 82 205c55.333 56 126.333 84 213 84c87.333 0 158.666 -28 213.999 -84c55.333 -55.333 83 -123.666 83 -204.999c0 -80.667 -27.667 -149.334 -83 -206.001
c-55.333 -55.333 -126.666 -83 -213.999 -83zM468 275c0 39.333 -13.667 72.666 -41 99.999c-27.333 28 -60.333 42 -99 42s-71.667 -14 -99 -42c-26.667 -26.667 -40 -60 -40 -100c0 -41.333 13.333 -75.666 40 -102.999c27.333 -27.333 60.333 -41 99 -41
s71.667 13.667 99 41c27.333 28.667 41 63 41 103z" />
    <glyph glyph-name="p" unicode="p" horiz-adv-x="684" 
d="M382 562c77.333 0 141.666 -27.999 192.999 -83.999c50.667 -54.667 76 -122.334 76 -203.001c0 -80 -25.667 -148.333 -77 -205c-50.667 -56 -114.667 -84 -192 -84c-65.333 0 -120.333 23.333 -165 70v-282h-157v774h155v-61c44.667 50 100.334 75 167.001 75z
M492 274.001c0 40 -13 73.667 -39 101c-26 28 -59.333 42 -100 42c-40 0 -73 -14 -99 -42c-26 -27.333 -39 -61 -39 -101c0 -40.667 13 -74.834 39 -102.501s59 -41.5 99 -41.5s73.167 13.833 99.5 41.5s39.5 61.834 39.5 102.501z" />
    <glyph glyph-name="q" unicode="q" horiz-adv-x="684" 
d="M469 488v60h155v-774h-157v282c-44.667 -46.667 -99.667 -70 -165 -70c-78 0 -142.333 28 -193 84c-50.667 55.333 -76 123.666 -76 204.999c0 80.667 25.333 148.334 76 203.001c50.667 56 115 84 193 84c65.333 0 121 -24.667 167 -74zM470 274
c0 40 -13 73.667 -39 101c-26 28 -59.333 42 -100 42s-74 -14 -100 -42c-26 -27.333 -39 -61 -39 -101c0 -40.667 13.167 -74.834 39.5 -102.501s59.5 -41.5 99.5 -41.5s73.167 13.833 99.5 41.5s39.5 61.834 39.5 102.501z" />
    <glyph glyph-name="r" unicode="r" horiz-adv-x="432" 
d="M217 0h-157v548h150v-71c35.333 57.333 85 86 149 86c21.333 0 44 -4.33301 68 -13l-13 -150c-22.667 8 -45.667 12 -69 12c-40 0 -71.333 -13.5 -94 -40.5s-34 -67.5 -34 -121.5v-250z" />
    <glyph glyph-name="s" unicode="s" horiz-adv-x="511" 
d="M254 -15c-96.667 0 -174.665 33.667 -233.998 101l77 102c47.333 -48 99.666 -72 156.999 -72c20 0 36.167 4 48.5 12s18.5 18.667 18.5 32c0 16 -11.333 29.333 -34 40c-7.33301 3.33301 -29 11.333 -65 24c-38.667 14.667 -62.334 24 -71.001 28
c-65.333 31.333 -98 79.666 -98 144.999c0 50.667 19.333 91.334 58 122.001c39.333 31.333 91.333 47 156 47c79.333 0 145.333 -25.333 198 -76l-73 -102c-41.333 34 -84 51 -128 51c-17.333 0 -31.166 -3.66699 -41.499 -11s-15.5 -16.666 -15.5 -27.999
c0 -20 16.333 -35.333 49 -46c61.333 -20 104.666 -36.667 129.999 -50c62 -32.667 93 -79.334 93 -140.001c0 -51.333 -20.667 -94 -62 -128c-40.667 -34 -95 -51 -163 -51z" />
    <glyph glyph-name="t" unicode="t" horiz-adv-x="473" 
d="M426 156l44 -125c-46.667 -30 -102.667 -45 -168 -45c-130.667 0 -196 73.667 -196 221v211h-87v130h88v194h156v-194h176v-130h-176v-196c0 -62 24.333 -93 73 -93c25.333 0 55.333 9 90 27z" />
    <glyph glyph-name="u" unicode="u" horiz-adv-x="620" 
d="M310 -14c-80 0 -142.833 21.999 -188.5 65.999s-68.5 105 -68.5 183v313h157v-314c0 -32 8.83301 -57.333 26.5 -76s42.167 -28 73.5 -28s55.833 9.33301 73.5 28s26.5 44 26.5 76v314h157v-313c0 -79.333 -22.667 -140.666 -68 -183.999s-108.333 -65 -189 -65z" />
    <glyph glyph-name="v" unicode="v" horiz-adv-x="608" 
d="M306 212l125 336h171l-237 -547h-123l-236 547h173z" />
    <glyph glyph-name="w" unicode="w" horiz-adv-x="890" 
d="M332 1h-139l-187 547h165l103 -341l115 341h111l117 -341l101 341h165l-185 -547h-139l-114 320z" />
    <glyph glyph-name="x" unicode="x" horiz-adv-x="568" 
d="M387 275l172 -275h-181l-95 171l-101 -171h-179l177 278l-157 270h179l84 -160l92 160h176z" />
    <glyph glyph-name="y" unicode="y" horiz-adv-x="614" 
d="M319 209l117.999 339h170l-217 -563c-28.667 -74 -62.667 -128.833 -102 -164.5s-87.666 -53.5 -144.999 -53.5c-44.667 0 -81.667 9.66699 -111 29l29 130c23.333 -12.667 47 -19 71 -19c44 0 79.333 28 106 84l7 16l-239 541h181z" />
    <glyph glyph-name="z" unicode="z" horiz-adv-x="549" 
d="M504 438l-255 -308h266v-130h-482v109l261 308h-249v130h459v-109z" />
    <glyph glyph-name="braceleft" unicode="{" horiz-adv-x="420" 
d="M201 291v-4c27.333 -8 50.333 -22.667 69 -44s28 -46.333 28 -75c0 -16 -2 -44.667 -6 -86s-6 -70 -6 -86c0 -49.333 25 -74 75 -74h26v-153h-77c-123.333 0 -185 64 -185 192c0 22 1.33301 50.333 4 85c3.33301 43.333 5 71.666 5 84.999c0 32.667 -9 55.667 -27 69
s-47.333 22 -88 26v128c41.333 4 70.833 12.667 88.5 26s26.5 36.333 26.5 69c0 12 -1.66699 40.667 -5 86c-2.66699 36.667 -4 67.334 -4 92.001c0 122.667 64.667 184 194 184h68v-153h-26c-50 0 -75 -24.333 -75 -73c0 -16.667 2 -46 6 -88s6 -70.667 6 -86
c0 -28.667 -9.33301 -53.667 -28 -75s-41.667 -36.333 -69 -45z" />
    <glyph glyph-name="bar" unicode="|" horiz-adv-x="303" 
d="M231 -179h-159v1026h159v-1026z" />
    <glyph glyph-name="braceright" unicode="}" horiz-adv-x="420" 
d="M219 287v4c-27.333 8.66699 -50.333 23.667 -69 45s-28 46.333 -28 75c0 15.333 2 44 6 86s6 71.333 6 88c0 48.667 -25 73 -75 73h-26v153h68c129.333 0 194 -61.333 194 -184c0 -16 -1.66699 -46.667 -5 -92c-2.66699 -36.667 -4 -65.334 -4 -86.001
c0 -32.667 8.83301 -55.667 26.5 -69s47.167 -22 88.5 -26v-128c-40.667 -4 -70 -12.667 -88 -26s-27 -36.333 -27 -69c0 -22 1.33301 -50.333 4 -85c3.33301 -43.333 5 -71.666 5 -84.999c0 -128 -61.667 -192 -185 -192h-77v153h26c50 0 75 24.667 75 74
c0 16 -2 44.667 -6 86s-6 70 -6 86c0 28.667 9.33301 53.667 28 75s41.667 36 69 44z" />
    <glyph glyph-name="asciitilde" unicode="~" horiz-adv-x="710" 
d="M463 225c-40 0 -82.998 10.333 -128.998 31c-46.667 21.333 -78.334 32 -95.001 32c-16 0 -31 -4.5 -45 -13.5s-31 -26.167 -51 -51.5l-100 80c20 40 47.667 70.667 83 92s74.666 32 117.999 32c37.333 0 80 -10.667 128 -32c46 -20.667 79 -31 99 -31
c16 0 30.833 5 44.5 15s30.5 28.667 50.5 56l104 -83c-50 -84.667 -119 -127 -207 -127z" />
    <glyph glyph-name="exclamdown" unicode="&#xa1;" horiz-adv-x="284" 
d="M160 527c24 0 44.333 -8.5 61 -25.5s25 -38.167 25 -63.5c0 -24 -8.5 -44.333 -25.5 -61s-37.167 -25 -60.5 -25c-25.333 0 -46.666 8.33301 -63.999 25s-26 37 -26 61c0 25.333 8.66699 46.5 26 63.5s38.666 25.5 63.999 25.5zM77 -244l9 544h143l11 -544h-163z" />
    <glyph glyph-name="cent" unicode="&#xa2;" horiz-adv-x="623" 
d="M370 413v-276.003c43.333 11.333 74 35.333 92 72l127 -75c-20.667 -39.333 -50.167 -71.666 -88.5 -96.999s-81.833 -41 -130.5 -47v-76h-83v76c-74 8.66699 -134.333 39.334 -181 92.001c-45.333 52.667 -68 117 -68 193c0 75.333 22.667 139.333 68 192
c46.667 52.667 107 83.334 181 92.001v75h83v-74c49.333 -5.33301 93.333 -21.333 132 -48s68 -62 88 -106l-125 -67c-25.333 39.333 -57 64 -95 74zM194 274.997c0 -32 8.5 -60.335 25.5 -85.002s39.5 -41.667 67.5 -51v270c-28 -9.33301 -50.5 -26.166 -67.5 -50.499
s-25.5 -52.166 -25.5 -83.499z" />
    <glyph glyph-name="sterling" unicode="&#xa3;" horiz-adv-x="594" 
d="M293 307v-9.00195c-0.666992 -54 -20.667 -103 -60 -147h317v-151h-497v128c53.333 55.333 80 113.333 80 174v5h-86v122h57c-12 39.333 -18 73 -18 101c0 62.667 24 115.334 72 158.001c47.333 42.667 104.666 64 171.999 64c48.667 0 93.334 -10.667 134.001 -32
s72 -49.666 94 -84.999l-104 -100c-12.667 18.667 -28.5 33.5 -47.5 44.5s-38.833 16.5 -59.5 16.5c-28 0 -51 -9 -69 -27s-27 -40.333 -27 -67c0 -16 5 -40.333 15 -73h223v-122h-196z" />
    <glyph glyph-name="currency" unicode="&#xa4;" horiz-adv-x="647" 
d="M559 367c0 -42.667 -11.6689 -82.668 -35.002 -120.001l77 -76l-71 -71l-79 77c-39.333 -24 -82.666 -36 -129.999 -36c-48 0 -90.333 11.333 -127 34l-77 -75l-70 71l74 73c-24.667 36.667 -37 77.667 -37 123c0 48.667 14 92.667 42 132l-79 79l70 72l85 -84
c36.667 20 76.334 30 119.001 30c46 0 86.667 -10.333 122 -31l87 85l71 -72l-83 -81c27.333 -39.333 41 -82.666 41 -129.999zM240.998 286.999c20.667 -22 47.333 -33 80 -33s59.334 11 80.001 33c22 23.333 33 50.666 33 81.999c0 32 -11 59 -33 81
c-21.333 22 -48 33 -80 33c-32.667 0 -59.334 -11 -80.001 -33c-21.333 -22.667 -32 -49.667 -32 -81s10.667 -58.666 32 -81.999z" />
    <glyph glyph-name="yen" unicode="&#xa5;" horiz-adv-x="710" 
d="M499 739h185l-167 -322h85v-119h-147l-18 -35v-7h165v-119h-165v-137h-165v137h-166v119h166v8l-18 34h-148v119h87l-165 322h185l142 -309z" />
    <glyph glyph-name="brokenbar" unicode="&#xa6;" horiz-adv-x="303" 
d="M231 434h-159v413h159v-413zM72 234h159v-413h-159v413z" />
    <glyph glyph-name="section" unicode="&#xa7;" horiz-adv-x="636" 
d="M600 215c0 -58.667 -23.332 -105.335 -69.999 -140.002c20 -28.667 30 -62 30 -100c0 -59.333 -23.667 -109.666 -71 -150.999c-46.667 -40.667 -108.334 -61 -185.001 -61c-53.333 0 -103.5 11.167 -150.5 33.5s-86.5 54.833 -118.5 97.5l104 109
c20 -26.667 44.667 -48 74 -64s58.666 -24 87.999 -24c24 0 43.5 5.66699 58.5 17s22.5 26 22.5 44c0 26 -24.667 51.667 -74 77l-67 32c-50 22.667 -92.667 48 -128 76c-42 36 -63 79.333 -63 130c0 57.333 23.333 104 70 140c-20.667 30.667 -31 64.667 -31 102
c0 65.333 24 118 72 158c47.333 40.667 108.333 61 183 61c94 0 171 -35 231 -105l-112 -105c-34 38 -72 57 -114 57c-25.333 0 -46.166 -6.16699 -62.499 -18.5s-24.5 -27.5 -24.5 -45.5c0 -16.667 11.333 -34.667 34 -54c4 -3.33301 13.333 -8.83301 28 -16.5l24 -12.5
l32 -15l32 -14c49.333 -22 91.333 -47 126 -75c41.333 -33.333 62 -77.666 62 -132.999zM308.001 220.999c55.333 -26 91.332 -43.333 107.999 -52c10 11.333 15 22.666 15 33.999c0 14.667 -7.16699 27.834 -21.5 39.501s-39.166 25.834 -74.499 42.501
c-54 25.333 -89.667 43.333 -107 54c-10 -12 -15 -23.667 -15 -35c0 -14.667 7.16699 -27.834 21.5 -39.501s38.833 -26.167 73.5 -43.5z" />
    <glyph glyph-name="dieresis" unicode="&#xa8;" horiz-adv-x="514" 
d="M133 620c-26 0 -47.499 8.33301 -64.499 25s-25.5 38 -25.5 64c0 24.667 8.66699 45.5 26 62.5s38.666 25.5 63.999 25.5s46.5 -8.5 63.5 -25.5s25.5 -37.833 25.5 -62.5c0 -26 -8.5 -47.333 -25.5 -64s-38.167 -25 -63.5 -25zM357.001 620
c-26 0 -47.499 8.33301 -64.499 25s-25.5 38 -25.5 64c0 24.667 8.66699 45.5 26 62.5s38.666 25.5 63.999 25.5s46.5 -8.5 63.5 -25.5s25.5 -37.833 25.5 -62.5c0 -26 -8.5 -47.333 -25.5 -64s-38.167 -25 -63.5 -25z" />
    <glyph glyph-name="copyright" unicode="&#xa9;" 
d="M38 369c0 104.667 37.6689 194.667 113.002 270s166 113 272 113s196.667 -37.667 272 -113s113 -165.333 113 -270c0 -104 -37.667 -193.667 -113 -269c-74.667 -74.667 -165.334 -112 -272.001 -112s-197.334 37.333 -272.001 112c-75.333 75.333 -113 165 -113 269z
M423.002 77c82 1.33301 151 29.999 207 85.999c58 56.667 87 125.334 87 206.001s-29 149.667 -87 207c-57.333 57.333 -126.333 86 -207 86c-80 0 -149.333 -28.667 -208 -86c-57.333 -57.333 -86 -126.333 -86 -207c0 -80 28.667 -148.667 86 -206
c56 -56 125.333 -84.667 208 -86zM426.002 162.999c-60.667 0 -110.334 19.332 -149.001 57.999s-58 88 -58 148s19.333 109.333 58 148c39.333 39.333 89 59 149 59c37.333 0 71.333 -8.83301 102 -26.5s55 -42.834 73 -75.501l-80 -48c-26 34 -57 51 -93 51
c-30.667 0 -56 -10.167 -76 -30.5s-30 -46.166 -30 -77.499s9.83301 -57.166 29.5 -77.499s44.834 -30.5 75.501 -30.5c40 0 71.333 16.333 94 49l79 -54c-38 -62 -96 -93 -174 -93z" />
    <glyph glyph-name="ordfeminine" unicode="&#xaa;" horiz-adv-x="407" 
d="M196 736c46.667 0 84.498 -13.502 113.498 -40.502s43.5 -66.833 43.5 -119.5v-186h-89v34c-25.333 -27.333 -60.666 -41 -105.999 -41c-37.333 0 -66.666 10.167 -87.999 30.5s-32 46.5 -32 78.5c0 34.667 13.167 60.834 39.5 78.501s62.833 26.5 109.5 26.5
c3.33301 0 8.16602 -0.166992 14.499 -0.5s15.333 -0.666016 27 -0.999023s22.167 -0.5 31.5 -0.5c-5.33301 37.333 -30.666 56 -75.999 56c-35.333 0 -69 -8 -101 -24l-29 72c40.667 24.667 88 37 142 37zM176.998 460.998c24 0 43.667 6.66895 59 20.002s23.333 31 24 53
c-39.333 1.33301 -61.333 1.66602 -66 0.999023c-42.667 -0.666992 -64 -13.334 -64 -38.001c0 -24 15.667 -36 47 -36z" />
    <glyph glyph-name="guillemotleft" unicode="&#xab;" horiz-adv-x="611" 
d="M329 88h-165l-134 203l134 203h165l-139 -203zM568 88h-167l-132 203l133 203h166l-139 -203z" />
    <glyph glyph-name="logicalnot" unicode="&#xac;" horiz-adv-x="602" 
d="M395 243h-335v144h476v-251h-141v107z" />
    <glyph glyph-name="uni00AD" unicode="&#xad;" horiz-adv-x="496" 
d="M439 255h-382v146h382v-146z" />
    <glyph glyph-name="registered" unicode="&#xae;" horiz-adv-x="602" 
d="M302 783c72 0 133.333 -25.335 184 -76.002c51.333 -51.333 77 -112.666 77 -183.999s-25.667 -132.666 -77 -183.999c-50.667 -50.667 -112 -76 -184 -76c-73.333 0 -135.333 25.333 -186 76s-76 112 -76 184s25.333 133.333 76 184s112.667 76 186 76zM302 328.998
c53.333 0 98.332 18.998 134.999 56.998c37.333 38.667 56 84.334 56 137.001s-18.667 98.334 -56 137.001c-36.667 38 -81.667 57 -135 57s-98.666 -19 -135.999 -57c-36.667 -37.333 -55 -83 -55 -137s18.333 -99.667 55 -137c36.667 -38 82 -57 136 -57zM403.999 564.996
c0 -35.333 -15 -59.334 -45 -72.001l50 -88h-69l-43 79h-28v-79h-64v241h115c24 0 44 -7.66699 60 -23s24 -34.666 24 -57.999zM303.999 593.995h-35v-59h35c23.333 0 35 10.333 35 31c0 18.667 -11.667 28 -35 28z" />
    <glyph glyph-name="overscore" unicode="&#xaf;" horiz-adv-x="448" 
d="M374 635l-334 -2v137h334v-135z" />
    <glyph glyph-name="degree" unicode="&#xb0;" horiz-adv-x="367" 
d="M28 679c0 43.333 15.001 79.333 45.001 108c31.333 30 68.333 45 111 45c43.333 0 80 -15 110 -45c30 -28.667 45 -64.667 45 -108c0 -42 -15 -77.667 -45 -107c-30.667 -29.333 -67.334 -44 -110.001 -44s-79.667 14.667 -111 44c-30 29.333 -45 65 -45 107z
M140.001 635c12 -12 26.667 -18 44 -18s32 6 44 18s18 26.667 18 44s-6 32 -18 44s-26.667 18 -44 18s-32 -6 -44 -18s-18 -26.667 -18 -44s6 -32 18 -44z" />
    <glyph glyph-name="plusminus" unicode="&#xb1;" horiz-adv-x="628" 
d="M575 496v-145h-188v-170h188v-141h-522v141h190v170h-190v145h190v189h144v-189h188z" />
    <glyph glyph-name="uni00B2" unicode="&#xb2;" horiz-adv-x="347" 
d="M254 672l-74.998 -76.002h133v-89h-276v81l129 130c28 29.333 42 52 42 68c0 10.667 -3.83301 19.334 -11.5 26.001s-17.834 10 -30.501 10c-25.333 0 -57.333 -18.333 -96 -55l-48 74c43.333 47.333 93.666 71 150.999 71c40 0 73 -11.667 99 -35s39 -53.333 39 -90
c0 -37.333 -18.667 -75.666 -56 -114.999z" />
    <glyph glyph-name="uni00B3" unicode="&#xb3;" horiz-adv-x="334" 
d="M147 501c-48 0 -94.334 13.332 -139.001 39.999l40 78c38 -18 69.333 -27 94 -27c38 0 57 12.667 57 38c0 10.667 -5.16699 19.334 -15.5 26.001s-23.833 10 -40.5 10h-54v85h47c14.667 0 27.334 3 38.001 9s16 15 16 27c0 21.333 -15.667 32 -47 32
c-22 0 -47.667 -8.66699 -77 -26l-48 71c38.667 32 84.667 48 138 48c38.667 0 71 -10 97 -30c26.667 -20 40 -44.667 40 -74c0 -21.333 -6.5 -39.833 -19.5 -55.5s-30.5 -26.834 -52.5 -33.501v-2c26 -6 46.333 -17.5 61 -34.5s22 -37.5 22 -61.5
c0 -35.333 -14.5 -64.166 -43.5 -86.499s-66.833 -33.5 -113.5 -33.5z" />
    <glyph glyph-name="acute" unicode="&#xb4;" horiz-adv-x="390" 
d="M180 620h-140l62 179h172z" />
    <glyph glyph-name="paragraph" unicode="&#xb6;" horiz-adv-x="797" 
d="M269 734h481.999v-156h-79v-781h-160v781h-71v-781h-160v474h-29c-65.333 0 -119.333 21 -162 63c-42 42 -63 97.667 -63 167c0 70 22 126.333 66 169c44.667 42.667 103.334 64 176.001 64z" />
    <glyph glyph-name="middot" unicode="&#xb7;" horiz-adv-x="268" 
d="M136 -16c-25.333 0 -46.5 8.33203 -63.5 24.999s-25.5 37.667 -25.5 63c0 24.667 8.5 45.334 25.5 62.001s38.167 25 63.5 25c24 0 44.333 -8.5 61 -25.5s25 -37.5 25 -61.5c0 -25.333 -8.33301 -46.333 -25 -63s-37 -25 -61 -25z" />
    <glyph glyph-name="cedilla" unicode="&#xb8;" horiz-adv-x="355" 
d="M239 18l-27 -66c30.667 -2 56.167 -12.5 76.5 -31.5s30.5 -42.833 30.5 -71.5c0 -34.667 -13.667 -63.834 -41 -87.501s-64.333 -35.5 -111 -35.5c-40.667 0 -83 10.333 -127 31l32 88c29.333 -14 56.333 -21 81 -21c16 0 28.5 3.33301 37.5 10s13.5 15.334 13.5 26.001
c0 22 -19 33 -57 33h-53l-8 29l39 98z" />
    <glyph glyph-name="uni00B9" unicode="&#xb9;" horiz-adv-x="281" 
d="M8 792l147 110h76v-395h-102v254l-69 -50z" />
    <glyph glyph-name="ordmasculine" unicode="&#xba;" horiz-adv-x="424" 
d="M32 556c0 50.667 17.001 92.667 51.001 126c35.333 34 78.333 51 129 51c51.333 0 94 -17 128 -51c34.667 -32.667 52 -74.667 52 -126c0 -50.667 -17.333 -92.334 -52 -125.001c-34.667 -33.333 -77.334 -50 -128.001 -50s-93.667 16.667 -129 50
c-34 32.667 -51 74.334 -51 125.001zM212.001 474c24.667 0 44.833 7.83301 60.5 23.5s23.5 35.5 23.5 59.5c0 23.333 -8 43.166 -24 59.499s-36.333 24.5 -61 24.5c-23.333 0 -43 -8.16699 -59 -24.5s-24 -36.166 -24 -59.499c0 -24 8 -43.833 24 -59.5s36 -23.5 60 -23.5z
" />
    <glyph glyph-name="guillemotright" unicode="&#xbb;" horiz-adv-x="611" 
d="M342 291l-132 -203h-167l139 203l-139 203h166zM581 291l-134 -203h-165l139 203l-139 203h165z" />
    <glyph glyph-name="onequarter" unicode="&#xbc;" horiz-adv-x="893" 
d="M252 347h-101v255l-70 -51l-52 81l148 110h75v-395zM105 0l578 739h124l-577 -739h-125zM807 167h42v-81h-42v-86h-93v86h-175l-21 61l209 249h80v-229zM714 271l-89 -104h89v104z" />
    <glyph glyph-name="onehalf" unicode="&#xbd;" horiz-adv-x="874" 
d="M253 347h-101v255l-70 -51l-52 81l148 110h75v-395zM84 0l578 739h124l-577 -739h-125zM775 165l-74.998 -76.002h133v-89h-276v81l129 130c28 29.333 42 52 42 68c0 10.667 -3.83301 19.334 -11.5 26.001s-17.834 10 -30.501 10c-25.333 0 -57.333 -18.333 -96 -55
l-48 74c43.333 47.333 93.666 71 150.999 71c40 0 73 -11.667 99 -35s39 -53.333 39 -90c0 -37.333 -18.667 -75.666 -56 -114.999z" />
    <glyph glyph-name="threequarters" unicode="&#xbe;" horiz-adv-x="852" 
d="M154 432c38 0 56.999 12.666 56.999 37.999c0 10.667 -5.16699 19.334 -15.5 26.001s-23.833 10 -40.5 10h-54v85h47c14.667 0 27.334 3 38.001 9s16 15 16 27c0 21.333 -15.667 32 -47 32c-22 0 -47.667 -8.66699 -77 -26l-48 71c38.667 32 84.667 48 138 48
c38.667 0 71 -10 97 -30c26.667 -20 40 -44.667 40 -74c0 -21.333 -6.5 -39.833 -19.5 -55.5s-30.5 -26.834 -52.5 -33.501v-2c26 -6 46.333 -17.5 61 -34.5s22 -37.5 22 -61.5c0 -35.333 -14.5 -64.166 -43.5 -86.499s-66.833 -33.5 -113.5 -33.5
c-48 0 -94.333 13.333 -139 40l40 78c38 -18 69.333 -27 94 -27zM103.999 -0.000976562l578 739h124l-577 -739h-125zM675.999 395.999h80v-229h42v-81h-42v-86h-93v86h-175l-21 61zM662.999 270.999l-89 -104h89v104z" />
    <glyph glyph-name="questiondown" unicode="&#xbf;" horiz-adv-x="557" 
d="M240 502c17.333 17.333 38.001 26 62.001 26s44.667 -8.66699 62 -26c18 -16.667 27 -37.334 27 -62.001s-8.66699 -45.334 -26 -62.001s-38.333 -25 -63 -25s-45.334 8.33301 -62.001 25s-25 37.334 -25 62.001s8.33301 45.334 25 62.001zM228.001 310
l151.999 -0.00292969v-63c0 -56 -20.667 -103 -62 -141c-6 -6 -16.167 -15 -30.5 -27s-25.166 -21.667 -32.499 -29s-15.666 -16.333 -24.999 -27s-16.166 -21.167 -20.499 -31.5s-6.5 -21.166 -6.5 -32.499c0 -23.333 8.33301 -42.333 25 -57s37.667 -22 63 -22
c47.333 0 96.666 29.667 147.999 89l97 -108c-68 -86 -153.667 -129 -257 -129c-72.667 0 -131.667 20.667 -177 62c-44.667 40.667 -67 92.334 -67 155.001c0 57.333 22.667 107.333 68 150l41 36c21.333 18.667 36.166 32.334 44.499 41.001s17 20.667 26 36
s13.5 30.333 13.5 45v53z" />
    <glyph glyph-name="Agrave" unicode="&#xc0;" horiz-adv-x="704" 
d="M362 984l66 -189h-149l-99 189h182zM697 0h-172l-49 149h-248l-51 -149h-172l277 739h144zM432 294l-79 234l-80 -234h159z" />
    <glyph glyph-name="Aacute" unicode="&#xc1;" horiz-adv-x="704" 
d="M351 982h180l-98 -188h-147zM697 0h-172l-49 149h-248l-51 -149h-172l277 739h144zM432 294l-79 234l-80 -234h159z" />
    <glyph glyph-name="Acircumflex" unicode="&#xc2;" horiz-adv-x="704" 
d="M418 794l-65 90l-66 -90h-153l159 190h124l159 -190h-158zM697 0h-172l-49 149h-248l-51 -149h-172l277 739h144zM432 294l-79 234l-80 -234h159z" />
    <glyph glyph-name="Atilde" unicode="&#xc3;" horiz-adv-x="704" 
d="M287 839c-25.333 0 -48.002 -17.666 -68.002 -52.999l-102 51c20.667 42.667 43.334 74.167 68.001 94.5s54.667 30.5 90 30.5c22.667 0 48.667 -7.66699 78 -23c28.667 -14.667 48.334 -22 59.001 -22c11.333 0 21.333 3.66699 30 11s19 20.666 31 39.999l102 -49
c-33.333 -83.333 -82.333 -125 -147 -125c-22 0 -47.667 7.33301 -77 22c-30.667 15.333 -52 23 -64 23zM696.998 0.000976562h-172l-49 149h-248l-51 -149h-172l277 739h144zM431.998 294.001l-79 234l-80 -234h159z" />
    <glyph glyph-name="Adieresis" unicode="&#xc4;" horiz-adv-x="704" 
d="M143 884c0 24.667 8.83398 45.667 26.501 63s39.167 26 64.5 26s46.666 -8.5 63.999 -25.5s26 -38.167 26 -63.5c0 -26 -8.5 -47.5 -25.5 -64.5s-38.5 -25.5 -64.5 -25.5s-47.667 8.5 -65 25.5s-26 38.5 -26 64.5zM461.001 794c-26 0 -47.667 8.5 -65 25.5
s-26 38.5 -26 64.5c0 24.667 8.83301 45.667 26.5 63s39.167 26 64.5 26s46.666 -8.66699 63.999 -26s26 -38.333 26 -63c0 -26 -8.66699 -47.5 -26 -64.5s-38.666 -25.5 -63.999 -25.5zM697.001 0h-172l-49 149h-248l-51 -149h-172l277 739h144zM432.001 294l-79 234
l-80 -234h159z" />
    <glyph glyph-name="Aring" unicode="&#xc5;" horiz-adv-x="704" 
d="M355 778c-41.333 0 -75.667 13.334 -103 40.001c-28 26.667 -42 59.667 -42 99s14 72.666 42 99.999c28.667 27.333 63 41 103 41s74.333 -14 103 -42c28.667 -26.667 43 -59.667 43 -99s-14.333 -72.333 -43 -99s-63 -40 -103 -40zM354.999 972.001
c-15.333 0 -28.333 -5.16699 -39 -15.5s-16 -22.833 -16 -37.5c0 -15.333 5.33301 -28.166 16 -38.499s23.667 -15.5 39 -15.5c14.667 0 27.167 5.16699 37.5 15.5s15.5 23.166 15.5 38.499c0 14.667 -5.16699 27.167 -15.5 37.5s-22.833 15.5 -37.5 15.5z
M696.999 0.000976562h-172l-49 149h-248l-51 -149h-172l277 739h144zM431.999 294.001l-79 234l-80 -234h159z" />
    <glyph glyph-name="AE" unicode="&#xc6;" horiz-adv-x="1062" 
d="M1009 739v-154h-353v-137h326v-153h-326v-141h352v-154h-519v158h-239l-89 -158h-180l441 739h587zM489 582l-157 -278h157v278z" />
    <glyph glyph-name="Ccedilla" unicode="&#xc7;" horiz-adv-x="760" 
d="M632 249l111.002 -104.001c-30 -40 -68.833 -73.667 -116.5 -101s-99.834 -44.666 -156.501 -51.999l-16 -40c30.667 -2 56.167 -12.5 76.5 -31.5s30.5 -42.833 30.5 -71.5c0 -34.667 -13.667 -63.834 -41 -87.501s-64.333 -35.5 -111 -35.5
c-40.667 0 -83 10.333 -127 31l32 88c29.333 -14 56.333 -21 81 -21c16 0 28.5 3.33301 37.5 10s13.5 15.334 13.5 26.001c0 22 -19 33 -57 33h-53l-8 29l28 71c-92 12.667 -168.333 53.334 -229 122.001c-60 68 -90 152 -90 252c0 112 37 204 111 276
c74.667 72.667 165 109 271 109c65.333 0 126 -13.5 182 -40.5s101 -63.5 135 -109.5l-108 -110c-56 67.333 -122.667 101 -200 101c-61.333 0 -113.333 -21.333 -156 -64s-64 -96.334 -64 -161.001c0 -63.333 21 -116 63 -158s94 -63 156 -63
c79.333 0 147.666 34 204.999 102z" />
    <glyph glyph-name="Egrave" unicode="&#xc8;" horiz-adv-x="647" 
d="M354 984l66 -189h-149l-99 189h182zM593 0h-515v739h516v-154h-350v-137h324v-153h-324v-141h349v-154z" />
    <glyph glyph-name="Eacute" unicode="&#xc9;" horiz-adv-x="647" 
d="M403 794h-147l65 188h180zM593 0h-515v739h516v-154h-350v-137h324v-153h-324v-141h349v-154z" />
    <glyph glyph-name="Ecircumflex" unicode="&#xca;" horiz-adv-x="647" 
d="M269 794h-153l159 190h124l159 -190h-158l-65 90zM593 0h-515v739h516v-154h-350v-137h324v-153h-324v-141h349v-154z" />
    <glyph glyph-name="Edieresis" unicode="&#xcb;" horiz-adv-x="647" 
d="M132 884c0 24.667 8.83398 45.667 26.501 63s39.167 26 64.5 26s46.666 -8.5 63.999 -25.5s26 -38.167 26 -63.5c0 -26 -8.5 -47.5 -25.5 -64.5s-38.5 -25.5 -64.5 -25.5s-47.667 8.5 -65 25.5s-26 38.5 -26 64.5zM450.001 794c-26 0 -47.667 8.5 -65 25.5
s-26 38.5 -26 64.5c0 24.667 8.83301 45.667 26.5 63s39.167 26 64.5 26s46.666 -8.66699 63.999 -26s26 -38.333 26 -63c0 -26 -8.66699 -47.5 -26 -64.5s-38.666 -25.5 -63.999 -25.5zM593.001 0h-515v739h516v-154h-350v-137h324v-153h-324v-141h349v-154z" />
    <glyph glyph-name="Igrave" unicode="&#xcc;" horiz-adv-x="322" 
d="M175 984l66 -189h-149l-99 189h182zM79 0v739h166v-739h-166z" />
    <glyph glyph-name="Iacute" unicode="&#xcd;" horiz-adv-x="321" 
d="M231 795h-147l65 188h180zM78 0v739h166v-739h-166z" />
    <glyph glyph-name="Icircumflex" unicode="&#xce;" horiz-adv-x="322" 
d="M95 796h-153l159 190h124l159 -190h-158l-65 90zM79 0v739h166v-739h-166z" />
    <glyph glyph-name="Idieresis" unicode="&#xcf;" horiz-adv-x="322" 
d="M48 794c-26.667 0 -48.833 8.66699 -66.5 26s-26.5 39.333 -26.5 66c0 25.333 9 46.833 27 64.5s40 26.5 66 26.5c25.333 0 46.833 -8.83301 64.5 -26.5s26.5 -39.167 26.5 -64.5c0 -26.667 -8.66699 -48.667 -26 -66s-39 -26 -65 -26zM186.001 886
c0 25.333 9 46.833 27 64.5s39.667 26.5 65 26.5c26 0 47.833 -8.83301 65.5 -26.5s26.5 -39.167 26.5 -64.5c0 -26.667 -8.83301 -48.667 -26.5 -66s-39.5 -26 -65.5 -26s-47.833 8.66699 -65.5 26s-26.5 39.333 -26.5 66zM79.001 0v739h166v-739h-166z" />
    <glyph glyph-name="Eth" unicode="&#xd0;" horiz-adv-x="789" 
d="M92 739h294.999c113.333 0 201.333 -33.333 264 -100c64 -66 96 -156 96 -270c0 -114.667 -32.333 -204.667 -97 -270c-65.333 -66 -154.666 -99 -267.999 -99h-290v304h-75v132h75v303zM256.999 159h132c60 0 106 20 138 60c32.667 40.667 49 91 49 151
c0 60.667 -16.333 110.667 -49 150c-32 40 -78 60 -138 60h-132v-144h184v-132h-184v-145z" />
    <glyph glyph-name="Ntilde" unicode="&#xd1;" horiz-adv-x="799" 
d="M273 791l-102.002 51.001c20.667 42.667 43.334 74.167 68.001 94.5s54.667 30.5 90 30.5c22.667 0 48.667 -7.66699 78 -23c28.667 -14.667 48.334 -22 59.001 -22c11.333 0 21.333 3.66699 30 11s19 20.666 31 39.999l102 -49c-33.333 -83.333 -82.333 -125 -147 -125
c-22 0 -47.667 7.33301 -77 22c-30.667 15.333 -52 23 -64 23c-25.333 0 -48 -17.667 -68 -53zM558.998 307.001v432h162v-739h-119l-361 428v-428h-163v739h112z" />
    <glyph glyph-name="Ograve" unicode="&#xd2;" 
d="M442 984l66 -189h-149l-99 189h182zM37 368c0 107.333 36.999 198 110.999 272c74.667 74.667 166.334 112 275.001 112s200 -37.333 274 -112c74.667 -74 112 -164.333 112 -271s-37 -197 -111 -271c-74.667 -73.333 -166.667 -110 -276 -110
c-110 0 -201.667 36.667 -275 110s-110 163.333 -110 270zM422.999 151c60.667 0 111.668 20.667 153.001 62c41.333 42.667 61.666 94.667 60.999 156c-1.33301 64 -22.333 116.333 -63 157c-41.333 42 -91.666 63 -150.999 63c-60.667 0 -111.334 -21 -152.001 -63
c-41.333 -42.667 -62 -95 -62 -157c0 -61.333 20.667 -113.333 62 -156c41.333 -41.333 92 -62 152 -62z" />
    <glyph glyph-name="Oacute" unicode="&#xd3;" 
d="M497 794h-147l65 188h180zM37 368c0 107.333 36.999 198 110.999 272c74.667 74.667 166.334 112 275.001 112s200 -37.333 274 -112c74.667 -74 112 -164.333 112 -271s-37 -197 -111 -271c-74.667 -73.333 -166.667 -110 -276 -110c-110 0 -201.667 36.667 -275 110
s-110 163.333 -110 270zM422.999 151c60.667 0 111.668 20.667 153.001 62c41.333 42.667 61.666 94.667 60.999 156c-1.33301 64 -22.333 116.333 -63 157c-41.333 42 -91.666 63 -150.999 63c-60.667 0 -111.334 -21 -152.001 -63c-41.333 -42.667 -62 -95 -62 -157
c0 -61.333 20.667 -113.333 62 -156c41.333 -41.333 92 -62 152 -62z" />
    <glyph glyph-name="Ocircumflex" unicode="&#xd4;" 
d="M356 794h-153l159 190h124l159 -190h-158l-65 90zM37 368c0 107.333 36.999 198 110.999 272c74.667 74.667 166.334 112 275.001 112s200 -37.333 274 -112c74.667 -74 112 -164.333 112 -271s-37 -197 -111 -271c-74.667 -73.333 -166.667 -110 -276 -110
c-110 0 -201.667 36.667 -275 110s-110 163.333 -110 270zM422.999 151c60.667 0 111.668 20.667 153.001 62c41.333 42.667 61.666 94.667 60.999 156c-1.33301 64 -22.333 116.333 -63 157c-41.333 42 -91.666 63 -150.999 63c-60.667 0 -111.334 -21 -152.001 -63
c-41.333 -42.667 -62 -95 -62 -157c0 -61.333 20.667 -113.333 62 -156c41.333 -41.333 92 -62 152 -62z" />
    <glyph glyph-name="Otilde" unicode="&#xd5;" 
d="M298 786l-102.001 51.001c20.667 42.667 43.334 74.167 68.001 94.5s54.667 30.5 90 30.5c22 0 47.667 -7.66699 77 -23c28.667 -14.667 48.667 -22 60 -22s21.333 3.66699 30 11s19 20.666 31 39.999l102 -49c-33.333 -83.333 -82.333 -125 -147 -125
c-21.333 0 -46.666 7.33301 -75.999 22c-30.667 15.333 -52.334 23 -65.001 23c-25.333 0 -48 -17.667 -68 -53zM36.999 368.001c0 107.333 36.999 198 110.999 272c74.667 74.667 166.334 112 275.001 112s200 -37.333 274 -112c74.667 -74 112 -164.333 112 -271
s-37 -197 -111 -271c-74.667 -73.333 -166.667 -110 -276 -110c-110 0 -201.667 36.667 -275 110s-110 163.333 -110 270zM422.998 151.001c60.667 0 111.668 20.667 153.001 62c41.333 42.667 61.666 94.667 60.999 156c-1.33301 64 -22.333 116.333 -63 157
c-41.333 42 -91.666 63 -150.999 63c-60.667 0 -111.334 -21 -152.001 -63c-41.333 -42.667 -62 -95 -62 -157c0 -61.333 20.667 -113.333 62 -156c41.333 -41.333 92 -62 152 -62z" />
    <glyph glyph-name="Odieresis" unicode="&#xd6;" 
d="M221 884c0 24.667 8.83398 45.667 26.501 63s39.167 26 64.5 26s46.666 -8.5 63.999 -25.5s26 -38.167 26 -63.5c0 -26 -8.5 -47.5 -25.5 -64.5s-38.5 -25.5 -64.5 -25.5s-47.667 8.5 -65 25.5s-26 38.5 -26 64.5zM539.001 794c-26 0 -47.667 8.5 -65 25.5
s-26 38.5 -26 64.5c0 24.667 8.83301 45.667 26.5 63s39.167 26 64.5 26s46.666 -8.66699 63.999 -26s26 -38.333 26 -63c0 -26 -8.66699 -47.5 -26 -64.5s-38.666 -25.5 -63.999 -25.5zM37.001 368c0 107.333 36.999 198 110.999 272
c74.667 74.667 166.334 112 275.001 112s200 -37.333 274 -112c74.667 -74 112 -164.333 112 -271s-37 -197 -111 -271c-74.667 -73.333 -166.667 -110 -276 -110c-110 0 -201.667 36.667 -275 110s-110 163.333 -110 270zM423 151c60.667 0 111.668 20.667 153.001 62
c41.333 42.667 61.666 94.667 60.999 156c-1.33301 64 -22.333 116.333 -63 157c-41.333 42 -91.666 63 -150.999 63c-60.667 0 -111.334 -21 -152.001 -63c-41.333 -42.667 -62 -95 -62 -157c0 -61.333 20.667 -113.333 62 -156c41.333 -41.333 92 -62 152 -62z" />
    <glyph glyph-name="multiply" unicode="&#xd7;" horiz-adv-x="569" 
d="M430 583l98 -94l-149 -150l148 -147l-94 -100l-150 150l-149 -150l-94 100l147 147l-146 146l93 98l149 -148z" />
    <glyph glyph-name="Oslash" unicode="&#xd8;" 
d="M760 735l-65.001 -91.999c76 -74 114 -165.333 114 -274c0 -106.667 -37 -197 -111 -271c-74.667 -73.333 -166.667 -110 -276 -110c-59.333 0 -114 11.333 -164 34l-61 -86l-93 63l59 84c-40 36 -71 78.667 -93 128s-33 101.666 -33 156.999c0 107.333 37 198 111 272
c74.667 74.667 166.334 112 275.001 112c64 0 124.667 -14.667 182 -44l63 90zM208.999 369.001c0 -56 17.668 -104.667 53.001 -146l246 349c-28 11.333 -56.333 17 -85 17c-60.667 0 -111.334 -21 -152.001 -63c-41.333 -42.667 -62 -95 -62 -157zM423 151.001
c60.667 0 111.668 20.667 153.001 62c41.333 42.667 61.666 94.667 60.999 156c0 50 -14 94 -42 132l-239 -340c22 -6.66699 44.333 -10 67 -10z" />
    <glyph glyph-name="Ugrave" unicode="&#xd9;" horiz-adv-x="731" 
d="M383 984l66 -189h-149l-99 189h182zM366 -13c-84 0 -154.333 24.3301 -211 72.9971s-85 121.334 -85 218.001v461h166v-454c0 -45.333 11.5 -79.666 34.5 -102.999s54.833 -35 95.5 -35c39.333 0 70.666 11.833 93.999 35.5s35 57.834 35 102.501v454h166v-461
c0 -96 -28 -168.667 -84 -218c-55.333 -48.667 -125.666 -73 -210.999 -73z" />
    <glyph glyph-name="Uacute" unicode="&#xda;" horiz-adv-x="731" 
d="M435 794h-147l65 188h180zM366 -13c-84 0 -154.333 24.3301 -211 72.9971s-85 121.334 -85 218.001v461h166v-454c0 -45.333 11.5 -79.666 34.5 -102.999s54.833 -35 95.5 -35c39.333 0 70.666 11.833 93.999 35.5s35 57.834 35 102.501v454h166v-461
c0 -96 -28 -168.667 -84 -218c-55.333 -48.667 -125.666 -73 -210.999 -73z" />
    <glyph glyph-name="Ucircumflex" unicode="&#xdb;" horiz-adv-x="731" 
d="M299 794h-153l159 190h124l159 -190h-158l-65 90zM366 -13c-84 0 -154.333 24.3301 -211 72.9971s-85 121.334 -85 218.001v461h166v-454c0 -45.333 11.5 -79.666 34.5 -102.999s54.833 -35 95.5 -35c39.333 0 70.666 11.833 93.999 35.5s35 57.834 35 102.501v454h166
v-461c0 -96 -28 -168.667 -84 -218c-55.333 -48.667 -125.666 -73 -210.999 -73z" />
    <glyph glyph-name="Udieresis" unicode="&#xdc;" horiz-adv-x="731" 
d="M161 884c0 24.667 8.83398 45.667 26.501 63s39.167 26 64.5 26s46.666 -8.5 63.999 -25.5s26 -38.167 26 -63.5c0 -26 -8.5 -47.5 -25.5 -64.5s-38.5 -25.5 -64.5 -25.5s-47.667 8.5 -65 25.5s-26 38.5 -26 64.5zM479.001 794c-26 0 -47.667 8.5 -65 25.5
s-26 38.5 -26 64.5c0 24.667 8.83301 45.667 26.5 63s39.167 26 64.5 26s46.666 -8.66699 63.999 -26s26 -38.333 26 -63c0 -26 -8.66699 -47.5 -26 -64.5s-38.666 -25.5 -63.999 -25.5zM366.001 -13c-84 0 -154.333 24.3301 -211 72.9971s-85 121.334 -85 218.001v461h166
v-454c0 -45.333 11.5 -79.666 34.5 -102.999s54.833 -35 95.5 -35c39.333 0 70.666 11.833 93.999 35.5s35 57.834 35 102.501v454h166v-461c0 -96 -28 -168.667 -84 -218c-55.333 -48.667 -125.666 -73 -210.999 -73z" />
    <glyph glyph-name="Yacute" unicode="&#xdd;" horiz-adv-x="693" 
d="M415 794h-147l65 188h180zM493 739h193l-257 -486v-253h-165v253l-255 486h193l144 -306z" />
    <glyph glyph-name="Thorn" unicode="&#xde;" horiz-adv-x="662" 
d="M243 623h123c45.333 0 85.333 -7 120 -21s62.167 -32.833 82.5 -56.5s35.5 -49.667 45.5 -78s15 -58.5 15 -90.5c0 -68.667 -23 -126.667 -69 -174c-45.333 -46 -114 -69 -206 -69h-111v-134h-165v739h165v-116zM243 285h115c32.667 0 57.667 8.83301 75 26.5
s26 40.167 26 67.5c0 26 -8.5 47.5 -25.5 64.5s-39.833 25.5 -68.5 25.5h-122v-184z" />
    <glyph glyph-name="germandbls" unicode="&#xdf;" horiz-adv-x="675" 
d="M510 397c40 -13.333 71.999 -37.667 95.999 -73s36 -75.333 36 -120c0 -64 -23.667 -117 -71 -159s-107.666 -63 -180.999 -63c-47.333 0 -90 7.66699 -128 23l31 131c24 -9.33301 49.667 -14 77 -14c34 0 61.5 8.83301 82.5 26.5s31.5 40.5 31.5 68.5
c0 32 -14.333 56.5 -43 73.5s-68.334 25.5 -119.001 25.5v123c36.667 0 66.167 9.83301 88.5 29.5s33.5 44.167 33.5 73.5c0 26 -9.16699 47.5 -27.5 64.5s-42.5 25.5 -72.5 25.5c-39.333 0 -70.166 -15.167 -92.499 -45.5s-33.5 -71.833 -33.5 -124.5v-639h-158v657
c0 54 9 101.833 27 143.5s42.333 73.5 73 95.5c57.333 42 121 63 191 63c73.333 0 134 -21 182 -63s72 -94.333 72 -157c0 -74 -31.667 -129 -95 -165z" />
    <glyph glyph-name="agrave" unicode="&#xe0;" horiz-adv-x="683" 
d="M350 807l63 -179h-140l-94 179h171zM472 490l0.000976562 58.001h148v-548h-148v56c-46.667 -46.667 -103 -70 -169 -70c-78 0 -142.667 27.667 -194 83c-50.667 55.333 -76 124.666 -76 207.999c0 81.333 25.667 149.333 77 204c51.333 54 115.666 81 192.999 81
c66 0 122.333 -24 169 -72zM190.001 275.001c0 -40.667 12.999 -75.332 38.999 -103.999c27.333 -28 61 -42 101 -42c40.667 0 74.334 14.333 101.001 43c27.333 29.333 41 63.666 41 102.999s-13.667 73.333 -41 102c-27.333 28 -61 42 -101 42s-73.667 -14 -101 -42
c-26 -28 -39 -62 -39 -102z" />
    <glyph glyph-name="aacute" unicode="&#xe1;" horiz-adv-x="683" 
d="M331 807h172l-94 -179h-140zM472 490l0.000976562 58.001h148v-548h-148v56c-46.667 -46.667 -103 -70 -169 -70c-78 0 -142.667 27.667 -194 83c-50.667 55.333 -76 124.666 -76 207.999c0 81.333 25.667 149.333 77 204c51.333 54 115.666 81 192.999 81
c66 0 122.333 -24 169 -72zM190.001 275.001c0 -40.667 12.999 -75.332 38.999 -103.999c27.333 -28 61 -42 101 -42c40.667 0 74.334 14.333 101.001 43c27.333 29.333 41 63.666 41 102.999s-13.667 73.333 -41 102c-27.333 28 -61 42 -101 42s-73.667 -14 -101 -42
c-26 -28 -39 -62 -39 -102z" />
    <glyph glyph-name="acircumflex" unicode="&#xe2;" horiz-adv-x="683" 
d="M402 627l-62 86l-63 -86h-145l151 181h118l151 -181h-150zM472 490l0.000976562 58.001h148v-548h-148v56c-46.667 -46.667 -103 -70 -169 -70c-78 0 -142.667 27.667 -194 83c-50.667 55.333 -76 124.666 -76 207.999c0 81.333 25.667 149.333 77 204
c51.333 54 115.666 81 192.999 81c66 0 122.333 -24 169 -72zM190.001 275.001c0 -40.667 12.999 -75.332 38.999 -103.999c27.333 -28 61 -42 101 -42c40.667 0 74.334 14.333 101.001 43c27.333 29.333 41 63.666 41 102.999s-13.667 73.333 -41 102
c-27.333 28 -61 42 -101 42s-73.667 -14 -101 -42c-26 -28 -39 -62 -39 -102z" />
    <glyph glyph-name="atilde" unicode="&#xe3;" horiz-adv-x="683" 
d="M287 670c-24.667 0 -46.667 -17 -66 -51l-99 49c20 41.333 42 71.833 66 91.5s53 29.5 87 29.5c22.667 0 47.667 -7.33301 75 -22c28 -14 47.333 -21 58 -21c11.333 0 21.333 3.66699 30 11s18.334 20 29.001 38l99 -47c-32 -81.333 -79.333 -122 -142 -122
c-21.333 0 -46.333 7.33301 -75 22s-49.334 22 -62.001 22zM472 490l0.000976562 58.001h148v-548h-148v56c-46.667 -46.667 -103 -70 -169 -70c-78 0 -142.667 27.667 -194 83c-50.667 55.333 -76 124.666 -76 207.999c0 81.333 25.667 149.333 77 204
c51.333 54 115.666 81 192.999 81c66 0 122.333 -24 169 -72zM190.001 275.001c0 -40.667 12.999 -75.332 38.999 -103.999c27.333 -28 61 -42 101 -42c40.667 0 74.334 14.333 101.001 43c27.333 29.333 41 63.666 41 102.999s-13.667 73.333 -41 102
c-27.333 28 -61 42 -101 42s-73.667 -14 -101 -42c-26 -28 -39 -62 -39 -102z" />
    <glyph glyph-name="adieresis" unicode="&#xe4;" horiz-adv-x="683" 
d="M234 617c-26 0 -47.499 8.33301 -64.499 25s-25.5 38 -25.5 64c0 24.667 8.66699 45.5 26 62.5s38.666 25.5 63.999 25.5s46.5 -8.5 63.5 -25.5s25.5 -37.833 25.5 -62.5c0 -26 -8.5 -47.333 -25.5 -64s-38.167 -25 -63.5 -25zM458.001 617
c-26 0 -47.499 8.33301 -64.499 25s-25.5 38 -25.5 64c0 24.667 8.66699 45.5 26 62.5s38.666 25.5 63.999 25.5s46.5 -8.5 63.5 -25.5s25.5 -37.833 25.5 -62.5c0 -26 -8.5 -47.333 -25.5 -64s-38.167 -25 -63.5 -25zM472.002 490l0.000976562 58.001h148v-548h-148v56
c-46.667 -46.667 -103 -70 -169 -70c-78 0 -142.667 27.667 -194 83c-50.667 55.333 -76 124.666 -76 207.999c0 81.333 25.667 149.333 77 204c51.333 54 115.666 81 192.999 81c66 0 122.333 -24 169 -72zM190.003 275.001c0 -40.667 12.999 -75.332 38.999 -103.999
c27.333 -28 61 -42 101 -42c40.667 0 74.334 14.333 101.001 43c27.333 29.333 41 63.666 41 102.999s-13.667 73.333 -41 102c-27.333 28 -61 42 -101 42s-73.667 -14 -101 -42c-26 -28 -39 -62 -39 -102z" />
    <glyph glyph-name="aring" unicode="&#xe5;" horiz-adv-x="683" 
d="M481 741c0 -36.667 -13.668 -68 -41.001 -94c-26.667 -26 -59.334 -39 -98.001 -39c-38 0 -70.667 12.667 -98 38c-26.667 26 -40 57.667 -40 95s13.333 69 40 95s59.334 39 98.001 39s71.334 -13 98.001 -39c27.333 -26 41 -57.667 41 -95zM341.999 793
c-14.667 0 -27 -4.83301 -37 -14.5s-15 -21.5 -15 -35.5c0 -14.667 5 -27 15 -37s22.333 -15 37 -15c14 0 26 5 36 15s15 22.333 15 37c0 14 -5 25.833 -15 35.5s-22 14.5 -36 14.5zM471.999 490l0.000976562 58.001h148v-548h-148v56c-46.667 -46.667 -103 -70 -169 -70
c-78 0 -142.667 27.667 -194 83c-50.667 55.333 -76 124.666 -76 207.999c0 81.333 25.667 149.333 77 204c51.333 54 115.666 81 192.999 81c66 0 122.333 -24 169 -72zM190 275.001c0 -40.667 12.999 -75.332 38.999 -103.999c27.333 -28 61 -42 101 -42
c40.667 0 74.334 14.333 101.001 43c27.333 29.333 41 63.666 41 102.999s-13.667 73.333 -41 102c-27.333 28 -61 42 -101 42s-73.667 -14 -101 -42c-26 -28 -39 -62 -39 -102z" />
    <glyph glyph-name="ae" unicode="&#xe6;" horiz-adv-x="976" 
d="M944 296c0 -27.333 -1.99805 -50.001 -5.99805 -68.001l-391 1c8 -34.667 24.5 -62.167 49.5 -82.5s56.167 -30.5 93.5 -30.5c56 0 109.667 18 161 54l66 -105c-68.667 -51.333 -147.334 -77 -236.001 -77c-100.667 0 -176.334 34.333 -227.001 103
c-50.667 -68.667 -123.667 -103 -219 -103c-64.667 0 -115.5 16.333 -152.5 49s-55.5 75.334 -55.5 128.001c0 64.667 27.333 110 82 136c48.667 23.333 107 35 175 35h109c-15.333 66 -59.333 99 -132 99c-58.667 0 -112.334 -15.667 -161.001 -47l-51 109
c30.667 19.333 66.5 35 107.5 47s80.5 18 118.5 18c88 0 153.333 -29.333 196 -88c52.667 58.667 122.334 88 209.001 88c75.333 0 138 -23 188 -69c50.667 -46 76 -111.667 76 -197zM549.002 335.999h256c-6 31.333 -20.167 55.833 -42.5 73.5s-49.833 26.5 -82.5 26.5
c-32 0 -59.667 -8.83301 -83 -26.5s-39.333 -42.167 -48 -73.5zM254.002 115.999c33.333 0 63 9.83203 89 29.499s43 47.834 51 84.501h-106c-76 0 -114 -19.333 -114 -58c0 -17.333 7.33301 -31 22 -41s34 -15 58 -15z" />
    <glyph glyph-name="ccedilla" unicode="&#xe7;" horiz-adv-x="605" 
d="M328 132c27.333 0 52.832 7.16699 76.499 21.5s41.167 32.833 52.5 55.5l127 -75c-20.667 -38.667 -49.667 -70.5 -87 -95.5s-80 -40.833 -128 -47.5l-16 -39c30.667 -2 56.167 -12.5 76.5 -31.5s30.5 -42.833 30.5 -71.5c0 -34.667 -13.667 -63.834 -41 -87.501
s-64.333 -35.5 -111 -35.5c-40.667 0 -83 10.333 -127 31l32 88c28.667 -14 55.667 -21 81 -21c16 0 28.5 3.33301 37.5 10s13.5 15.334 13.5 26.001c0 22 -19 33 -57 33h-53l-8 29l29 73c-67.333 12.667 -121.666 44.667 -162.999 96c-40 51.333 -60 112.666 -60 183.999
c0 84.667 27.333 153.334 82 206.001c54.667 54 125.334 81 212.001 81c57.333 0 109.166 -13.667 155.499 -41s80.5 -65.666 102.5 -114.999l-125 -67c-32 52 -75.333 78 -130 78c-40 0 -73.667 -13.667 -101 -41c-26.667 -26.667 -40 -60.334 -40 -101.001
c0 -42 13 -76.333 39 -103c26.667 -26.667 60 -40 100 -40z" />
    <glyph glyph-name="egrave" unicode="&#xe8;" horiz-adv-x="632" 
d="M337 806l63 -179h-140l-94 179h171zM600 287c0 -16 -1.66895 -38 -5.00195 -66h-403c18.667 -68.667 68.334 -103 149.001 -103c61.333 0 118.333 17.667 171 53l62 -107c-66.667 -50.667 -146.667 -76 -240 -76c-96.667 0 -171 27.667 -223 83
c-51.333 55.333 -77 123.333 -77 204c0 82 26.667 150.333 80 205c52.667 54.667 122.334 82 209.001 82c80 0 146.333 -24.667 199 -74c52 -49.333 78 -116.333 78 -201zM322.998 435c-32 0 -59.833 -9 -83.5 -27s-39.834 -43 -48.501 -75h258
c-7.33301 32 -22.166 57 -44.499 75s-49.5 27 -81.5 27z" />
    <glyph glyph-name="eacute" unicode="&#xe9;" horiz-adv-x="632" 
d="M306 807h172l-94 -179h-140zM600 287c0 -16 -1.66895 -38 -5.00195 -66h-403c18.667 -68.667 68.334 -103 149.001 -103c61.333 0 118.333 17.667 171 53l62 -107c-66.667 -50.667 -146.667 -76 -240 -76c-96.667 0 -171 27.667 -223 83
c-51.333 55.333 -77 123.333 -77 204c0 82 26.667 150.333 80 205c52.667 54.667 122.334 82 209.001 82c80 0 146.333 -24.667 199 -74c52 -49.333 78 -116.333 78 -201zM322.998 435c-32 0 -59.833 -9 -83.5 -27s-39.834 -43 -48.501 -75h258
c-7.33301 32 -22.166 57 -44.499 75s-49.5 27 -81.5 27z" />
    <glyph glyph-name="ecircumflex" unicode="&#xea;" horiz-adv-x="632" 
d="M384 630l-62 86l-63 -86h-145l151 181h118l151 -181h-150zM600 287c0 -16 -1.66895 -38 -5.00195 -66h-403c18.667 -68.667 68.334 -103 149.001 -103c61.333 0 118.333 17.667 171 53l62 -107c-66.667 -50.667 -146.667 -76 -240 -76c-96.667 0 -171 27.667 -223 83
c-51.333 55.333 -77 123.333 -77 204c0 82 26.667 150.333 80 205c52.667 54.667 122.334 82 209.001 82c80 0 146.333 -24.667 199 -74c52 -49.333 78 -116.333 78 -201zM322.998 435c-32 0 -59.833 -9 -83.5 -27s-39.834 -43 -48.501 -75h258
c-7.33301 32 -22.166 57 -44.499 75s-49.5 27 -81.5 27z" />
    <glyph glyph-name="edieresis" unicode="&#xeb;" horiz-adv-x="632" 
d="M221 611c-26 0 -47.499 8.33301 -64.499 25s-25.5 38 -25.5 64c0 24.667 8.66699 45.5 26 62.5s38.666 25.5 63.999 25.5s46.5 -8.5 63.5 -25.5s25.5 -37.833 25.5 -62.5c0 -26 -8.5 -47.333 -25.5 -64s-38.167 -25 -63.5 -25zM445.001 611
c-26 0 -47.499 8.33301 -64.499 25s-25.5 38 -25.5 64c0 24.667 8.66699 45.5 26 62.5s38.666 25.5 63.999 25.5s46.5 -8.5 63.5 -25.5s25.5 -37.833 25.5 -62.5c0 -26 -8.5 -47.333 -25.5 -64s-38.167 -25 -63.5 -25zM600.002 287c0 -16 -1.66895 -38 -5.00195 -66h-403
c18.667 -68.667 68.334 -103 149.001 -103c61.333 0 118.333 17.667 171 53l62 -107c-66.667 -50.667 -146.667 -76 -240 -76c-96.667 0 -171 27.667 -223 83c-51.333 55.333 -77 123.333 -77 204c0 82 26.667 150.333 80 205c52.667 54.667 122.334 82 209.001 82
c80 0 146.333 -24.667 199 -74c52 -49.333 78 -116.333 78 -201zM323 435c-32 0 -59.833 -9 -83.5 -27s-39.834 -43 -48.501 -75h258c-7.33301 32 -22.166 57 -44.499 75s-49.5 27 -81.5 27z" />
    <glyph glyph-name="igrave" unicode="&#xec;" horiz-adv-x="281" 
d="M152 806l63 -179h-140l-94 179h171zM220 548v-548h-157v548h157z" />
    <glyph glyph-name="iacute" unicode="&#xed;" horiz-adv-x="274" 
d="M206 628h-140l62 179h172zM217 548v-548h-157v548h157z" />
    <glyph glyph-name="icircumflex" unicode="&#xee;" horiz-adv-x="278" 
d="M78 627h-145l151 181h118l151 -181h-150l-62 86zM220 548v-548h-157v548h157z" />
    <glyph glyph-name="idieresis" unicode="&#xef;" horiz-adv-x="278" 
d="M30 616c-26 0 -47.499 8.33301 -64.499 25s-25.5 38 -25.5 64c0 24.667 8.66699 45.5 26 62.5s38.666 25.5 63.999 25.5s46.5 -8.5 63.5 -25.5s25.5 -37.833 25.5 -62.5c0 -26 -8.5 -47.333 -25.5 -64s-38.167 -25 -63.5 -25zM254.001 616
c-26 0 -47.499 8.33301 -64.499 25s-25.5 38 -25.5 64c0 24.667 8.66699 45.5 26 62.5s38.666 25.5 63.999 25.5s46.5 -8.5 63.5 -25.5s25.5 -37.833 25.5 -62.5c0 -26 -8.5 -47.333 -25.5 -64s-38.167 -25 -63.5 -25zM220.002 548v-548h-157v548h157z" />
    <glyph glyph-name="eth" unicode="&#xf0;" horiz-adv-x="655" 
d="M561 749l-75 -55.0029c87.333 -113.333 131 -229.666 131 -348.999c0 -102.667 -29.333 -187.667 -88 -255c-59.333 -68 -134.333 -102 -225 -102c-80 0 -145.333 25.333 -196 76s-76 113.334 -76 188.001c0 74 25.333 135 76 183s109.667 72 177 72
c72.667 0 129.334 -30 170.001 -90c-16.667 68.667 -47.334 131.334 -92.001 188.001l-79 -58l-57 71l75 54c-26 26 -58 54 -96 84l111 105c41.333 -30.667 78 -63.667 110 -99l80 58zM441 256.997c0 35.333 -12.333 65 -37 89c-24 24 -53.333 36 -88 36
c-36 0 -66 -12.333 -90 -37s-36 -55 -36 -91c0 -34.667 11.667 -64.667 35 -90c24 -24.667 53.667 -37 89 -37s65.333 12.333 90 37s37 55.667 37 93z" />
    <glyph glyph-name="ntilde" unicode="&#xf1;" horiz-adv-x="652" 
d="M209 620l-99 49c20 41.333 42 71.833 66 91.5s53 29.5 87 29.5c22.667 0 47.667 -7.33301 75 -22c28 -14 47.333 -21 58 -21c11.333 0 21.333 3.66699 30 11s18.334 20 29.001 38l99 -47c-32 -81.333 -79.333 -122 -142 -122c-21.333 0 -46.333 7.33301 -75 22
s-49.334 22 -62.001 22c-24.667 0 -46.667 -17 -66 -51zM217 0h-156.999v548h153v-76c14.667 26.667 37.5 48.5 68.5 65.5s65.833 25.5 104.5 25.5c59.333 0 109.666 -19.667 150.999 -59s62 -95.666 62 -168.999v-335h-157v294c0 39.333 -9.66699 70 -29 92
s-45.333 33 -78 33c-35.333 0 -63.833 -11.833 -85.5 -35.5s-32.5 -54.834 -32.5 -93.501v-290z" />
    <glyph glyph-name="ograve" unicode="&#xf2;" horiz-adv-x="657" 
d="M342 806l63 -179h-140l-94 179h171zM328 -15c-86.667 0 -157.667 27.667 -213 83c-54.667 55.333 -82 124 -82 206s27.333 150.333 82 205c55.333 56 126.333 84 213 84c87.333 0 158.666 -28 213.999 -84c55.333 -55.333 83 -123.666 83 -204.999
c0 -80.667 -27.667 -149.334 -83 -206.001c-55.333 -55.333 -126.666 -83 -213.999 -83zM468 275c0 39.333 -13.667 72.666 -41 99.999c-27.333 28 -60.333 42 -99 42s-71.667 -14 -99 -42c-26.667 -26.667 -40 -60 -40 -100c0 -41.333 13.333 -75.666 40 -102.999
c27.333 -27.333 60.333 -41 99 -41s71.667 13.667 99 41c27.333 28.667 41 63 41 103z" />
    <glyph glyph-name="oacute" unicode="&#xf3;" horiz-adv-x="657" 
d="M391 628h-140l62 179h172zM328 -15c-86.667 0 -157.667 27.667 -213 83c-54.667 55.333 -82 124 -82 206s27.333 150.333 82 205c55.333 56 126.333 84 213 84c87.333 0 158.666 -28 213.999 -84c55.333 -55.333 83 -123.666 83 -204.999
c0 -80.667 -27.667 -149.334 -83 -206.001c-55.333 -55.333 -126.666 -83 -213.999 -83zM468 275c0 39.333 -13.667 72.666 -41 99.999c-27.333 28 -60.333 42 -99 42s-71.667 -14 -99 -42c-26.667 -26.667 -40 -60 -40 -100c0 -41.333 13.333 -75.666 40 -102.999
c27.333 -27.333 60.333 -41 99 -41s71.667 13.667 99 41c27.333 28.667 41 63 41 103z" />
    <glyph glyph-name="ocircumflex" unicode="&#xf4;" horiz-adv-x="657" 
d="M263 628h-145l151 181h118l151 -181h-150l-62 86zM328 -15c-86.667 0 -157.667 27.667 -213 83c-54.667 55.333 -82 124 -82 206s27.333 150.333 82 205c55.333 56 126.333 84 213 84c87.333 0 158.666 -28 213.999 -84c55.333 -55.333 83 -123.666 83 -204.999
c0 -80.667 -27.667 -149.334 -83 -206.001c-55.333 -55.333 -126.666 -83 -213.999 -83zM468 275c0 39.333 -13.667 72.666 -41 99.999c-27.333 28 -60.333 42 -99 42s-71.667 -14 -99 -42c-26.667 -26.667 -40 -60 -40 -100c0 -41.333 13.333 -75.666 40 -102.999
c27.333 -27.333 60.333 -41 99 -41s71.667 13.667 99 41c27.333 28.667 41 63 41 103z" />
    <glyph glyph-name="otilde" unicode="&#xf5;" horiz-adv-x="657" 
d="M208 620l-99 49c20 41.333 42 71.833 66 91.5s53 29.5 87 29.5c22.667 0 47.667 -7.33301 75 -22c28 -14 47.333 -21 58 -21c11.333 0 21.333 3.66699 30 11s18.334 20 29.001 38l99 -47c-32 -81.333 -79.333 -122 -142 -122c-21.333 0 -46.333 7.33301 -75 22
s-49.334 22 -62.001 22c-25.333 0 -47.333 -17 -66 -51zM328 -15c-86.667 0 -157.667 27.667 -213 83c-54.667 55.333 -82 124 -82 206s27.333 150.333 82 205c55.333 56 126.333 84 213 84c87.333 0 158.666 -28 213.999 -84c55.333 -55.333 83 -123.666 83 -204.999
c0 -80.667 -27.667 -149.334 -83 -206.001c-55.333 -55.333 -126.666 -83 -213.999 -83zM468 275c0 39.333 -13.667 72.666 -41 99.999c-27.333 28 -60.333 42 -99 42s-71.667 -14 -99 -42c-26.667 -26.667 -40 -60 -40 -100c0 -41.333 13.333 -75.666 40 -102.999
c27.333 -27.333 60.333 -41 99 -41s71.667 13.667 99 41c27.333 28.667 41 63 41 103z" />
    <glyph glyph-name="odieresis" unicode="&#xf6;" horiz-adv-x="657" 
d="M217 616c-26 0 -47.499 8.33301 -64.499 25s-25.5 38 -25.5 64c0 24.667 8.66699 45.5 26 62.5s38.666 25.5 63.999 25.5s46.5 -8.5 63.5 -25.5s25.5 -37.833 25.5 -62.5c0 -26 -8.5 -47.333 -25.5 -64s-38.167 -25 -63.5 -25zM441.001 616
c-26 0 -47.499 8.33301 -64.499 25s-25.5 38 -25.5 64c0 24.667 8.66699 45.5 26 62.5s38.666 25.5 63.999 25.5s46.5 -8.5 63.5 -25.5s25.5 -37.833 25.5 -62.5c0 -26 -8.5 -47.333 -25.5 -64s-38.167 -25 -63.5 -25zM328.002 -15c-86.667 0 -157.667 27.667 -213 83
c-54.667 55.333 -82 124 -82 206s27.333 150.333 82 205c55.333 56 126.333 84 213 84c87.333 0 158.666 -28 213.999 -84c55.333 -55.333 83 -123.666 83 -204.999c0 -80.667 -27.667 -149.334 -83 -206.001c-55.333 -55.333 -126.666 -83 -213.999 -83zM468.002 275
c0 39.333 -13.667 72.666 -41 99.999c-27.333 28 -60.333 42 -99 42s-71.667 -14 -99 -42c-26.667 -26.667 -40 -60 -40 -100c0 -41.333 13.333 -75.666 40 -102.999c27.333 -27.333 60.333 -41 99 -41s71.667 13.667 99 41c27.333 28.667 41 63 41 103z" />
    <glyph glyph-name="divide" unicode="&#xf7;" horiz-adv-x="554" 
d="M277 456c-23.333 0 -43 7.83301 -59 23.5s-24 35.167 -24 58.5s8 42.833 24 58.5s35.667 23.5 59 23.5c22 0 41 -8 57 -24s24 -35.333 24 -58c0 -23.333 -8 -42.833 -24 -58.5s-35 -23.5 -57 -23.5zM515 282h-476v130h476v-130zM278 76c-23.333 0 -43 7.83301 -59 23.5
s-24 35.167 -24 58.5s8 42.833 24 58.5s35.667 23.5 59 23.5c22 0 41 -8 57 -24s24 -35.333 24 -58c0 -23.333 -8 -42.833 -24 -58.5s-35 -23.5 -57 -23.5z" />
    <glyph glyph-name="oslash" unicode="&#xf8;" horiz-adv-x="657" 
d="M577 565l-50.001 -71.999c65.333 -56 98 -129 98 -219c0 -80.667 -27.667 -149.334 -83 -206.001c-55.333 -55.333 -126.666 -83 -213.999 -83c-48 0 -92 9.33301 -132 28l-54 -79l-68 46l53 77c-62.667 56 -94 128.333 -94 217c0 82 27.333 150.333 82 205
c55.333 56 126.333 84 213 84c46 0 89 -8.66699 129 -26l50 73zM188.999 275.001c0 -33.333 9.33301 -62.333 28 -87l153 223c-13.333 4 -27.333 6 -42 6c-38.667 0 -71.667 -14 -99 -42c-26.667 -26.667 -40 -60 -40 -100zM327.999 131.001c38.667 0 71.667 13.667 99 41
c27.333 28.667 41 63 41 103c0 33.333 -10 63 -30 89l-155 -226c14.667 -4.66699 29.667 -7 45 -7z" />
    <glyph glyph-name="ugrave" unicode="&#xf9;" horiz-adv-x="620" 
d="M324 807l63 -179h-140l-94 179h171zM310 -14c-80 0 -142.833 21.999 -188.5 65.999s-68.5 105 -68.5 183v313h157v-314c0 -32 8.83301 -57.333 26.5 -76s42.167 -28 73.5 -28s55.833 9.33301 73.5 28s26.5 44 26.5 76v314h157v-313
c0 -79.333 -22.667 -140.666 -68 -183.999s-108.333 -65 -189 -65z" />
    <glyph glyph-name="uacute" unicode="&#xfa;" horiz-adv-x="620" 
d="M376 628h-140l62 179h172zM310 -14c-80 0 -142.833 21.999 -188.5 65.999s-68.5 105 -68.5 183v313h157v-314c0 -32 8.83301 -57.333 26.5 -76s42.167 -28 73.5 -28s55.833 9.33301 73.5 28s26.5 44 26.5 76v314h157v-313c0 -79.333 -22.667 -140.666 -68 -183.999
s-108.333 -65 -189 -65z" />
    <glyph glyph-name="ucircumflex" unicode="&#xfb;" horiz-adv-x="620" 
d="M247 629h-145l151 181h118l151 -181h-150l-62 86zM310 -14c-80 0 -142.833 21.999 -188.5 65.999s-68.5 105 -68.5 183v313h157v-314c0 -32 8.83301 -57.333 26.5 -76s42.167 -28 73.5 -28s55.833 9.33301 73.5 28s26.5 44 26.5 76v314h157v-313
c0 -79.333 -22.667 -140.666 -68 -183.999s-108.333 -65 -189 -65z" />
    <glyph glyph-name="udieresis" unicode="&#xfc;" horiz-adv-x="620" 
d="M199 615c-26 0 -47.499 8.33301 -64.499 25s-25.5 38 -25.5 64c0 24.667 8.66699 45.5 26 62.5s38.666 25.5 63.999 25.5s46.5 -8.5 63.5 -25.5s25.5 -37.833 25.5 -62.5c0 -26 -8.5 -47.333 -25.5 -64s-38.167 -25 -63.5 -25zM423.001 615
c-26 0 -47.499 8.33301 -64.499 25s-25.5 38 -25.5 64c0 24.667 8.66699 45.5 26 62.5s38.666 25.5 63.999 25.5s46.5 -8.5 63.5 -25.5s25.5 -37.833 25.5 -62.5c0 -26 -8.5 -47.333 -25.5 -64s-38.167 -25 -63.5 -25zM310.002 -14c-80 0 -142.833 21.999 -188.5 65.999
s-68.5 105 -68.5 183v313h157v-314c0 -32 8.83301 -57.333 26.5 -76s42.167 -28 73.5 -28s55.833 9.33301 73.5 28s26.5 44 26.5 76v314h157v-313c0 -79.333 -22.667 -140.666 -68 -183.999s-108.333 -65 -189 -65z" />
    <glyph glyph-name="yacute" unicode="&#xfd;" horiz-adv-x="614" 
d="M295 806h172l-94 -179h-140zM319 209l117.999 339h170l-217 -563c-28.667 -74 -62.667 -128.833 -102 -164.5s-87.666 -53.5 -144.999 -53.5c-44.667 0 -81.667 9.66699 -111 29l29 130c23.333 -12.667 47 -19 71 -19c44 0 79.333 28 106 84l7 16l-239 541h181z" />
    <glyph glyph-name="thorn" unicode="&#xfe;" horiz-adv-x="686" 
d="M379 562c77.333 0 142.667 -27.999 196 -83.999c52.667 -54.667 79 -122.334 79 -203.001c0 -80 -26.333 -148.333 -79 -205c-53.333 -56 -118 -84 -194 -84c-62.667 0 -117.334 24.333 -164.001 73v-285h-157v987h155v-272c44.667 48.667 99.334 73 164.001 73z
M492.001 274.001c0 40.667 -13.333 74.335 -40 101.002c-26 28 -59.333 42 -100 42s-74 -14 -100 -42c-26 -27.333 -39 -61 -39 -101c0 -40.667 13.167 -74.834 39.5 -102.501s59.5 -41.5 99.5 -41.5c40.667 0 74 13.667 100 41c26.667 27.333 40 61.666 40 102.999z" />
    <glyph glyph-name="ydieresis" unicode="&#xff;" horiz-adv-x="614" 
d="M203 616c-26 0 -47.499 8.33301 -64.499 25s-25.5 38 -25.5 64c0 24.667 8.66699 45.5 26 62.5s38.666 25.5 63.999 25.5s46.5 -8.5 63.5 -25.5s25.5 -37.833 25.5 -62.5c0 -26 -8.5 -47.333 -25.5 -64s-38.167 -25 -63.5 -25zM427.001 616
c-26 0 -47.499 8.33301 -64.499 25s-25.5 38 -25.5 64c0 24.667 8.66699 45.5 26 62.5s38.666 25.5 63.999 25.5s46.5 -8.5 63.5 -25.5s25.5 -37.833 25.5 -62.5c0 -26 -8.5 -47.333 -25.5 -64s-38.167 -25 -63.5 -25zM319.002 209l117.999 339h170l-217 -563
c-28.667 -74 -62.667 -128.833 -102 -164.5s-87.666 -53.5 -144.999 -53.5c-44.667 0 -81.667 9.66699 -111 29l29 130c23.333 -12.667 47 -19 71 -19c44 0 79.333 28 106 84l7 16l-239 541h181z" />
    <glyph glyph-name="Amacron" unicode="&#x100;" horiz-adv-x="704" 
d="M165 944h378v-135l-378 -2v137zM697 0h-172l-49 149h-248l-51 -149h-172l277 739h144zM432 294l-79 234l-80 -234h159z" />
    <glyph glyph-name="amacron" unicode="&#x101;" horiz-adv-x="683" 
d="M175 771h334v-135l-334 -2v137zM472 490l0.000976562 58.001h148v-548h-148v56c-46.667 -46.667 -103 -70 -169 -70c-78 0 -142.667 27.667 -194 83c-50.667 55.333 -76 124.666 -76 207.999c0 81.333 25.667 149.333 77 204c51.333 54 115.666 81 192.999 81
c66 0 122.333 -24 169 -72zM190.001 275.001c0 -40.667 12.999 -75.332 38.999 -103.999c27.333 -28 61 -42 101 -42c40.667 0 74.334 14.333 101.001 43c27.333 29.333 41 63.666 41 102.999s-13.667 73.333 -41 102c-27.333 28 -61 42 -101 42s-73.667 -14 -101 -42
c-26 -28 -39 -62 -39 -102z" />
    <glyph glyph-name="Abreve" unicode="&#x102;" horiz-adv-x="704" 
d="M353 785c-58.667 0 -106.001 17.334 -142.001 52.001s-56 82.334 -60 143.001h127c1.33301 -26.667 8.5 -47.834 21.5 -63.501s30.833 -23.5 53.5 -23.5c23.333 0 41.5 8 54.5 24s19.833 37 20.5 63h129c-4 -60.667 -24.167 -108.334 -60.5 -143.001
s-84.166 -52 -143.499 -52zM696.999 0.000976562h-172l-49 149h-248l-51 -149h-172l277 739h144zM431.999 294.001l-79 234l-80 -234h159z" />
    <glyph glyph-name="abreve" unicode="&#x103;" horiz-adv-x="683" 
d="M147 807h121.001c1.33301 -24.667 8.16602 -44.5 20.499 -59.5s29.5 -22.5 51.5 -22.5s39.167 7.5 51.5 22.5s18.833 34.833 19.5 59.5h123c-4 -58 -23.333 -103.333 -58 -136s-80 -49 -136 -49s-101.167 16.333 -135.5 49s-53.5 78 -57.5 136zM472.001 490
l0.000976562 58.001h148v-548h-148v56c-46.667 -46.667 -103 -70 -169 -70c-78 0 -142.667 27.667 -194 83c-50.667 55.333 -76 124.666 -76 207.999c0 81.333 25.667 149.333 77 204c51.333 54 115.666 81 192.999 81c66 0 122.333 -24 169 -72zM190.002 275.001
c0 -40.667 12.999 -75.332 38.999 -103.999c27.333 -28 61 -42 101 -42c40.667 0 74.334 14.333 101.001 43c27.333 29.333 41 63.666 41 102.999s-13.667 73.333 -41 102c-27.333 28 -61 42 -101 42s-73.667 -14 -101 -42c-26 -28 -39 -62 -39 -102z" />
    <glyph glyph-name="Aogonek" unicode="&#x104;" horiz-adv-x="701" 
d="M683 -137l30 -98.001c-36 -20 -73.333 -30 -112 -30s-69 10.667 -91 32s-33 49.333 -33 84c0 56.667 32 106.334 96 149.001h-48l-49 149h-248l-51 -149h-172l277 739h144l271 -739h1c-26.667 -12 -49 -28.5 -67 -49.5s-27 -41.167 -27 -60.5c0 -12 3.5 -21.333 10.5 -28
s15.833 -10 26.5 -10c10 0 24 3.66699 42 11zM432 293.999l-79 234l-80 -234h159z" />
    <glyph glyph-name="aogonek" unicode="&#x105;" horiz-adv-x="676" 
d="M606 -137l30.001 -98c-36 -20 -73.333 -30 -112 -30s-69 10.667 -91 32s-33 49.333 -33 84c0 56.667 32 106.334 96 149.001h-24v56c-46.667 -46.667 -103 -70 -169 -70c-78 0 -142.667 27.667 -194 83c-50.667 55.333 -76 124.666 -76 207.999
c0 81.333 25.667 149.333 77 204c51.333 54 115.666 81 192.999 81c66 0 122.333 -24 169 -72v58h148v-548h1c-26.667 -12 -49 -28.5 -67 -49.5s-27 -41.167 -27 -60.5c0 -12 3.5 -21.333 10.5 -28s15.833 -10 26.5 -10c10 0 24 3.66699 42 11zM190.001 275
c0 -40.667 12.999 -75.332 38.999 -103.999c27.333 -28 61 -42 101 -42c40.667 0 74.334 14.333 101.001 43c27.333 29.333 41 63.666 41 102.999s-13.667 73.333 -41 102c-27.333 28 -61 42 -101 42s-73.667 -14 -101 -42c-26 -28 -39 -62 -39 -102z" />
    <glyph glyph-name="Cacute" unicode="&#x106;" horiz-adv-x="761" 
d="M497 794h-147l65 188h180zM418 -11c-108 0 -198.333 35 -271 105c-72.667 70.667 -109 161.667 -109 273c0 112 37 204 111 276c74.667 72.667 165 109 271 109c65.333 0 126 -13.5 182 -40.5s101 -63.5 135 -109.5l-108 -110c-56 67.333 -122.667 101 -200 101
c-61.333 0 -113.333 -21.333 -156 -64s-64 -96.334 -64 -161.001c0 -63.333 21 -116 63 -158s94 -63 156 -63c80 0 148.333 34 205 102l111 -104c-34.667 -47.333 -81 -85.166 -139 -113.499s-120.333 -42.5 -187 -42.5z" />
    <glyph glyph-name="cacute" unicode="&#x107;" horiz-adv-x="605" 
d="M391 628h-140l62 179h172zM324 -12c-85.333 0 -155.333 26.666 -210 79.999c-54 54 -81 123 -81 207c0 84.667 27.333 153.334 82 206.001c54.667 54 125.334 81 212.001 81c57.333 0 109.166 -13.667 155.499 -41s80.5 -65.666 102.5 -114.999l-125 -67
c-32 52 -75.333 78 -130 78c-40 0 -73.667 -13.667 -101 -41c-26.667 -26.667 -40 -60.334 -40 -101.001c0 -42 13 -76.333 39 -103c26.667 -26.667 60 -40 100 -40c27.333 0 52.833 7.16699 76.5 21.5s41.167 32.833 52.5 55.5l127 -75
c-24 -44.667 -59.167 -80.167 -105.5 -106.5s-97.833 -39.5 -154.5 -39.5z" />
    <glyph glyph-name="Ccircumflex" unicode="&#x108;" horiz-adv-x="761" 
d="M348 794h-153l159 190h124l159 -190h-158l-65 90zM418 -11c-108 0 -198.333 35 -271 105c-72.667 70.667 -109 161.667 -109 273c0 112 37 204 111 276c74.667 72.667 165 109 271 109c65.333 0 126 -13.5 182 -40.5s101 -63.5 135 -109.5l-108 -110
c-56 67.333 -122.667 101 -200 101c-61.333 0 -113.333 -21.333 -156 -64s-64 -96.334 -64 -161.001c0 -63.333 21 -116 63 -158s94 -63 156 -63c80 0 148.333 34 205 102l111 -104c-34.667 -47.333 -81 -85.166 -139 -113.499s-120.333 -42.5 -187 -42.5z" />
    <glyph glyph-name="ccircumflex" unicode="&#x109;" horiz-adv-x="605" 
d="M259 627h-145l151 181h118l151 -181h-150l-62 86zM324 -12c-85.333 0 -155.333 26.666 -210 79.999c-54 54 -81 123 -81 207c0 84.667 27.333 153.334 82 206.001c54.667 54 125.334 81 212.001 81c57.333 0 109.166 -13.667 155.499 -41s80.5 -65.666 102.5 -114.999
l-125 -67c-32 52 -75.333 78 -130 78c-40 0 -73.667 -13.667 -101 -41c-26.667 -26.667 -40 -60.334 -40 -101.001c0 -42 13 -76.333 39 -103c26.667 -26.667 60 -40 100 -40c27.333 0 52.833 7.16699 76.5 21.5s41.167 32.833 52.5 55.5l127 -75
c-24 -44.667 -59.167 -80.167 -105.5 -106.5s-97.833 -39.5 -154.5 -39.5z" />
    <glyph glyph-name="Cdotaccent" unicode="&#x10a;" horiz-adv-x="761" 
d="M418 793c-26.667 0 -49 8.83301 -67 26.5s-27 39.834 -27 66.501s9 48.834 27 66.501s40.333 26.5 67 26.5c26 0 48 -8.83301 66 -26.5s27 -39.834 27 -66.501s-9 -48.834 -27 -66.501s-40 -26.5 -66 -26.5zM418 -11c-108 0 -198.333 35 -271 105
c-72.667 70.667 -109 161.667 -109 273c0 112 37 204 111 276c74.667 72.667 165 109 271 109c65.333 0 126 -13.5 182 -40.5s101 -63.5 135 -109.5l-108 -110c-56 67.333 -122.667 101 -200 101c-61.333 0 -113.333 -21.333 -156 -64s-64 -96.334 -64 -161.001
c0 -63.333 21 -116 63 -158s94 -63 156 -63c80 0 148.333 34 205 102l111 -104c-34.667 -47.333 -81 -85.166 -139 -113.499s-120.333 -42.5 -187 -42.5z" />
    <glyph glyph-name="cdotaccent" unicode="&#x10b;" horiz-adv-x="605" 
d="M324 606c-26.667 0 -49 8.83301 -67 26.5s-27 39.834 -27 66.501s9 48.834 27 66.501s40.333 26.5 67 26.5c26 0 48 -8.83301 66 -26.5s27 -39.834 27 -66.501s-9 -48.834 -27 -66.501s-40 -26.5 -66 -26.5zM324 -12c-85.333 0 -155.333 26.666 -210 79.999
c-54 54 -81 123 -81 207c0 84.667 27.333 153.334 82 206.001c54.667 54 125.334 81 212.001 81c57.333 0 109.166 -13.667 155.499 -41s80.5 -65.666 102.5 -114.999l-125 -67c-32 52 -75.333 78 -130 78c-40 0 -73.667 -13.667 -101 -41
c-26.667 -26.667 -40 -60.334 -40 -101.001c0 -42 13 -76.333 39 -103c26.667 -26.667 60 -40 100 -40c27.333 0 52.833 7.16699 76.5 21.5s41.167 32.833 52.5 55.5l127 -75c-24 -44.667 -59.167 -80.167 -105.5 -106.5s-97.833 -39.5 -154.5 -39.5z" />
    <glyph glyph-name="Ccaron" unicode="&#x10c;" horiz-adv-x="761" 
d="M364 795l-151 181h145l63 -86l62 86h150l-151 -181h-118zM418 -11c-108 0 -198.333 35 -271 105c-72.667 70.667 -109 161.667 -109 273c0 112 37 204 111 276c74.667 72.667 165 109 271 109c65.333 0 126 -13.5 182 -40.5s101 -63.5 135 -109.5l-108 -110
c-56 67.333 -122.667 101 -200 101c-61.333 0 -113.333 -21.333 -156 -64s-64 -96.334 -64 -161.001c0 -63.333 21 -116 63 -158s94 -63 156 -63c80 0 148.333 34 205 102l111 -104c-34.667 -47.333 -81 -85.166 -139 -113.499s-120.333 -42.5 -187 -42.5z" />
    <glyph glyph-name="ccaron" unicode="&#x10d;" horiz-adv-x="605" 
d="M268 627l-151 181h145l63 -86l62 86h150l-151 -181h-118zM324 -12c-85.333 0 -155.333 26.666 -210 79.999c-54 54 -81 123 -81 207c0 84.667 27.333 153.334 82 206.001c54.667 54 125.334 81 212.001 81c57.333 0 109.166 -13.667 155.499 -41
s80.5 -65.666 102.5 -114.999l-125 -67c-32 52 -75.333 78 -130 78c-40 0 -73.667 -13.667 -101 -41c-26.667 -26.667 -40 -60.334 -40 -101.001c0 -42 13 -76.333 39 -103c26.667 -26.667 60 -40 100 -40c27.333 0 52.833 7.16699 76.5 21.5s41.167 32.833 52.5 55.5
l127 -75c-24 -44.667 -59.167 -80.167 -105.5 -106.5s-97.833 -39.5 -154.5 -39.5z" />
    <glyph glyph-name="Dcaron" unicode="&#x10e;" horiz-adv-x="774" 
d="M295 795l-151 181h145l63 -86l62 86h150l-151 -181h-118zM368 0h-290.001v739h295c113.333 0 201.333 -33.333 264 -100c64 -66 96 -156 96 -270c0 -114.667 -32.333 -204.667 -97 -270c-65.333 -66 -154.666 -99 -267.999 -99zM242.999 580v-421h132c60 0 106 20 138 60
c32.667 40.667 49 91 49 151c0 60.667 -16.333 110.667 -49 150c-32 40 -78 60 -138 60h-132z" />
    <glyph glyph-name="dcaron" unicode="&#x10f;" horiz-adv-x="708" 
d="M653 626l67 184h162l-96 -184h-133zM461 495l-0.000976562 266.001h157v-761h-152v59c-42.667 -48.667 -97 -73 -163 -73c-76.667 0 -141 27.333 -193 82c-51.333 55.333 -77 124 -77 206c0 81.333 25.667 149.666 77 204.999c52 55.333 116.333 83 193 83
c62.667 0 115.334 -22.333 158.001 -67zM468.999 275.001c0 40.667 -13.333 74.667 -40 102c-26 28 -59.333 42 -100 42s-74.334 -14 -101.001 -42c-26 -28 -39 -62 -39 -102c0 -41.333 13 -76 39 -104c26.667 -28 60.334 -42 101.001 -42s74 14 100 42
c26.667 27.333 40 62 40 104z" />
    <glyph glyph-name="Dcroat" unicode="&#x110;" horiz-adv-x="789" 
d="M92 739h294.999c113.333 0 201.333 -33.333 264 -100c64 -66 96 -156 96 -270c0 -114.667 -32.333 -204.667 -97 -270c-65.333 -66 -154.666 -99 -267.999 -99h-290v304h-75v132h75v303zM256.999 159h132c60 0 106 20 138 60c32.667 40.667 49 91 49 151
c0 60.667 -16.333 110.667 -49 150c-32 40 -78 60 -138 60h-132v-144h184v-132h-184v-145z" />
    <glyph glyph-name="dslash" unicode="&#x111;" horiz-adv-x="678" 
d="M618 688l74.999 0.000976562v-95h-75v-593h-152v59c-42.667 -48.667 -97 -73 -163 -73c-76.667 0 -141 27.333 -193 82c-51.333 55.333 -77 124 -77 206c0 81.333 25.667 149.666 77 204.999c52 55.333 116.333 83 193 83c62.667 0 115.334 -22.333 158.001 -67v98h-132
v95h132v73h157v-73zM468.999 275.001c0 40.667 -13.333 74.667 -40 102c-26 28 -59.333 42 -100 42s-74.334 -14 -101.001 -42c-26 -28 -39 -62 -39 -102c0 -41.333 13 -76 39 -104c26.667 -28 60.334 -42 101.001 -42s74 14 100 42c26.667 27.333 40 62 40 104z" />
    <glyph glyph-name="Emacron" unicode="&#x112;" horiz-adv-x="647" 
d="M528 807l-378 -2v137h378v-135zM593 0h-515v739h516v-154h-350v-137h324v-153h-324v-141h349v-154z" />
    <glyph glyph-name="emacron" unicode="&#x113;" horiz-adv-x="632" 
d="M153 773h334v-135l-334 -2v137zM600 287c0 -16 -1.66895 -38 -5.00195 -66h-403c18.667 -68.667 68.334 -103 149.001 -103c61.333 0 118.333 17.667 171 53l62 -107c-66.667 -50.667 -146.667 -76 -240 -76c-96.667 0 -171 27.667 -223 83
c-51.333 55.333 -77 123.333 -77 204c0 82 26.667 150.333 80 205c52.667 54.667 122.334 82 209.001 82c80 0 146.333 -24.667 199 -74c52 -49.333 78 -116.333 78 -201zM322.998 435c-32 0 -59.833 -9 -83.5 -27s-39.834 -43 -48.501 -75h258
c-7.33301 32 -22.166 57 -44.499 75s-49.5 27 -81.5 27z" />
    <glyph glyph-name="Ebreve" unicode="&#x114;" horiz-adv-x="647" 
d="M343 785c-58.667 0 -106.001 17.334 -142.001 52.001s-56 82.334 -60 143.001h127c1.33301 -26.667 8.5 -47.834 21.5 -63.501s30.833 -23.5 53.5 -23.5c23.333 0 41.5 8 54.5 24s19.833 37 20.5 63h129c-4 -60.667 -24.167 -108.334 -60.5 -143.001
s-84.166 -52 -143.499 -52zM592.999 0.000976562h-515v739h516v-154h-350v-137h324v-153h-324v-141h349v-154z" />
    <glyph glyph-name="ebreve" unicode="&#x115;" horiz-adv-x="632" 
d="M133 805h121.001c1.33301 -24.667 8.16602 -44.5 20.499 -59.5s29.5 -22.5 51.5 -22.5s39.167 7.5 51.5 22.5s18.833 34.833 19.5 59.5h123c-4 -58 -23.333 -103.333 -58 -136s-80 -49 -136 -49s-101.167 16.333 -135.5 49s-53.5 78 -57.5 136zM600.001 287
c0 -16 -1.66895 -38 -5.00195 -66h-403c18.667 -68.667 68.334 -103 149.001 -103c61.333 0 118.333 17.667 171 53l62 -107c-66.667 -50.667 -146.667 -76 -240 -76c-96.667 0 -171 27.667 -223 83c-51.333 55.333 -77 123.333 -77 204c0 82 26.667 150.333 80 205
c52.667 54.667 122.334 82 209.001 82c80 0 146.333 -24.667 199 -74c52 -49.333 78 -116.333 78 -201zM322.999 435c-32 0 -59.833 -9 -83.5 -27s-39.834 -43 -48.501 -75h258c-7.33301 32 -22.166 57 -44.499 75s-49.5 27 -81.5 27z" />
    <glyph glyph-name="Edotaccent" unicode="&#x116;" horiz-adv-x="647" 
d="M339 793c-26.667 0 -49 8.83301 -67 26.5s-27 39.834 -27 66.501s9 48.834 27 66.501s40.333 26.5 67 26.5c26 0 48 -8.83301 66 -26.5s27 -39.834 27 -66.501s-9 -48.834 -27 -66.501s-40 -26.5 -66 -26.5zM593 0h-515v739h516v-154h-350v-137h324v-153h-324v-141h349
v-154z" />
    <glyph glyph-name="edotaccent" unicode="&#x117;" horiz-adv-x="632" 
d="M329 609c-26.667 0 -49 8.83301 -67 26.5s-27 39.834 -27 66.501s9 48.834 27 66.501s40.333 26.5 67 26.5c26 0 48 -8.83301 66 -26.5s27 -39.834 27 -66.501s-9 -48.834 -27 -66.501s-40 -26.5 -66 -26.5zM600 287c0 -16 -1.66895 -38 -5.00195 -66h-403
c18.667 -68.667 68.334 -103 149.001 -103c61.333 0 118.333 17.667 171 53l62 -107c-66.667 -50.667 -146.667 -76 -240 -76c-96.667 0 -171 27.667 -223 83c-51.333 55.333 -77 123.333 -77 204c0 82 26.667 150.333 80 205c52.667 54.667 122.334 82 209.001 82
c80 0 146.333 -24.667 199 -74c52 -49.333 78 -116.333 78 -201zM322.998 435c-32 0 -59.833 -9 -83.5 -27s-39.834 -43 -48.501 -75h258c-7.33301 32 -22.166 57 -44.499 75s-49.5 27 -81.5 27z" />
    <glyph glyph-name="Eogonek" unicode="&#x118;" horiz-adv-x="641" 
d="M578 -137l30 -98.001c-36 -20 -73.333 -30 -112 -30s-69 10.667 -91 32s-33 49.333 -33 84c0 56.667 32 106.334 96 149.001h-390v739h516v-154h-350v-137h324v-153h-324v-141h349v-154c-26.667 -12 -49 -28.5 -67 -49.5s-27 -41.167 -27 -60.5
c0 -12 3.5 -21.333 10.5 -28s15.833 -10 26.5 -10c10 0 24 3.66699 42 11z" />
    <glyph glyph-name="eogonek" unicode="&#x119;" horiz-adv-x="631" 
d="M599 287c0 -16 -1.6709 -38 -5.00391 -66h-403c18.667 -68.667 68.334 -103 149.001 -103c61.333 0 118.333 17.667 171 53l62 -107c-34 -27.333 -75.333 -47.333 -124 -60c-25.333 -12.667 -46.666 -29.167 -63.999 -49.5s-26 -39.833 -26 -58.5
c0 -12 3.5 -21.333 10.5 -28s15.833 -10 26.5 -10c10 0 24 3.66699 42 11l30 -98c-36 -20 -73.333 -30 -112 -30s-69 10.667 -91 32s-33 49.333 -33 84c0 49.333 24.333 93.333 73 132c-87.333 6 -154.666 36 -201.999 90c-46.667 54.667 -70 120 -70 196
c0 82 26.667 150.333 80 205c52.667 54.667 122.334 82 209.001 82c80 0 146.333 -24.667 199 -74c52 -49.333 78 -116.333 78 -201zM321.996 435c-32 0 -59.833 -9 -83.5 -27s-39.834 -43 -48.501 -75h258c-7.33301 32 -22.166 57 -44.499 75s-49.5 27 -81.5 27z" />
    <glyph glyph-name="Ecaron" unicode="&#x11a;" horiz-adv-x="647" 
d="M284 795l-151 181h145l63 -86l62 86h150l-151 -181h-118zM593 0h-515v739h516v-154h-350v-137h324v-153h-324v-141h349v-154z" />
    <glyph glyph-name="ecaron" unicode="&#x11b;" horiz-adv-x="632" 
d="M535 807l-151 -181h-118l-151 181h145l63 -86l62 86h150zM600 287c0 -16 -1.66895 -38 -5.00195 -66h-403c18.667 -68.667 68.334 -103 149.001 -103c61.333 0 118.333 17.667 171 53l62 -107c-66.667 -50.667 -146.667 -76 -240 -76c-96.667 0 -171 27.667 -223 83
c-51.333 55.333 -77 123.333 -77 204c0 82 26.667 150.333 80 205c52.667 54.667 122.334 82 209.001 82c80 0 146.333 -24.667 199 -74c52 -49.333 78 -116.333 78 -201zM322.998 435c-32 0 -59.833 -9 -83.5 -27s-39.834 -43 -48.501 -75h258
c-7.33301 32 -22.166 57 -44.499 75s-49.5 27 -81.5 27z" />
    <glyph glyph-name="Gcircumflex" unicode="&#x11c;" horiz-adv-x="809" 
d="M366 796h-153l159 190h124l159 -190h-158l-65 90zM426 -11c-112.667 0 -205.666 35.667 -278.999 107c-72.667 72 -109 163 -109 273c0 111.333 37.667 203 113 275s168.666 108 279.999 108c58 0 113 -10.5 165 -31.5s95.333 -48.833 130 -83.5l-106 -120
c-53.333 50.667 -116.666 76 -189.999 76c-64.667 0 -118 -21.333 -160 -64c-42 -42 -63 -94.667 -63 -158c0 -62.667 20.667 -115.667 62 -159s94.666 -65 159.999 -65c35.333 0 69.5 6.5 102.5 19.5s60.167 29.833 81.5 50.5v85h-188v142h338v-311
c-96 -96 -208.333 -144 -337 -144z" />
    <glyph glyph-name="gcircumflex" unicode="&#x11d;" horiz-adv-x="678" 
d="M389 626l-62 86l-63 -86h-145l151 181h118l151 -181h-150zM475 494l0.00195312 54.002h143v-494c0 -88.667 -29 -158.334 -87 -209.001c-56.667 -52 -130 -78 -220 -78c-96 0 -181.333 27.333 -256 82l60 116c62.667 -42.667 126 -64 190 -64
c50.667 0 90.5 13.167 119.5 39.5s43.5 60.166 43.5 101.499v21c-40.667 -42.667 -94.667 -64 -162 -64c-80.667 0 -146.334 26.333 -197.001 79s-76 119.667 -76 201c0 82.667 26.667 150.667 80 204c52.667 52.667 119 79 199 79c65.333 0 119.666 -22.667 162.999 -68z
M470.002 278.002c0 40.667 -13.166 74.167 -39.499 100.5s-59.5 39.5 -99.5 39.5s-73.333 -13.333 -100 -40c-26.667 -26 -40 -59.333 -40 -100c0 -41.333 13.333 -75.333 40 -102c27.333 -27.333 60.666 -41 99.999 -41c40 0 73 13.333 99 40c26.667 26.667 40 61 40 103z
" />
    <glyph glyph-name="Gbreve" unicode="&#x11e;" horiz-adv-x="809" 
d="M426 788c-58.667 0 -106.001 17.334 -142.001 52.001s-56 82.334 -60 143.001h127c1.33301 -26.667 8.5 -47.834 21.5 -63.501s30.833 -23.5 53.5 -23.5c23.333 0 41.5 8 54.5 24s19.833 37 20.5 63h129c-4 -60.667 -24.167 -108.334 -60.5 -143.001
s-84.166 -52 -143.499 -52zM425.999 -10.999c-112.667 0 -205.666 35.667 -278.999 107c-72.667 72 -109 163 -109 273c0 111.333 37.667 203 113 275s168.666 108 279.999 108c58 0 113 -10.5 165 -31.5s95.333 -48.833 130 -83.5l-106 -120
c-53.333 50.667 -116.666 76 -189.999 76c-64.667 0 -118 -21.333 -160 -64c-42 -42 -63 -94.667 -63 -158c0 -62.667 20.667 -115.667 62 -159s94.666 -65 159.999 -65c35.333 0 69.5 6.5 102.5 19.5s60.167 29.833 81.5 50.5v85h-188v142h338v-311
c-96 -96 -208.333 -144 -337 -144z" />
    <glyph glyph-name="gbreve" unicode="&#x11f;" horiz-adv-x="678" 
d="M131 806h121.001c1.33301 -24.667 8.16602 -44.5 20.499 -59.5s29.5 -22.5 51.5 -22.5s39.167 7.5 51.5 22.5s18.833 34.833 19.5 59.5h123c-4 -58 -23.333 -103.333 -58 -136s-80 -49 -136 -49s-101.167 16.333 -135.5 49s-53.5 78 -57.5 136zM475.001 494
l0.00195312 54.002h143v-494c0 -88.667 -29 -158.334 -87 -209.001c-56.667 -52 -130 -78 -220 -78c-96 0 -181.333 27.333 -256 82l60 116c62.667 -42.667 126 -64 190 -64c50.667 0 90.5 13.167 119.5 39.5s43.5 60.166 43.5 101.499v21
c-40.667 -42.667 -94.667 -64 -162 -64c-80.667 0 -146.334 26.333 -197.001 79s-76 119.667 -76 201c0 82.667 26.667 150.667 80 204c52.667 52.667 119 79 199 79c65.333 0 119.666 -22.667 162.999 -68zM470.003 278.002c0 40.667 -13.166 74.167 -39.499 100.5
s-59.5 39.5 -99.5 39.5s-73.333 -13.333 -100 -40c-26.667 -26 -40 -59.333 -40 -100c0 -41.333 13.333 -75.333 40 -102c27.333 -27.333 60.666 -41 99.999 -41c40 0 73 13.333 99 40c26.667 26.667 40 61 40 103z" />
    <glyph glyph-name="Gdotaccent" unicode="&#x120;" horiz-adv-x="809" 
d="M430 791c-26.667 0 -49 8.83301 -67 26.5s-27 39.834 -27 66.501s9 48.834 27 66.501s40.333 26.5 67 26.5c26 0 48 -8.83301 66 -26.5s27 -39.834 27 -66.501s-9 -48.834 -27 -66.501s-40 -26.5 -66 -26.5zM426 -11c-112.667 0 -205.666 35.667 -278.999 107
c-72.667 72 -109 163 -109 273c0 111.333 37.667 203 113 275s168.666 108 279.999 108c58 0 113 -10.5 165 -31.5s95.333 -48.833 130 -83.5l-106 -120c-53.333 50.667 -116.666 76 -189.999 76c-64.667 0 -118 -21.333 -160 -64c-42 -42 -63 -94.667 -63 -158
c0 -62.667 20.667 -115.667 62 -159s94.666 -65 159.999 -65c35.333 0 69.5 6.5 102.5 19.5s60.167 29.833 81.5 50.5v85h-188v142h338v-311c-96 -96 -208.333 -144 -337 -144z" />
    <glyph glyph-name="gdotaccent" unicode="&#x121;" horiz-adv-x="678" 
d="M328 608c-26.667 0 -49 8.83301 -67 26.5s-27 39.834 -27 66.501s9 48.834 27 66.501s40.333 26.5 67 26.5c26 0 48 -8.83301 66 -26.5s27 -39.834 27 -66.501s-9 -48.834 -27 -66.501s-40 -26.5 -66 -26.5zM475 494l0.00195312 54.002h143v-494
c0 -88.667 -29 -158.334 -87 -209.001c-56.667 -52 -130 -78 -220 -78c-96 0 -181.333 27.333 -256 82l60 116c62.667 -42.667 126 -64 190 -64c50.667 0 90.5 13.167 119.5 39.5s43.5 60.166 43.5 101.499v21c-40.667 -42.667 -94.667 -64 -162 -64
c-80.667 0 -146.334 26.333 -197.001 79s-76 119.667 -76 201c0 82.667 26.667 150.667 80 204c52.667 52.667 119 79 199 79c65.333 0 119.666 -22.667 162.999 -68zM470.002 278.002c0 40.667 -13.166 74.167 -39.499 100.5s-59.5 39.5 -99.5 39.5
s-73.333 -13.333 -100 -40c-26.667 -26 -40 -59.333 -40 -100c0 -41.333 13.333 -75.333 40 -102c27.333 -27.333 60.666 -41 99.999 -41c40 0 73 13.333 99 40c26.667 26.667 40 61 40 103z" />
    <glyph glyph-name="Gcommaaccent" unicode="&#x122;" horiz-adv-x="809" 
d="M425 302l0.000976562 142h338v-311c-96 -96 -208.333 -144 -337 -144c-112.667 0 -205.667 35.667 -279 107c-72.667 72 -109 163 -109 273c0 111.333 37.667 203 113 275s168.666 108 279.999 108c58 0 113 -10.5 165 -31.5s95.333 -48.833 130 -83.5l-106 -120
c-53.333 50.667 -116.666 76 -189.999 76c-64.667 0 -118 -21.333 -160 -64c-42 -42 -63 -94.667 -63 -158c0 -62.667 20.667 -115.667 62 -159s94.666 -65 159.999 -65c35.333 0 69.5 6.5 102.5 19.5s60.167 29.833 81.5 50.5v85h-188zM426.001 -40
c27.333 0 50.168 -9.16602 68.501 -27.499s27.5 -41.833 27.5 -70.5c0 -32.667 -12.333 -64.5 -37 -95.5s-64.334 -66.167 -119.001 -105.5l-55 69c35.333 26 62.333 48 81 66c-16 5.33301 -29.167 15.166 -39.5 29.499s-15.5 30.5 -15.5 48.5c0 24 8.5 44.333 25.5 61
s38.167 25 63.5 25z" />
    <glyph glyph-name="gcommaaccent" unicode="&#x123;" horiz-adv-x="678" 
d="M326 601c-26 0 -48 8.83203 -66 26.499s-27 40.5 -27 68.5c0 31.333 11.833 61.833 35.5 91.5s62.5 64.167 116.5 103.5l53 -67c-36.667 -27.333 -62.667 -48.666 -78 -63.999c16 -5.33301 28.833 -15 38.5 -29s14.5 -29.667 14.5 -47
c0 -22.667 -8.5 -42.167 -25.5 -58.5s-37.5 -24.5 -61.5 -24.5zM475 493.999l0.00195312 54.002h143v-494c0 -88.667 -29 -158.334 -87 -209.001c-56.667 -52 -130 -78 -220 -78c-96 0 -181.333 27.333 -256 82l60 116c62.667 -42.667 126 -64 190 -64
c50.667 0 90.5 13.167 119.5 39.5s43.5 60.166 43.5 101.499v21c-40.667 -42.667 -94.667 -64 -162 -64c-80.667 0 -146.334 26.333 -197.001 79s-76 119.667 -76 201c0 82.667 26.667 150.667 80 204c52.667 52.667 119 79 199 79c65.333 0 119.666 -22.667 162.999 -68z
M470.002 278.001c0 40.667 -13.166 74.167 -39.499 100.5s-59.5 39.5 -99.5 39.5s-73.333 -13.333 -100 -40c-26.667 -26 -40 -59.333 -40 -100c0 -41.333 13.333 -75.333 40 -102c27.333 -27.333 60.666 -41 99.999 -41c40 0 73 13.333 99 40c26.667 26.667 40 61 40 103z
" />
    <glyph glyph-name="Hcircumflex" unicode="&#x124;" horiz-adv-x="775" 
d="M321 794h-153l159 190h124l159 -190h-158l-65 90zM243 0h-165v739h165v-289h288v289h166v-739h-166v291h-288v-291z" />
    <glyph glyph-name="hcircumflex" unicode="&#x125;" horiz-adv-x="653" 
d="M71 799h-153l159 190h124l159 -190h-158l-65 90zM219 0h-157.001v761h153v-286c15.333 25.333 38.333 46.333 69 63s65.334 25 104.001 25c58.667 0 108.667 -19.667 150 -59s62 -95.666 62 -168.999v-335h-157v294c0 39.333 -9.5 70 -28.5 92s-44.833 33 -77.5 33
c-35.333 0 -63.833 -11.833 -85.5 -35.5s-32.5 -54.834 -32.5 -93.501v-290z" />
    <glyph glyph-name="Hbar" unicode="&#x126;" horiz-adv-x="804" 
d="M708 645h77v-108h-77v-537h-166v291h-288v-291h-165v537h-75v108h75v94h165v-94h288v94h166v-94zM254 450h288v87h-288v-87z" />
    <glyph glyph-name="hbar" unicode="&#x127;" horiz-adv-x="653" 
d="M388 563c58.667 0 108.666 -19.667 149.999 -59s62 -95.666 62 -168.999v-335h-157v294c0 39.333 -9.5 70 -28.5 92s-44.833 33 -77.5 33c-35.333 0 -63.833 -11.833 -85.5 -35.5s-32.5 -54.834 -32.5 -93.501v-290h-157v593h-66v95h66v73h153v-73h145v-95h-145v-118
c15.333 25.333 38.333 46.333 69 63s65.334 25 104.001 25z" />
    <glyph glyph-name="Itilde" unicode="&#x128;" horiz-adv-x="322" 
d="M34 794l-102.002 51.001c20.667 42.667 43.334 74.167 68.001 94.5s54.667 30.5 90 30.5c22.667 0 48.334 -7.66699 77.001 -23c28.667 -14.667 48.667 -22 60 -22s21.333 3.66699 30 11s19 20.666 31 39.999l102 -49c-33.333 -83.333 -82.333 -125 -147 -125
c-21.333 0 -46.666 7.33301 -75.999 22c-30.667 15.333 -52.334 23 -65.001 23c-25.333 0 -48 -17.667 -68 -53zM78.998 0.000976562v739h166v-739h-166z" />
    <glyph glyph-name="itilde" unicode="&#x129;" horiz-adv-x="278" 
d="M19 620l-99 49c20 41.333 42 71.833 66 91.5s53 29.5 87 29.5c22.667 0 47.667 -7.33301 75 -22c28 -14 47.333 -21 58 -21c11.333 0 21.333 3.66699 30 11s18.334 20 29.001 38l99 -47c-32 -81.333 -79.333 -122 -142 -122c-21.333 0 -46.333 7.33301 -75 22
s-49.334 22 -62.001 22c-24.667 0 -46.667 -17 -66 -51zM220 548v-548h-157v548h157z" />
    <glyph glyph-name="Imacron" unicode="&#x12a;" horiz-adv-x="322" 
d="M352 816l-378 -2v137h378v-135zM79 0v739h166v-739h-166z" />
    <glyph glyph-name="imacron" unicode="&#x12b;" horiz-adv-x="278" 
d="M310 639l-334 -2v137h334v-135zM220 548v-548h-157v548h157z" />
    <glyph glyph-name="Ibreve" unicode="&#x12c;" horiz-adv-x="322" 
d="M161 788c-58.667 0 -106.001 17.334 -142.001 52.001s-56 82.334 -60 143.001h127c1.33301 -26.667 8.5 -47.834 21.5 -63.501s30.833 -23.5 53.5 -23.5c23.333 0 41.5 8 54.5 24s19.833 37 20.5 63h129c-4 -60.667 -24.167 -108.334 -60.5 -143.001
s-84.166 -52 -143.499 -52zM78.999 0.000976562v739h166v-739h-166z" />
    <glyph glyph-name="ibreve" unicode="&#x12d;" horiz-adv-x="278" 
d="M-52 808h121.001c1.33301 -24.667 8.16602 -44.5 20.499 -59.5s29.5 -22.5 51.5 -22.5s39.167 7.5 51.5 22.5s18.833 34.833 19.5 59.5h123c-4 -58 -23.333 -103.333 -58 -136s-80 -49 -136 -49s-101.167 16.333 -135.5 49s-53.5 78 -57.5 136zM220.001 548v-548h-157
v548h157z" />
    <glyph glyph-name="Iogonek" unicode="&#x12e;" horiz-adv-x="322" 
d="M230 -137l30 -98.001c-36 -20 -73.333 -30 -112 -30s-69 10.667 -91 32s-33 49.333 -33 84c0 56.667 32 106.334 96 149.001h-41v739h166v-739c-26.667 -12 -49 -28.5 -67 -49.5s-27 -41.167 -27 -60.5c0 -12 3.5 -21.333 10.5 -28s15.833 -10 26.5 -10
c10 0 24 3.66699 42 11z" />
    <glyph glyph-name="iogonek" unicode="&#x12f;" horiz-adv-x="278" 
d="M143 604c-26.667 0 -49 8.83301 -67 26.5s-27 39.834 -27 66.501s9 48.834 27 66.501s40.333 26.5 67 26.5c26 0 48 -8.83301 66 -26.5s27 -39.834 27 -66.501s-9 -48.834 -27 -66.501s-40 -26.5 -66 -26.5zM164 -148c10 0 24 3.66602 42 10.999l30 -98
c-36 -20 -73.333 -30 -112 -30s-69 10.667 -91 32s-33 49.333 -33 84c0 56.667 32 106.334 96 149.001h-33v548h157v-548h1c-26.667 -12 -49 -28.5 -67 -49.5s-27 -41.167 -27 -60.5c0 -12 3.5 -21.333 10.5 -28s15.833 -10 26.5 -10z" />
    <glyph glyph-name="Idot" unicode="&#x130;" horiz-adv-x="322" 
d="M159 790c-26.667 0 -49 8.83301 -67 26.5s-27 39.834 -27 66.501s9 48.834 27 66.501s40.333 26.5 67 26.5c26 0 48 -8.83301 66 -26.5s27 -39.834 27 -66.501s-9 -48.834 -27 -66.501s-40 -26.5 -66 -26.5zM76 0v739h166v-739h-166z" />
    <glyph glyph-name="dotlessi" unicode="&#x131;" horiz-adv-x="278" 
d="M217 548v-548h-157v548h157z" />
    <glyph glyph-name="IJ" unicode="&#x132;" horiz-adv-x="910" 
d="M78 0v739h166v-739h-166zM556 -12c-94 0 -172.001 30 -234.001 90l76 131c43.333 -41.333 91.333 -62 144 -62c42.667 0 76.334 13.333 101.001 40s37 63 37 109v443h165v-449c0 -101.333 -27.333 -177 -82 -227c-54 -50 -123 -75 -207 -75z" />
    <glyph glyph-name="ij" unicode="&#x133;" horiz-adv-x="597" 
d="M143 604c-26.667 0 -49 8.83301 -67 26.5s-27 39.834 -27 66.501s9 48.834 27 66.501s40.333 26.5 67 26.5c26 0 48 -8.83301 66 -26.5s27 -39.834 27 -66.501s-9 -48.834 -27 -66.501s-40 -26.5 -66 -26.5zM427 604c-26.667 0 -49 8.83301 -67 26.5
s-27 39.834 -27 66.501s9 48.834 27 66.501s40.333 26.5 67 26.5c26 0 48 -8.83301 66 -26.5s27 -39.834 27 -66.501s-9 -48.834 -27 -66.501s-40 -26.5 -66 -26.5zM220 548v-548h-157v548h157zM285 -234c-59.333 0 -104.333 10.333 -135 31l30 123
c27.333 -10.667 53.333 -16 78 -16c60 0 90 35.333 90 106v538h157v-550c0 -75.333 -19.833 -132.833 -59.5 -172.5s-93.167 -59.5 -160.5 -59.5z" />
    <glyph glyph-name="Jcircumflex" unicode="&#x134;" horiz-adv-x="589" 
d="M373 794h-153l159 190h124l159 -190h-158l-65 90zM235 -12c-94 0 -172.001 30 -234.001 90l76 131c43.333 -41.333 91.333 -62 144 -62c42.667 0 76.334 13.333 101.001 40s37 63 37 109v443h165v-449c0 -101.333 -27.333 -177 -82 -227c-54 -50 -123 -75 -207 -75z" />
    <glyph glyph-name="jcircumflex" unicode="&#x135;" horiz-adv-x="302" 
d="M97 627h-145l151 181h118l151 -181h-150l-62 86zM21 -234c-59.333 0 -104.333 10.333 -135 31l30 123c27.333 -10.667 53.333 -16 78 -16c60 0 90 35.333 90 106v538h157v-550c0 -75.333 -19.833 -132.833 -59.5 -172.5s-93.167 -59.5 -160.5 -59.5z" />
    <glyph glyph-name="Kcommaaccent" unicode="&#x136;" horiz-adv-x="706" 
d="M702 739l-264 -332l281 -407h-203l-186 281l-87 -105v-176h-165v739h165v-330l259 330h200zM371 -31c27.333 0 50.168 -9.16602 68.501 -27.499s27.5 -41.833 27.5 -70.5c0 -32.667 -12.333 -64.5 -37 -95.5s-64.334 -66.167 -119.001 -105.5l-55 69
c34.667 26 61.667 48 81 66c-16 5.33301 -29.167 15.166 -39.5 29.499s-15.5 30.5 -15.5 48.5c0 24 8.5 44.333 25.5 61s38.167 25 63.5 25z" />
    <glyph glyph-name="kcommaaccent" unicode="&#x137;" horiz-adv-x="597" 
d="M595 548l-240 -223l256 -325h-190l-173 227l-31 -29v-198h-157v761h157v-388l184 175h194zM312 -15c26 0 48 -8.83203 66 -26.499s27 -40.5 27 -68.5c0 -31.333 -11.833 -61.833 -35.5 -91.5s-62.5 -64.167 -116.5 -103.5l-53 67c36.667 27.333 62.667 48.666 78 63.999
c-16 5.33301 -28.833 15 -38.5 29s-14.5 29.667 -14.5 47c0 22.667 8.5 42.167 25.5 58.5s37.5 24.5 61.5 24.5z" />
    <glyph glyph-name="kgreenlandic" unicode="&#x138;" horiz-adv-x="584" 
d="M594 0h-183l-160 214l-39 -39v-175h-152v548h152v-193l191 193h185l-235 -233z" />
    <glyph glyph-name="Lacute" unicode="&#x139;" horiz-adv-x="626" 
d="M237 794h-147l65 188h180zM612 0h-534v739h166v-581h368v-158z" />
    <glyph glyph-name="lacute" unicode="&#x13a;" horiz-adv-x="274" 
d="M211 796h-147l65 188h180zM217 761v-761h-157v761h157z" />
    <glyph glyph-name="Lcommaaccent" unicode="&#x13b;" horiz-adv-x="626" 
d="M244 739v-581h368v-158h-534v739h166zM352 -32c27.333 0 50.168 -9.16602 68.501 -27.499s27.5 -41.833 27.5 -70.5c0 -32.667 -12.333 -64.5 -37 -95.5s-64.334 -66.167 -119.001 -105.5l-55 69c35.333 26 62.333 48 81 66c-16 5.33301 -29.167 15.166 -39.5 29.499
s-15.5 30.5 -15.5 48.5c0 24 8.5 44.333 25.5 61s38.167 25 63.5 25z" />
    <glyph glyph-name="lcommaaccent" unicode="&#x13c;" horiz-adv-x="277" 
d="M63 761h157v-761h-157v761zM136 -41c26 0 48 -8.83203 66 -26.499s27 -40.5 27 -68.5c0 -31.333 -11.833 -61.833 -35.5 -91.5s-62.5 -64.167 -116.5 -103.5l-53 67c36.667 27.333 62.667 48.666 78 63.999c-16 5.33301 -28.833 15 -38.5 29s-14.5 29.667 -14.5 47
c0 22.667 8.5 42.167 25.5 58.5s37.5 24.5 61.5 24.5z" />
    <glyph glyph-name="Lcaron" unicode="&#x13d;" horiz-adv-x="631" 
d="M517 626h-133l67 184h162zM612 0h-534v739h166v-581h368v-158z" />
    <glyph glyph-name="lcaron" unicode="&#x13e;" horiz-adv-x="304" 
d="M375 625h-133l67 184h162zM217 761v-761h-157v761h157z" />
    <glyph glyph-name="Ldot" unicode="&#x13f;" horiz-adv-x="628" 
d="M612 0h-534v739h166v-581h368v-158zM476 328c-25.333 0 -46.5 8.33203 -63.5 24.999s-25.5 37.667 -25.5 63c0 24.667 8.5 45.334 25.5 62.001s38.167 25 63.5 25c24 0 44.333 -8.5 61 -25.5s25 -37.5 25 -61.5c0 -25.333 -8.33301 -46.333 -25 -63s-37 -25 -61 -25z" />
    <glyph glyph-name="ldot" unicode="&#x140;" horiz-adv-x="432" 
d="M217 761v-761h-157v761h157zM356 279c-25.333 0 -46.5 8.33301 -63.5 25s-25.5 37.667 -25.5 63c0 24.667 8.5 45.334 25.5 62.001s38.167 25 63.5 25c24 0 44.333 -8.33301 61 -25s25 -37.334 25 -62.001c0 -25.333 -8.33301 -46.333 -25 -63s-37 -25 -61 -25z" />
    <glyph glyph-name="Lslash" unicode="&#x141;" horiz-adv-x="641" 
d="M259 349v-191h368v-158h-534v247l-68 -42v145l68 42v347h166v-243l103 64v-147z" />
    <glyph glyph-name="lslash" unicode="&#x142;" horiz-adv-x="359" 
d="M258 519l70 51v-150l-70 -51v-369h-157v255l-63 -46v150l63 46v356h157v-242z" />
    <glyph glyph-name="Nacute" unicode="&#x143;" horiz-adv-x="799" 
d="M464 794h-147l65 188h180zM559 307v432h162v-739h-119l-361 428v-428h-163v739h112z" />
    <glyph glyph-name="nacute" unicode="&#x144;" horiz-adv-x="652" 
d="M395 628h-140l62 179h172zM217 0h-156.999v548h153v-76c14.667 26.667 37.5 48.5 68.5 65.5s65.833 25.5 104.5 25.5c59.333 0 109.666 -19.667 150.999 -59s62 -95.666 62 -168.999v-335h-157v294c0 39.333 -9.66699 70 -29 92s-45.333 33 -78 33
c-35.333 0 -63.833 -11.833 -85.5 -35.5s-32.5 -54.834 -32.5 -93.501v-290z" />
    <glyph glyph-name="Ncommaaccent" unicode="&#x145;" horiz-adv-x="799" 
d="M559 307v432h162v-739h-119l-361 428v-428h-163v739h112zM410 -21c27.333 0 50.168 -9.16602 68.501 -27.499s27.5 -41.833 27.5 -70.5c0 -32.667 -12.333 -64.5 -37 -95.5s-64.334 -66.167 -119.001 -105.5l-55 69c35.333 26 62.333 48 81 66
c-16 5.33301 -29.167 15.166 -39.5 29.499s-15.5 30.5 -15.5 48.5c0 24 8.5 44.333 25.5 61s38.167 25 63.5 25z" />
    <glyph glyph-name="ncommaaccent" unicode="&#x146;" horiz-adv-x="652" 
d="M386 563c59.333 0 109.667 -19.667 151 -59s62 -95.666 62 -168.999v-335h-157v294c0 39.333 -9.66699 70 -29 92s-45.333 33 -78 33c-35.333 0 -63.833 -11.833 -85.5 -35.5s-32.5 -54.834 -32.5 -93.501v-290h-157v548h153v-76c14.667 26.667 37.5 48.5 68.5 65.5
s65.833 25.5 104.5 25.5zM331.001 -25c26 0 48 -8.83203 66 -26.499s27 -40.5 27 -68.5c0 -31.333 -11.833 -61.833 -35.5 -91.5s-62.5 -64.167 -116.5 -103.5l-53 67c36.667 27.333 62.667 48.666 78 63.999c-16 5.33301 -28.833 15 -38.5 29s-14.5 29.667 -14.5 47
c0 22.667 8.5 42.167 25.5 58.5s37.5 24.5 61.5 24.5z" />
    <glyph glyph-name="Ncaron" unicode="&#x147;" horiz-adv-x="799" 
d="M347 795l-151 181h145l63 -86l62 86h150l-151 -181h-118zM559 307v432h162v-739h-119l-361 428v-428h-163v739h112z" />
    <glyph glyph-name="ncaron" unicode="&#x148;" horiz-adv-x="652" 
d="M274 625l-151 181h145l63 -86l62 86h150l-151 -181h-118zM217 0h-156.999v548h153v-76c14.667 26.667 37.5 48.5 68.5 65.5s65.833 25.5 104.5 25.5c59.333 0 109.666 -19.667 150.999 -59s62 -95.666 62 -168.999v-335h-157v294c0 39.333 -9.66699 70 -29 92
s-45.333 33 -78 33c-35.333 0 -63.833 -11.833 -85.5 -35.5s-32.5 -54.834 -32.5 -93.501v-290z" />
    <glyph glyph-name="napostrophe" unicode="&#x149;" horiz-adv-x="718" 
d="M89 626h-133l67 184h162zM282 0h-156.999v548h153v-76c14.667 26.667 37.5 48.5 68.5 65.5s65.833 25.5 104.5 25.5c59.333 0 109.666 -19.667 150.999 -59s62 -95.666 62 -168.999v-335h-157v294c0 39.333 -9.66699 70 -29 92s-45.333 33 -78 33
c-35.333 0 -63.833 -11.833 -85.5 -35.5s-32.5 -54.834 -32.5 -93.501v-290z" />
    <glyph glyph-name="Eng" unicode="&#x14a;" horiz-adv-x="799" 
d="M559 301l-0.000976562 438h162v-688c0 -101.333 -26.333 -177 -79 -227c-53.333 -50 -120.333 -75 -201 -75c-50 0 -100 10.667 -150 32l39 148c30 -16 63.667 -24 101 -24c38.667 0 69.834 11.833 93.501 35.5s35.5 56.5 35.5 98.5v7l-319 382v-428h-163v739h112z" />
    <glyph glyph-name="eng" unicode="&#x14b;" horiz-adv-x="652" 
d="M319 -229l2.00098 138.001c41.333 -3.33301 71.666 2.33398 90.999 17.001s29 41.667 29 81v290c0 38 -9.33301 67.833 -28 89.5s-44.334 32.5 -77.001 32.5c-35.333 0 -64 -11.833 -86 -35.5s-33 -54.834 -33 -93.501v-290h-157v548h153v-73
c15.333 25.333 38.333 46.333 69 63s65.334 25 104.001 25c58.667 0 108.667 -19.667 150 -59s62 -95.666 62 -168.999v-332c0 -47.333 -7.5 -87.833 -22.5 -121.5s-35.833 -58.834 -62.5 -75.501s-56.167 -27.834 -88.5 -33.501s-67.5 -6.16699 -105.5 -1.5z" />
    <glyph glyph-name="Omacron" unicode="&#x14c;" 
d="M612 809l-378 -2v137h378v-135zM37 368c0 107.333 36.999 198 110.999 272c74.667 74.667 166.334 112 275.001 112s200 -37.333 274 -112c74.667 -74 112 -164.333 112 -271s-37 -197 -111 -271c-74.667 -73.333 -166.667 -110 -276 -110
c-110 0 -201.667 36.667 -275 110s-110 163.333 -110 270zM422.999 151c60.667 0 111.668 20.667 153.001 62c41.333 42.667 61.666 94.667 60.999 156c-1.33301 64 -22.333 116.333 -63 157c-41.333 42 -91.666 63 -150.999 63c-60.667 0 -111.334 -21 -152.001 -63
c-41.333 -42.667 -62 -95 -62 -157c0 -61.333 20.667 -113.333 62 -156c41.333 -41.333 92 -62 152 -62z" />
    <glyph glyph-name="omacron" unicode="&#x14d;" horiz-adv-x="657" 
d="M497 637l-334 -2v137h334v-135zM328 -15c-86.667 0 -157.667 27.667 -213 83c-54.667 55.333 -82 124 -82 206s27.333 150.333 82 205c55.333 56 126.333 84 213 84c87.333 0 158.666 -28 213.999 -84c55.333 -55.333 83 -123.666 83 -204.999
c0 -80.667 -27.667 -149.334 -83 -206.001c-55.333 -55.333 -126.666 -83 -213.999 -83zM468 275c0 39.333 -13.667 72.666 -41 99.999c-27.333 28 -60.333 42 -99 42s-71.667 -14 -99 -42c-26.667 -26.667 -40 -60 -40 -100c0 -41.333 13.333 -75.666 40 -102.999
c27.333 -27.333 60.333 -41 99 -41s71.667 13.667 99 41c27.333 28.667 41 63 41 103z" />
    <glyph glyph-name="Obreve" unicode="&#x14e;" 
d="M427 785c-58.667 0 -106.001 17.334 -142.001 52.001s-56 82.334 -60 143.001h127c1.33301 -26.667 8.5 -47.834 21.5 -63.501s30.833 -23.5 53.5 -23.5c23.333 0 41.5 8 54.5 24s19.833 37 20.5 63h129c-4 -60.667 -24.167 -108.334 -60.5 -143.001
s-84.166 -52 -143.499 -52zM36.999 368.001c0 107.333 36.999 198 110.999 272c74.667 74.667 166.334 112 275.001 112s200 -37.333 274 -112c74.667 -74 112 -164.333 112 -271s-37 -197 -111 -271c-74.667 -73.333 -166.667 -110 -276 -110
c-110 0 -201.667 36.667 -275 110s-110 163.333 -110 270zM422.998 151.001c60.667 0 111.668 20.667 153.001 62c41.333 42.667 61.666 94.667 60.999 156c-1.33301 64 -22.333 116.333 -63 157c-41.333 42 -91.666 63 -150.999 63c-60.667 0 -111.334 -21 -152.001 -63
c-41.333 -42.667 -62 -95 -62 -157c0 -61.333 20.667 -113.333 62 -156c41.333 -41.333 92 -62 152 -62z" />
    <glyph glyph-name="obreve" unicode="&#x14f;" horiz-adv-x="657" 
d="M134 808h121.001c1.33301 -24.667 8.16602 -44.5 20.499 -59.5s29.5 -22.5 51.5 -22.5s39.167 7.5 51.5 22.5s18.833 34.833 19.5 59.5h123c-4 -58 -23.333 -103.333 -58 -136s-80 -49 -136 -49s-101.167 16.333 -135.5 49s-53.5 78 -57.5 136zM328.001 -15
c-86.667 0 -157.667 27.667 -213 83c-54.667 55.333 -82 124 -82 206s27.333 150.333 82 205c55.333 56 126.333 84 213 84c87.333 0 158.666 -28 213.999 -84c55.333 -55.333 83 -123.666 83 -204.999c0 -80.667 -27.667 -149.334 -83 -206.001
c-55.333 -55.333 -126.666 -83 -213.999 -83zM468.001 275c0 39.333 -13.667 72.666 -41 99.999c-27.333 28 -60.333 42 -99 42s-71.667 -14 -99 -42c-26.667 -26.667 -40 -60 -40 -100c0 -41.333 13.333 -75.666 40 -102.999c27.333 -27.333 60.333 -41 99 -41
s71.667 13.667 99 41c27.333 28.667 41 63 41 103z" />
    <glyph glyph-name="Ohungarumlaut" unicode="&#x150;" 
d="M382 795h-135l45 188h171zM603 795h-141l65 188h177zM37 368c0 107.333 36.999 198 110.999 272c74.667 74.667 166.334 112 275.001 112s200 -37.333 274 -112c74.667 -74 112 -164.333 112 -271s-37 -197 -111 -271c-74.667 -73.333 -166.667 -110 -276 -110
c-110 0 -201.667 36.667 -275 110s-110 163.333 -110 270zM422.999 151c60.667 0 111.668 20.667 153.001 62c41.333 42.667 61.666 94.667 60.999 156c-1.33301 64 -22.333 116.333 -63 157c-41.333 42 -91.666 63 -150.999 63c-60.667 0 -111.334 -21 -152.001 -63
c-41.333 -42.667 -62 -95 -62 -157c0 -61.333 20.667 -113.333 62 -156c41.333 -41.333 92 -62 152 -62z" />
    <glyph glyph-name="ohungarumlaut" unicode="&#x151;" horiz-adv-x="657" 
d="M291 627h-129l43 179h163zM501 627h-134l62 179h168zM328 -15c-86.667 0 -157.667 27.667 -213 83c-54.667 55.333 -82 124 -82 206s27.333 150.333 82 205c55.333 56 126.333 84 213 84c87.333 0 158.666 -28 213.999 -84c55.333 -55.333 83 -123.666 83 -204.999
c0 -80.667 -27.667 -149.334 -83 -206.001c-55.333 -55.333 -126.666 -83 -213.999 -83zM468 275c0 39.333 -13.667 72.666 -41 99.999c-27.333 28 -60.333 42 -99 42s-71.667 -14 -99 -42c-26.667 -26.667 -40 -60 -40 -100c0 -41.333 13.333 -75.666 40 -102.999
c27.333 -27.333 60.333 -41 99 -41s71.667 13.667 99 41c27.333 28.667 41 63 41 103z" />
    <glyph glyph-name="OE" unicode="&#x152;" horiz-adv-x="1042" 
d="M990 739v-154h-350v-137h324v-153h-324v-141h349v-154h-508c-20.667 -2 -40.667 -3 -60 -3c-124.667 0 -219.667 34 -285 102c-64 68.667 -96 158.667 -96 270c0 110.667 31.667 200.667 95 270c64 68.667 157.667 103 281 103c20 0 40 -1 60 -3h514zM473 159v421
c-13.333 2.66699 -29.666 4 -48.999 4c-72.667 0 -126.167 -20.833 -160.5 -62.5s-51.5 -92.167 -51.5 -151.5s17 -110 51 -152s87.667 -63 161 -63c19.333 0 35.666 1.33301 48.999 4z" />
    <glyph glyph-name="oe" unicode="&#x153;" horiz-adv-x="1064" 
d="M1032 287c0 -16 -1.66895 -38.001 -5.00195 -66.001h-403c18.667 -68.667 68.334 -103 149.001 -103c61.333 0 118.333 17.667 171 53l62 -107c-66.667 -50.667 -146.667 -76 -240 -76c-97.333 0 -172.666 29 -225.999 87c-56 -58 -127.667 -87 -215 -87
c-85.333 0 -155.666 27.667 -210.999 83c-54 55.333 -81 123.333 -81 204s27 148.334 81 203.001c55.333 55.333 125.666 83 210.999 83c86.667 0 158 -29 214 -87c54.667 58.667 126.667 88 216 88c80 0 146.333 -24.667 199 -74c52 -49.333 78 -116.333 78 -201z
M754.998 434.999c-32 0 -59.833 -9 -83.5 -27s-39.834 -43 -48.501 -75h258c-7.33301 32 -22.166 57 -44.499 75s-49.5 27 -81.5 27zM463.998 275.999c0 39.333 -13.667 72.667 -41 100s-60 41 -98 41c-38.667 0 -71.667 -13.667 -99 -41c-26.667 -26.667 -40 -60 -40 -100
c0 -41.333 13.333 -75.666 40 -102.999c27.333 -27.333 60.333 -41 99 -41s71.667 13.667 99 41c26.667 27.333 40 61.666 40 102.999z" />
    <glyph glyph-name="Racute" unicode="&#x154;" horiz-adv-x="686" 
d="M296 982h180l-98 -188h-147zM661 0l-192.001 0.000976562l-145 258h-81v-258h-165v739h294c84.667 0 149.334 -23 194.001 -69c44.667 -44.667 67 -101.334 67 -170.001c0 -49.333 -12.167 -93.333 -36.5 -132s-59.833 -67.667 -106.5 -87zM370.999 587.001
l-128 0.000976562v-183h117c33.333 0 58.833 8.66699 76.5 26s26.5 39.666 26.5 66.999c0 26 -8.16699 47.5 -24.5 64.5s-38.833 25.5 -67.5 25.5z" />
    <glyph glyph-name="racute" unicode="&#x155;" horiz-adv-x="444" 
d="M306 628h-140l62 179h172zM217 0h-157v548h150v-71c35.333 57.333 85 86 149 86c21.333 0 44 -4.33301 68 -13l-13 -150c-22.667 8 -45.667 12 -69 12c-40 0 -71.333 -13.5 -94 -40.5s-34 -67.5 -34 -121.5v-250z" />
    <glyph glyph-name="Rcommaaccent" unicode="&#x156;" horiz-adv-x="686" 
d="M490 281l170.999 -280.999h-192l-145 258h-81v-258h-165v739h294c84.667 0 149.334 -23 194.001 -69c44.667 -44.667 67 -101.334 67 -170.001c0 -49.333 -12.167 -93.333 -36.5 -132s-59.833 -67.667 -106.5 -87zM370.999 587.001l-128 0.000976562v-183h117
c33.333 0 58.833 8.66699 76.5 26s26.5 39.666 26.5 66.999c0 26 -8.16699 47.5 -24.5 64.5s-38.833 25.5 -67.5 25.5zM348.999 -23.998c27.333 0 50.168 -9.16602 68.501 -27.499s27.5 -41.833 27.5 -70.5c0 -32.667 -12.333 -64.5 -37 -95.5
s-64.334 -66.167 -119.001 -105.5l-55 69c34.667 26 61.667 48 81 66c-16 5.33301 -29.167 15.166 -39.5 29.499s-15.5 30.5 -15.5 48.5c0 24 8.5 44.333 25.5 61s38.167 25 63.5 25z" />
    <glyph glyph-name="rcommaaccent" unicode="&#x157;" horiz-adv-x="446" 
d="M361 563c21.333 0 44 -4.33301 68 -13l-13 -150c-22.667 8 -45.667 12 -69 12c-40 0 -71.333 -13.5 -94 -40.5s-34 -67.5 -34 -121.5v-250h-157v548h150v-71c35.333 57.333 85 86 149 86zM137 -33c26 0 48 -8.83203 66 -26.499s27 -40.5 27 -68.5
c0 -31.333 -11.833 -61.833 -35.5 -91.5s-62.5 -64.167 -116.5 -103.5l-53 67c36.667 27.333 62.667 48.666 78 63.999c-16 5.33301 -28.833 15 -38.5 29s-14.5 29.667 -14.5 47c0 22.667 8.5 42.167 25.5 58.5s37.5 24.5 61.5 24.5z" />
    <glyph glyph-name="Rcaron" unicode="&#x158;" horiz-adv-x="686" 
d="M536 976l-151 -181h-118l-151 181h145l63 -86l62 86h150zM661 0l-192.001 0.000976562l-145 258h-81v-258h-165v739h294c84.667 0 149.334 -23 194.001 -69c44.667 -44.667 67 -101.334 67 -170.001c0 -49.333 -12.167 -93.333 -36.5 -132s-59.833 -67.667 -106.5 -87z
M370.999 587.001l-128 0.000976562v-183h117c33.333 0 58.833 8.66699 76.5 26s26.5 39.666 26.5 66.999c0 26 -8.16699 47.5 -24.5 64.5s-38.833 25.5 -67.5 25.5z" />
    <glyph glyph-name="rcaron" unicode="&#x159;" horiz-adv-x="444" 
d="M190 627l-151 181h145l63 -86l62 86h150l-151 -181h-118zM219 0h-157v548h150v-71c35.333 57.333 85 86 149 86c21.333 0 44 -4.33301 68 -13l-13 -150c-22.667 8 -45.667 12 -69 12c-40 0 -71.333 -13.5 -94 -40.5s-34 -67.5 -34 -121.5v-250z" />
    <glyph glyph-name="Sacute" unicode="&#x15a;" horiz-adv-x="610" 
d="M379 792h-147l65 188h180zM306 -13c-58.667 0 -113.166 11.501 -163.499 34.501s-92.5 56.167 -126.5 99.5l90 118c55.333 -65.333 122.333 -98 201 -98c28.667 0 52 6.16699 70 18.5s27 28.5 27 48.5c0 27.333 -21.333 50.333 -64 69l-66 24
c-40.667 15.333 -72.334 29 -95.001 41c-79.333 43.333 -119 105.666 -119 186.999c0 64 24.333 117 73 159s112 63 190 63c98 0 181.667 -32.667 251 -98l-82 -123c-21.333 20 -47.5 36 -78.5 48s-60.5 18 -88.5 18c-27.333 0 -48.833 -5.5 -64.5 -16.5
s-23.5 -25.833 -23.5 -44.5c0 -25.333 20 -47 60 -65l72 -29c44.667 -17.333 73 -29 85 -35c88.667 -40 133 -102.667 133 -188c0 -68 -26 -123.333 -78 -166c-51.333 -43.333 -119 -65 -203 -65z" />
    <glyph glyph-name="sacute" unicode="&#x15b;" horiz-adv-x="503" 
d="M326 628h-140l62 179h172zM254 -15c-96.667 0 -174.665 33.667 -233.998 101l77 102c47.333 -48 99.666 -72 156.999 -72c20 0 36.167 4 48.5 12s18.5 18.667 18.5 32c0 16 -11.333 29.333 -34 40c-7.33301 3.33301 -29 11.333 -65 24
c-38.667 14.667 -62.334 24 -71.001 28c-65.333 31.333 -98 79.666 -98 144.999c0 50.667 19.333 91.334 58 122.001c39.333 31.333 91.333 47 156 47c79.333 0 145.333 -25.333 198 -76l-73 -102c-41.333 34 -84 51 -128 51c-17.333 0 -31.166 -3.66699 -41.499 -11
s-15.5 -16.666 -15.5 -27.999c0 -20 16.333 -35.333 49 -46c61.333 -20 104.666 -36.667 129.999 -50c62 -32.667 93 -79.334 93 -140.001c0 -51.333 -20.667 -94 -62 -128c-40.667 -34 -95 -51 -163 -51z" />
    <glyph glyph-name="Scircumflex" unicode="&#x15c;" horiz-adv-x="610" 
d="M257 792h-153l159 190h124l159 -190h-158l-65 90zM306 -13c-58.667 0 -113.166 11.501 -163.499 34.501s-92.5 56.167 -126.5 99.5l90 118c55.333 -65.333 122.333 -98 201 -98c28.667 0 52 6.16699 70 18.5s27 28.5 27 48.5c0 27.333 -21.333 50.333 -64 69l-66 24
c-40.667 15.333 -72.334 29 -95.001 41c-79.333 43.333 -119 105.666 -119 186.999c0 64 24.333 117 73 159s112 63 190 63c98 0 181.667 -32.667 251 -98l-82 -123c-21.333 20 -47.5 36 -78.5 48s-60.5 18 -88.5 18c-27.333 0 -48.833 -5.5 -64.5 -16.5
s-23.5 -25.833 -23.5 -44.5c0 -25.333 20 -47 60 -65l72 -29c44.667 -17.333 73 -29 85 -35c88.667 -40 133 -102.667 133 -188c0 -68 -26 -123.333 -78 -166c-51.333 -43.333 -119 -65 -203 -65z" />
    <glyph glyph-name="scircumflex" unicode="&#x15d;" horiz-adv-x="500" 
d="M195 627h-145l151 181h118l151 -181h-150l-62 86zM254 -15c-96.667 0 -174.665 33.667 -233.998 101l77 102c47.333 -48 99.666 -72 156.999 -72c20 0 36.167 4 48.5 12s18.5 18.667 18.5 32c0 16 -11.333 29.333 -34 40c-7.33301 3.33301 -29 11.333 -65 24
c-38.667 14.667 -62.334 24 -71.001 28c-65.333 31.333 -98 79.666 -98 144.999c0 50.667 19.333 91.334 58 122.001c39.333 31.333 91.333 47 156 47c79.333 0 145.333 -25.333 198 -76l-73 -102c-41.333 34 -84 51 -128 51c-17.333 0 -31.166 -3.66699 -41.499 -11
s-15.5 -16.666 -15.5 -27.999c0 -20 16.333 -35.333 49 -46c61.333 -20 104.666 -36.667 129.999 -50c62 -32.667 93 -79.334 93 -140.001c0 -51.333 -20.667 -94 -62 -128c-40.667 -34 -95 -51 -163 -51z" />
    <glyph glyph-name="Scedilla" unicode="&#x15e;" horiz-adv-x="610" 
d="M587 218c0 -60.667 -21.3301 -111.999 -63.9971 -153.999c-42.667 -41.333 -99.334 -66 -170.001 -74l-15 -38c30.667 -2 56.167 -12.5 76.5 -31.5s30.5 -42.833 30.5 -71.5c0 -34.667 -13.667 -63.834 -41 -87.501s-64.333 -35.5 -111 -35.5
c-40.667 0 -83 10.333 -127 31l32 88c29.333 -14 56.333 -21 81 -21c16 0 28.5 3.33301 37.5 10s13.5 15.334 13.5 26.001c0 22 -19 33 -57 33h-53l-8 29l28 70c-94.667 16 -169.334 59 -224.001 129l90 118c55.333 -65.333 122.333 -98 201 -98
c28.667 0 52 6.16699 70 18.5s27 28.5 27 48.5c0 27.333 -21.333 50.333 -64 69l-66 24c-40.667 15.333 -72.334 29 -95.001 41c-79.333 43.333 -119 105.666 -119 186.999c0 64 24.333 117 73 159s112 63 190 63c98 0 181.667 -32.667 251 -98l-82 -123
c-21.333 20 -47.5 36 -78.5 48s-60.5 18 -88.5 18c-27.333 0 -48.833 -5.5 -64.5 -16.5s-23.5 -25.833 -23.5 -44.5c0 -25.333 20 -47 60 -65l72 -29c44.667 -17.333 73 -29 85 -35c88.667 -40 133 -102.667 133 -188z" />
    <glyph glyph-name="scedilla" unicode="&#x15f;" horiz-adv-x="503" 
d="M479 164c0 -48 -17.3311 -88.167 -51.998 -120.5s-81.667 -51.5 -141 -57.5l-13 -32c30.667 -2 56.167 -12.5 76.5 -31.5s30.5 -42.833 30.5 -71.5c0 -34.667 -13.667 -63.834 -41 -87.501s-64.333 -35.5 -111 -35.5c-40.667 0 -83 10.333 -127 31l32 88
c28.667 -14 55.667 -21 81 -21c16 0 28.5 3.33301 37.5 10s13.5 15.334 13.5 26.001c0 22 -19 33 -57 33h-53l-8 29l28 70c-62 15.333 -113.667 46 -155 92l77 102c47.333 -48 99.666 -72 156.999 -72c20 0 36.167 4 48.5 12s18.5 18.667 18.5 32
c0 16 -11.333 29.333 -34 40c-7.33301 3.33301 -29 11.333 -65 24c-38.667 14.667 -62.334 24 -71.001 28c-65.333 31.333 -98 79.666 -98 144.999c0 50.667 19.333 91.334 58 122.001c39.333 31.333 91.333 47 156 47c79.333 0 145.333 -25.333 198 -76l-73 -102
c-41.333 34 -84 51 -128 51c-17.333 0 -31.166 -3.66699 -41.499 -11s-15.5 -16.666 -15.5 -27.999c0 -20 16.333 -35.333 49 -46c61.333 -20 104.666 -36.667 129.999 -50c62 -32.667 93 -79.334 93 -140.001z" />
    <glyph glyph-name="Scaron" unicode="&#x160;" horiz-adv-x="610" 
d="M268 794l-151 181h145l63 -86l62 86h150l-151 -181h-118zM306 -13c-58.667 0 -113.166 11.501 -163.499 34.501s-92.5 56.167 -126.5 99.5l90 118c55.333 -65.333 122.333 -98 201 -98c28.667 0 52 6.16699 70 18.5s27 28.5 27 48.5c0 27.333 -21.333 50.333 -64 69
l-66 24c-40.667 15.333 -72.334 29 -95.001 41c-79.333 43.333 -119 105.666 -119 186.999c0 64 24.333 117 73 159s112 63 190 63c98 0 181.667 -32.667 251 -98l-82 -123c-21.333 20 -47.5 36 -78.5 48s-60.5 18 -88.5 18c-27.333 0 -48.833 -5.5 -64.5 -16.5
s-23.5 -25.833 -23.5 -44.5c0 -25.333 20 -47 60 -65l72 -29c44.667 -17.333 73 -29 85 -35c88.667 -40 133 -102.667 133 -188c0 -68 -26 -123.333 -78 -166c-51.333 -43.333 -119 -65 -203 -65z" />
    <glyph glyph-name="scaron" unicode="&#x161;" horiz-adv-x="500" 
d="M202 626l-151 181h145l63 -86l62 86h150l-151 -181h-118zM254 -15c-96.667 0 -174.665 33.667 -233.998 101l77 102c47.333 -48 99.666 -72 156.999 -72c20 0 36.167 4 48.5 12s18.5 18.667 18.5 32c0 16 -11.333 29.333 -34 40c-7.33301 3.33301 -29 11.333 -65 24
c-38.667 14.667 -62.334 24 -71.001 28c-65.333 31.333 -98 79.666 -98 144.999c0 50.667 19.333 91.334 58 122.001c39.333 31.333 91.333 47 156 47c79.333 0 145.333 -25.333 198 -76l-73 -102c-41.333 34 -84 51 -128 51c-17.333 0 -31.166 -3.66699 -41.499 -11
s-15.5 -16.666 -15.5 -27.999c0 -20 16.333 -35.333 49 -46c61.333 -20 104.666 -36.667 129.999 -50c62 -32.667 93 -79.334 93 -140.001c0 -51.333 -20.667 -94 -62 -128c-40.667 -34 -95 -51 -163 -51z" />
    <glyph glyph-name="Tcaron" unicode="&#x164;" horiz-adv-x="611" 
d="M250 795l-151 181h145l63 -86l62 86h150l-151 -181h-118zM223 0v580h-209v159h583v-159h-208v-580h-166z" />
    <glyph glyph-name="tcaron" unicode="&#x165;" horiz-adv-x="467" 
d="M347 624l67 184h162l-96 -184h-133zM336 129c25.333 0 55.333 9 90 27l44 -125c-46.667 -30 -102.667 -45 -168 -45c-130.667 0 -196 73.667 -196 221v211h-87v130h88v194h156v-194h176v-130h-176v-196c0 -62 24.333 -93 73 -93z" />
    <glyph glyph-name="Tbar" unicode="&#x166;" horiz-adv-x="628" 
d="M605 739v-159h-208v-142h129v-132h-129v-306h-166v306h-129v132h129v142h-209v159h583z" />
    <glyph glyph-name="tbar" unicode="&#x167;" horiz-adv-x="479" 
d="M430 156l44 -125c-46.667 -30 -102.667 -45 -168 -45c-130.667 0 -196 73.667 -196 221v37h-86v102h86v72h-87v130h88v194h156v-194h176v-130h-176v-72h170v-102h-170v-22c0 -62 24.333 -93 73 -93c25.333 0 55.333 9 90 27z" />
    <glyph glyph-name="Utilde" unicode="&#x168;" horiz-adv-x="731" 
d="M241 789l-102.002 51.001c20.667 42.667 43.334 74.167 68.001 94.5s54.667 30.5 90 30.5c22.667 0 48.667 -7.66699 78 -23c28.667 -14.667 48.334 -22 59.001 -22c11.333 0 21.333 3.66699 30 11s19 20.666 31 39.999l102 -49c-33.333 -83.333 -82.333 -125 -147 -125
c-22 0 -47.667 7.33301 -77 22c-30.667 15.333 -52 23 -64 23c-25.333 0 -48 -17.667 -68 -53zM365.998 -12.999c-84 0 -154.333 24.3301 -211 72.9971s-85 121.334 -85 218.001v461h166v-454c0 -45.333 11.5 -79.666 34.5 -102.999s54.833 -35 95.5 -35
c39.333 0 70.666 11.833 93.999 35.5s35 57.834 35 102.501v454h166v-461c0 -96 -28 -168.667 -84 -218c-55.333 -48.667 -125.666 -73 -210.999 -73z" />
    <glyph glyph-name="utilde" unicode="&#x169;" horiz-adv-x="620" 
d="M186 620l-99 49c20 41.333 42 71.833 66 91.5s53 29.5 87 29.5c22.667 0 47.667 -7.33301 75 -22c28 -14 47.333 -21 58 -21c11.333 0 21.333 3.66699 30 11s18.334 20 29.001 38l99 -47c-32 -81.333 -79.333 -122 -142 -122c-21.333 0 -46.333 7.33301 -75 22
s-49.334 22 -62.001 22c-25.333 0 -47.333 -17 -66 -51zM310 -14c-80 0 -142.833 21.999 -188.5 65.999s-68.5 105 -68.5 183v313h157v-314c0 -32 8.83301 -57.333 26.5 -76s42.167 -28 73.5 -28s55.833 9.33301 73.5 28s26.5 44 26.5 76v314h157v-313
c0 -79.333 -22.667 -140.666 -68 -183.999s-108.333 -65 -189 -65z" />
    <glyph glyph-name="Umacron" unicode="&#x16a;" horiz-adv-x="731" 
d="M556 812l-378 -2v137h378v-135zM366 -13c-84 0 -154.333 24.3301 -211 72.9971s-85 121.334 -85 218.001v461h166v-454c0 -45.333 11.5 -79.666 34.5 -102.999s54.833 -35 95.5 -35c39.333 0 70.666 11.833 93.999 35.5s35 57.834 35 102.501v454h166v-461
c0 -96 -28 -168.667 -84 -218c-55.333 -48.667 -125.666 -73 -210.999 -73z" />
    <glyph glyph-name="umacron" unicode="&#x16b;" horiz-adv-x="620" 
d="M477 639l-334 -2v137h334v-135zM310 -14c-80 0 -142.833 21.999 -188.5 65.999s-68.5 105 -68.5 183v313h157v-314c0 -32 8.83301 -57.333 26.5 -76s42.167 -28 73.5 -28s55.833 9.33301 73.5 28s26.5 44 26.5 76v314h157v-313c0 -79.333 -22.667 -140.666 -68 -183.999
s-108.333 -65 -189 -65z" />
    <glyph glyph-name="Ubreve" unicode="&#x16c;" horiz-adv-x="731" 
d="M366 785c-58.667 0 -106.001 17.334 -142.001 52.001s-56 82.334 -60 143.001h127c1.33301 -26.667 8.5 -47.834 21.5 -63.501s30.833 -23.5 53.5 -23.5c23.333 0 41.5 8 54.5 24s19.833 37 20.5 63h129c-4 -60.667 -24.167 -108.334 -60.5 -143.001
s-84.166 -52 -143.499 -52zM365.999 -12.999c-84 0 -154.333 24.3301 -211 72.9971s-85 121.334 -85 218.001v461h166v-454c0 -45.333 11.5 -79.666 34.5 -102.999s54.833 -35 95.5 -35c39.333 0 70.666 11.833 93.999 35.5s35 57.834 35 102.501v454h166v-461
c0 -96 -28 -168.667 -84 -218c-55.333 -48.667 -125.666 -73 -210.999 -73z" />
    <glyph glyph-name="ubreve" unicode="&#x16d;" horiz-adv-x="620" 
d="M117 806h121.001c1.33301 -24.667 8.16602 -44.5 20.499 -59.5s29.5 -22.5 51.5 -22.5s39.167 7.5 51.5 22.5s18.833 34.833 19.5 59.5h123c-4 -58 -23.333 -103.333 -58 -136s-80 -49 -136 -49s-101.167 16.333 -135.5 49s-53.5 78 -57.5 136zM310.001 -14
c-80 0 -142.833 21.999 -188.5 65.999s-68.5 105 -68.5 183v313h157v-314c0 -32 8.83301 -57.333 26.5 -76s42.167 -28 73.5 -28s55.833 9.33301 73.5 28s26.5 44 26.5 76v314h157v-313c0 -79.333 -22.667 -140.666 -68 -183.999s-108.333 -65 -189 -65z" />
    <glyph glyph-name="Uring" unicode="&#x16e;" horiz-adv-x="731" 
d="M366 778c-41.333 0 -75.667 13.334 -103 40.001c-28 26.667 -42 59.667 -42 99s14 72.666 42 99.999c28.667 27.333 63 41 103 41s74.333 -14 103 -42c28.667 -26.667 43 -59.667 43 -99s-14.333 -72.333 -43 -99s-63 -40 -103 -40zM365.999 865.001
c14.667 0 27.167 5.16699 37.5 15.5s15.5 23.166 15.5 38.499c0 14.667 -5.16699 27.167 -15.5 37.5s-22.833 15.5 -37.5 15.5c-15.333 0 -28.333 -5.16699 -39 -15.5s-16 -22.833 -16 -37.5c0 -15.333 5.33301 -28.166 16 -38.499s23.667 -15.5 39 -15.5zM365.999 -12.999
c-84 0 -154.333 24.3301 -211 72.9971s-85 121.334 -85 218.001v461h166v-454c0 -45.333 11.5 -79.666 34.5 -102.999s54.833 -35 95.5 -35c39.333 0 70.666 11.833 93.999 35.5s35 57.834 35 102.501v454h166v-461c0 -96 -28 -168.667 -84 -218
c-55.333 -48.667 -125.666 -73 -210.999 -73z" />
    <glyph glyph-name="uring" unicode="&#x16f;" horiz-adv-x="620" 
d="M449 734c0 -36.667 -13.667 -68 -41 -94c-26.667 -26 -59.334 -39 -98.001 -39c-38 0 -70.667 12.667 -98 38c-26.667 26 -40 57.667 -40 95s13.333 69 40 95c27.333 26 60 39 98 39c38.667 0 71.334 -13 98.001 -39c27.333 -26 41 -57.667 41 -95zM310 684
c14 0 26 5 36 15s15 22.333 15 37c0 14 -5 25.833 -15 35.5s-22 14.5 -36 14.5c-14.667 0 -27 -4.83301 -37 -14.5s-15 -21.5 -15 -35.5c0 -14.667 5 -27 15 -37s22.333 -15 37 -15zM310 -14c-80 0 -142.833 21.999 -188.5 65.999s-68.5 105 -68.5 183v313h157v-314
c0 -32 8.83301 -57.333 26.5 -76s42.167 -28 73.5 -28s55.833 9.33301 73.5 28s26.5 44 26.5 76v314h157v-313c0 -79.333 -22.667 -140.666 -68 -183.999s-108.333 -65 -189 -65z" />
    <glyph glyph-name="Uhungarumlaut" unicode="&#x170;" horiz-adv-x="733" 
d="M322 795h-135l45 188h171zM543 795h-141l65 188h177zM366 -13c-84 0 -154.333 24.3301 -211 72.9971s-85 121.334 -85 218.001v461h166v-454c0 -45.333 11.5 -79.666 34.5 -102.999s54.833 -35 95.5 -35c39.333 0 70.666 11.833 93.999 35.5s35 57.834 35 102.501v454
h166v-461c0 -96 -28 -168.667 -84 -218c-55.333 -48.667 -125.666 -73 -210.999 -73z" />
    <glyph glyph-name="uhungarumlaut" unicode="&#x171;" horiz-adv-x="615" 
d="M264 627h-129l43 179h163zM474 627h-134l62 179h168zM310 -14c-80 0 -142.833 21.999 -188.5 65.999s-68.5 105 -68.5 183v313h157v-314c0 -32 8.83301 -57.333 26.5 -76s42.167 -28 73.5 -28s55.833 9.33301 73.5 28s26.5 44 26.5 76v314h157v-313
c0 -79.333 -22.667 -140.666 -68 -183.999s-108.333 -65 -189 -65z" />
    <glyph glyph-name="Uogonek" unicode="&#x172;" horiz-adv-x="731" 
d="M495 285v453.997h166v-461c0 -71.333 -16 -130.166 -48 -176.499s-76.667 -78.833 -134 -97.5c-25.333 -12.667 -46.666 -29.167 -63.999 -49.5s-26 -39.833 -26 -58.5c0 -12 3.5 -21.333 10.5 -28s15.833 -10 26.5 -10c10 0 24 3.66699 42 11l30 -98
c-36 -20 -73.333 -30 -112 -30s-69 10.667 -91 32s-33 49.333 -33 84c0 49.333 24 93 72 131c-76.667 6 -140 33 -190 81c-49.333 49.333 -74 119 -74 209v461h166v-454c0 -45.333 11.5 -79.666 34.5 -102.999s54.833 -35 95.5 -35c39.333 0 70.666 11.833 93.999 35.5
s35 57.834 35 102.501z" />
    <glyph glyph-name="uogonek" unicode="&#x173;" horiz-adv-x="620" 
d="M410 234l-0.000976562 314h157v-313c0 -61.333 -13.667 -112.166 -41 -152.499s-67 -68.166 -119 -83.499c-25.333 -12 -46.666 -28.333 -63.999 -49s-26 -40.334 -26 -59.001c0 -12 3.5 -21.333 10.5 -28s15.833 -10 26.5 -10c10 0 24 3.66699 42 11l30 -98
c-36 -20 -73.333 -30 -112 -30s-69 10.667 -91 32s-33 49.333 -33 84c0 50.667 26 96 78 136c-67.333 7.33301 -120 32.666 -158 75.999s-57 100.333 -57 171v313h157v-314c0 -32 8.83301 -57.333 26.5 -76s42.167 -28 73.5 -28s55.833 9.33301 73.5 28s26.5 44 26.5 76z
" />
    <glyph glyph-name="Wcircumflex" unicode="&#x174;" horiz-adv-x="1078" 
d="M473 794h-153l159 190h124l159 -190h-158l-65 90zM395 0h-149l-242 739h182l138 -481l159 481h111l161 -481l136 481h182l-241 -739h-149l-144 460z" />
    <glyph glyph-name="wcircumflex" unicode="&#x175;" horiz-adv-x="890" 
d="M383 625h-145l151 181h118l151 -181h-150l-62 86zM332 1h-139l-187 547h165l103 -341l115 341h111l117 -341l101 341h165l-185 -547h-139l-114 320z" />
    <glyph glyph-name="Ycircumflex" unicode="&#x176;" horiz-adv-x="693" 
d="M280 794h-153l159 190h124l159 -190h-158l-65 90zM493 739h193l-257 -486v-253h-165v253l-255 486h193l144 -306z" />
    <glyph glyph-name="ycircumflex" unicode="&#x177;" horiz-adv-x="614" 
d="M377 626l-62 86l-63 -86h-145l151 181h118l151 -181h-150zM319 209l117.999 339h170l-217 -563c-28.667 -74 -62.667 -128.833 -102 -164.5s-87.666 -53.5 -144.999 -53.5c-44.667 0 -81.667 9.66699 -111 29l29 130c23.333 -12.667 47 -19 71 -19c44 0 79.333 28 106 84
l7 16l-239 541h181z" />
    <glyph glyph-name="Ydieresis" unicode="&#x178;" horiz-adv-x="693" 
d="M142 884c0 24.667 8.83398 45.667 26.501 63s39.167 26 64.5 26s46.666 -8.5 63.999 -25.5s26 -38.167 26 -63.5c0 -26 -8.5 -47.5 -25.5 -64.5s-38.5 -25.5 -64.5 -25.5s-47.667 8.5 -65 25.5s-26 38.5 -26 64.5zM460.001 794c-26 0 -47.667 8.5 -65 25.5
s-26 38.5 -26 64.5c0 24.667 8.83301 45.667 26.5 63s39.167 26 64.5 26s46.666 -8.66699 63.999 -26s26 -38.333 26 -63c0 -26 -8.66699 -47.5 -26 -64.5s-38.666 -25.5 -63.999 -25.5zM493.001 739h193l-257 -486v-253h-165v253l-255 486h193l144 -306z" />
    <glyph glyph-name="Zacute" unicode="&#x179;" horiz-adv-x="662" 
d="M405 795h-147l65 188h180zM624 0h-588v121l353 466h-339v152h563v-127l-345 -460h356v-152z" />
    <glyph glyph-name="zacute" unicode="&#x17a;" horiz-adv-x="549" 
d="M338 628h-140l62 179h172zM504 438l-255 -308h266v-130h-482v109l261 308h-249v130h459v-109z" />
    <glyph glyph-name="Zdotaccent" unicode="&#x17b;" horiz-adv-x="662" 
d="M338 793c-26.667 0 -49 8.83301 -67 26.5s-27 39.834 -27 66.501s9 48.834 27 66.501s40.333 26.5 67 26.5c26 0 48 -8.83301 66 -26.5s27 -39.834 27 -66.501s-9 -48.834 -27 -66.501s-40 -26.5 -66 -26.5zM624 0h-588v121l353 466h-339v152h563v-127l-345 -460h356
v-152z" />
    <glyph glyph-name="zdotaccent" unicode="&#x17c;" horiz-adv-x="549" 
d="M282 606c-26.667 0 -49 8.83301 -67 26.5s-27 39.834 -27 66.501s9 48.834 27 66.501s40.333 26.5 67 26.5c26 0 48 -8.83301 66 -26.5s27 -39.834 27 -66.501s-9 -48.834 -27 -66.501s-40 -26.5 -66 -26.5zM504 438l-255 -308h266v-130h-482v109l261 308h-249v130h459
v-109z" />
    <glyph glyph-name="Zcaron" unicode="&#x17d;" horiz-adv-x="662" 
d="M281 796l-151 181h145l63 -86l62 86h150l-151 -181h-118zM624 0h-588v121l353 466h-339v152h563v-127l-345 -460h356v-152z" />
    <glyph glyph-name="zcaron" unicode="&#x17e;" horiz-adv-x="549" 
d="M215 627l-151 181h145l63 -86l62 86h150l-151 -181h-118zM504 438l-255 -308h266v-130h-482v109l261 308h-249v130h459v-109z" />
    <glyph glyph-name="Scommaaccent" unicode="&#x218;" horiz-adv-x="610" 
d="M454 406c88.667 -40 133.001 -102.666 133.001 -187.999c0 -68 -26 -123.333 -78 -166c-51.333 -43.333 -119 -65 -203 -65c-58.667 0 -113.167 11.5 -163.5 34.5s-92.5 56.167 -126.5 99.5l90 118c55.333 -65.333 122.333 -98 201 -98c28.667 0 52 6.16699 70 18.5
s27 28.5 27 48.5c0 27.333 -21.333 50.333 -64 69l-66 24c-40.667 15.333 -72.334 29 -95.001 41c-79.333 43.333 -119 105.666 -119 186.999c0 64 24.333 117 73 159s112 63 190 63c98 0 181.667 -32.667 251 -98l-82 -123c-21.333 20 -47.5 36 -78.5 48s-60.5 18 -88.5 18
c-27.333 0 -48.833 -5.5 -64.5 -16.5s-23.5 -25.833 -23.5 -44.5c0 -25.333 20 -47 60 -65l72 -29c44.667 -17.333 73 -29 85 -35zM301.001 -41.999c27.333 0 50.168 -9.16602 68.501 -27.499s27.5 -41.833 27.5 -70.5c0 -32.667 -12.333 -64.5 -37 -95.5
s-64.334 -66.167 -119.001 -105.5l-55 69c34.667 26 61.667 48 81 66c-16 5.33301 -29.167 15.166 -39.5 29.499s-15.5 30.5 -15.5 48.5c0 24 8.5 44.333 25.5 61s38.167 25 63.5 25z" />
    <glyph glyph-name="scommaaccent" unicode="&#x219;" horiz-adv-x="503" 
d="M386 304c62 -32.667 93.002 -79.334 93.002 -140.001c0 -51.333 -20.667 -94 -62 -128c-40.667 -34 -95 -51 -163 -51c-96.667 0 -174.667 33.667 -234 101l77 102c47.333 -48 99.666 -72 156.999 -72c20 0 36.167 4 48.5 12s18.5 18.667 18.5 32
c0 16 -11.333 29.333 -34 40c-7.33301 3.33301 -29 11.333 -65 24c-38.667 14.667 -62.334 24 -71.001 28c-65.333 31.333 -98 79.666 -98 144.999c0 50.667 19.333 91.334 58 122.001c39.333 31.333 91.333 47 156 47c79.333 0 145.333 -25.333 198 -76l-73 -102
c-41.333 34 -84 51 -128 51c-17.333 0 -31.166 -3.66699 -41.499 -11s-15.5 -16.666 -15.5 -27.999c0 -20 16.333 -35.333 49 -46c61.333 -20 104.666 -36.667 129.999 -50zM250.002 -48c26 0 48 -8.83203 66 -26.499s27 -40.5 27 -68.5
c0 -31.333 -11.833 -61.833 -35.5 -91.5s-62.5 -64.167 -116.5 -103.5l-53 67c36.667 27.333 62.667 48.666 78 63.999c-16 5.33301 -28.833 15 -38.5 29s-14.5 29.667 -14.5 47c0 22.667 8.5 42.167 25.5 58.5s37.5 24.5 61.5 24.5z" />
    <glyph glyph-name="uni021A" unicode="&#x21a;" horiz-adv-x="611" 
d="M14 580v159h583v-159h-208v-580h-166v580h-209zM302 -28c27.333 0 50.168 -9.16602 68.501 -27.499s27.5 -41.833 27.5 -70.5c0 -32.667 -12.333 -64.5 -37 -95.5s-64.334 -66.167 -119.001 -105.5l-55 69c35.333 26 62.333 48 81 66
c-16 5.33301 -29.167 15.166 -39.5 29.499s-15.5 30.5 -15.5 48.5c0 24 8.5 44.333 25.5 61s38.167 25 63.5 25z" />
    <glyph glyph-name="uni021B" unicode="&#x21b;" horiz-adv-x="473" 
d="M426 156l44 -125c-46.667 -30 -102.667 -45 -168 -45c-130.667 0 -196 73.667 -196 221v211h-87v130h88v194h156v-194h176v-130h-176v-196c0 -62 24.333 -93 73 -93c25.333 0 55.333 9 90 27zM283 -47c26 0 48 -8.83203 66 -26.499s27 -40.5 27 -68.5
c0 -31.333 -11.833 -61.833 -35.5 -91.5s-62.5 -64.167 -116.5 -103.5l-53 67c36.667 27.333 62.667 48.666 78 63.999c-16 5.33301 -28.833 15 -38.5 29s-14.5 29.667 -14.5 47c0 22.667 8.5 42.167 25.5 58.5s37.5 24.5 61.5 24.5z" />
    <glyph glyph-name="uni0237" unicode="&#x237;" horiz-adv-x="302" 
d="M21 -234c-59.333 0 -104.333 10.333 -135 31l30 123c27.333 -10.667 53.333 -16 78 -16c60 0 90 35.333 90 106v538h157v-550c0 -75.333 -19.833 -132.833 -59.5 -172.5s-93.167 -59.5 -160.5 -59.5z" />
    <glyph glyph-name="circumflex" unicode="&#x2c6;" horiz-adv-x="557" 
d="M184 620h-145l151 181h118l151 -181h-150l-62 86z" />
    <glyph glyph-name="caron" unicode="&#x2c7;" horiz-adv-x="547" 
d="M190 623l-151 181h145l63 -86l62 86h150l-151 -181h-118z" />
    <glyph glyph-name="breve" unicode="&#x2d8;" horiz-adv-x="475" 
d="M40 801h121.001c1.33301 -24.667 8.16602 -44.5 20.499 -59.5s29.5 -22.5 51.5 -22.5s39.167 7.5 51.5 22.5s18.833 34.833 19.5 59.5h123c-4 -58 -23.333 -103.333 -58 -136s-80 -49 -136 -49s-101.167 16.333 -135.5 49s-53.5 78 -57.5 136z" />
    <glyph glyph-name="dotaccent" unicode="&#x2d9;" horiz-adv-x="300" 
d="M134 595c-26.667 0 -49 8.83301 -67 26.5s-27 39.834 -27 66.501s9 48.834 27 66.501s40.333 26.5 67 26.5c26 0 48 -8.83301 66 -26.5s27 -39.834 27 -66.501s-9 -48.834 -27 -66.501s-40 -26.5 -66 -26.5z" />
    <glyph glyph-name="ring" unicode="&#x2da;" horiz-adv-x="383" 
d="M317 726c0 -36.667 -13.667 -68 -41 -94c-26.667 -26 -59.334 -39 -98.001 -39c-38 0 -70.667 12.667 -98 38c-26.667 26 -40 57.667 -40 95s13.333 69 40 95c27.333 26 60 39 98 39c38.667 0 71.334 -13 98.001 -39c27.333 -26 41 -57.667 41 -95zM178 676
c14 0 26 5 36 15s15 22.333 15 37c0 14 -5 25.833 -15 35.5s-22 14.5 -36 14.5c-14.667 0 -27 -4.83301 -37 -14.5s-15 -21.5 -15 -35.5c0 -14.667 5 -27 15 -37s22.333 -15 37 -15z" />
    <glyph glyph-name="ogonek" unicode="&#x2db;" horiz-adv-x="352" 
d="M246 -137l30 -98c-36 -20 -73.333 -30 -112 -30s-69 10.667 -91 32s-33 49.333 -33 84c0 65.333 42 121 126 167l95 -18c-26.667 -12 -49 -28.5 -67 -49.5s-27 -41.167 -27 -60.5c0 -12 3.5 -21.333 10.5 -28s15.833 -10 26.5 -10c10 0 24 3.66699 42 11z" />
    <glyph glyph-name="tilde" unicode="&#x2dc;" horiz-adv-x="557" 
d="M139 624l-99 49c20 41.333 42 71.833 66 91.5s53 29.5 87 29.5c22.667 0 47.667 -7.33301 75 -22c28 -14 47.333 -21 58 -21c11.333 0 21.333 3.66699 30 11s18.334 20 29.001 38l99 -47c-32 -81.333 -79.333 -122 -142 -122c-21.333 0 -46.333 7.33301 -75 22
s-49.334 22 -62.001 22c-24.667 0 -46.667 -17 -66 -51z" />
    <glyph glyph-name="hungarumlaut" unicode="&#x2dd;" horiz-adv-x="553" 
d="M173 620h-129l43 179h163zM383 620h-134l62 179h168z" />
    <glyph glyph-name="uni0394" unicode="&#x394;" horiz-adv-x="759" 
d="M741 0h-723v113l312 626h101l310 -626v-113zM379 524l-170 -367h341z" />
    <glyph glyph-name="uni03A9" unicode="&#x3a9;" horiz-adv-x="862" 
d="M390 0h-342.001v145h139c-38 25.333 -69 60.5 -93 105.5s-36 95.167 -36 150.5c0 99.333 35.667 182.666 107 249.999c72.667 67.333 161.334 101 266.001 101c105.333 0 193.666 -33.667 264.999 -101c72 -67.333 108 -150.666 108 -249.999
c0 -55.333 -12 -105.5 -36 -150.5s-55 -80.167 -93 -105.5h139v-145h-342v151c48.667 17.333 87.334 46.166 116.001 86.499s43 86.166 43 137.499c0 61.333 -19.333 111 -58 149c-38 38 -85.333 57 -142 57s-104.334 -19.333 -143.001 -58c-38 -38 -57 -87.333 -57 -148
c0 -51.333 14.333 -97.166 43 -137.499s67.334 -69.166 116.001 -86.499v-151z" />
    <glyph glyph-name="uni03BC" unicode="&#x3bc;" horiz-adv-x="664" 
d="M447 283v252h157v-535h-151v74c-28.667 -56.667 -72.667 -85 -132 -85c-48.667 0 -85 20 -109 60v-267h-152v753h157v-275c0 -41.333 9.5 -73 28.5 -95s45.5 -33 79.5 -33c36.667 0 66.167 13.167 88.5 39.5s33.5 63.5 33.5 111.5z" />
    <glyph glyph-name="pi" unicode="&#x3c0;" horiz-adv-x="638" 
d="M259 0h-157v397h-71v138h576v-138h-70v-397h-159v397h-119v-397z" />
    <glyph glyph-name="uni0401" unicode="&#x401;" horiz-adv-x="647" 
d="M134 884c0 24.667 8.83398 45.667 26.501 63s39.167 26 64.5 26s46.666 -8.5 63.999 -25.5s26 -38.167 26 -63.5c0 -26 -8.5 -47.5 -25.5 -64.5s-38.5 -25.5 -64.5 -25.5s-47.667 8.5 -65 25.5s-26 38.5 -26 64.5zM452.001 794c-26 0 -47.667 8.5 -65 25.5
s-26 38.5 -26 64.5c0 24.667 8.83301 45.667 26.5 63s39.167 26 64.5 26s46.666 -8.66699 63.999 -26s26 -38.333 26 -63c0 -26 -8.66699 -47.5 -26 -64.5s-38.666 -25.5 -63.999 -25.5zM593.001 0h-515v739h516v-154h-350v-137h324v-153h-324v-141h349v-154z" />
    <glyph glyph-name="uni0410" unicode="&#x410;" horiz-adv-x="704" 
d="M697 0h-172l-49 149h-248l-51 -149h-172l277 739h144zM432 294l-79 234l-80 -234h159z" />
    <glyph glyph-name="uni0411" unicode="&#x411;" horiz-adv-x="673" 
d="M241 468h137c40.667 0 77.167 -5.33301 109.5 -16s58 -24.167 77 -40.5s34.667 -35.333 47 -57s20.666 -42.5 24.999 -62.5s6.5 -40.333 6.5 -61c0 -66.667 -22.667 -122 -68 -166c-45.333 -43.333 -106.666 -65 -183.999 -65h-313v739h491v-142h-328v-129zM241 143
l122 0.000976562c46 -2 78.5 12.667 97.5 44s19.5 62.666 1.5 93.999s-48.667 46 -92 44h-129v-182z" />
    <glyph glyph-name="uni0412" unicode="&#x412;" horiz-adv-x="699" 
d="M522 405c45.333 -11.333 80.167 -33.834 104.5 -67.501s36.5 -74.167 36.5 -121.5c0 -61.333 -21.667 -112.666 -65 -153.999s-100.333 -62 -171 -62h-349v739h332c68.667 0 121.334 -18.333 158.001 -55c37.333 -36 56 -78.667 56 -128c0 -33.333 -9.33301 -64 -28 -92
s-43.334 -47.667 -74.001 -59zM381.001 596.999h-140v-145h133c26.667 0 47.667 7 63 21s23 31.667 23 53c0 20 -7.16699 36.833 -21.5 50.5s-33.5 20.5 -57.5 20.5zM241.001 142.999h151c31.333 0 55.833 8.33301 73.5 25s26.5 37.334 26.5 62.001
c0 25.333 -8.5 46.166 -25.5 62.499s-40.833 24.5 -71.5 24.5h-154v-174z" />
    <glyph glyph-name="uni0413" unicode="&#x413;" horiz-adv-x="560" 
d="M241 0h-163v739h471v-147h-308v-592z" />
    <glyph glyph-name="uni0414" unicode="&#x414;" horiz-adv-x="811" 
d="M492 739l204 -590h85v-299h-159v150h-433v-150h-159v299h83l208 590h171zM406 544l-126 -395h248z" />
    <glyph glyph-name="uni0415" unicode="&#x415;" horiz-adv-x="647" 
d="M593 0h-515v739h516v-154h-350v-137h324v-153h-324v-141h349v-154z" />
    <glyph glyph-name="uni0416" unicode="&#x416;" horiz-adv-x="1048" 
d="M1017 142l8.00195 -137c-24 -10.667 -52.667 -16 -86 -16c-28 0 -57.333 6 -88 18c-18.667 10 -39 26.667 -61 50c-17.333 22.667 -32 46.667 -44 72l-21 41l-21 41c-16.667 31.333 -30.667 52.833 -42 64.5s-24.333 17.5 -39 17.5h-16v-294h-166v294h-16
c-14.667 0 -27.667 -5.83301 -39 -17.5s-25.333 -33.167 -42 -64.5l-21 -41l-21 -41c-14 -30 -29 -54 -45 -72c-18.667 -22.667 -39 -39.334 -61 -50.001c-28 -12 -57 -18 -87 -18c-33.333 0 -62 5.33301 -86 16l8 137c17.333 -5.33301 35.666 -8 54.999 -8
c22.667 0 40.334 8.33301 53.001 25c13.333 16.667 40.666 61 81.999 133l20 34c17.333 26.667 28.666 42.667 33.999 48c-18 16 -32.333 34.667 -43 56c-16 31.333 -26.333 53 -31 65l-26 48c-4.66699 8.66699 -12 19 -22 31c-14 19.333 -33.667 29 -59 29
c-12.667 0 -26.667 -1.33301 -42 -4l-9 130c23.333 14 50.333 21 81 21c48.667 0 86 -14 112 -42c26.667 -27.333 55.334 -75.333 86.001 -144c0.666992 -2 2.5 -6 5.5 -12s5.5 -11.333 7.5 -16c19.333 -42.667 33.333 -68.667 42 -78c9.33301 -9.33301 26.333 -14 51 -14
h13v294h166v-294h13c24 0 40.667 4.66699 50 14c10 10 24.333 36 43 78c2.66699 4 7 13.333 13 28c30.667 68.667 59.334 116.667 86.001 144c26 28 63.333 42 112 42c30.667 0 57.667 -7 81 -21l-10 -130c-14 2.66699 -27.667 4 -41 4c-24.667 0 -44.667 -9.66699 -60 -29
c-8 -9.33301 -15 -19.666 -21 -30.999l-26 -48l-12 -24l-14 -28c-16 -30.667 -31.667 -53.667 -47 -69c5.33301 -6 16.333 -22 33 -48c54 -94.667 86.333 -148.667 97 -162c17.333 -20 36.666 -30 57.999 -30c19.333 0 37.666 2.66699 54.999 8z" />
    <glyph glyph-name="uni0417" unicode="&#x417;" horiz-adv-x="621" 
d="M279 -12c-92 0 -179.666 24.667 -262.999 74l61 133c71.333 -38 140.333 -57 207 -57c38.667 0 69.167 7.5 91.5 22.5s33.5 34.833 33.5 59.5c0 23.333 -9.83301 42 -29.5 56s-46.834 21 -81.501 21h-130v145h92c38 0 68.333 7.66699 91 23s34.334 35.333 35.001 60
c0 22.667 -9.5 40.834 -28.5 54.501s-43.833 20.5 -74.5 20.5c-54.667 0 -113.334 -18.667 -176.001 -56l-74 118c33.333 28 74.333 50 123 66s98 24 148 24c77.333 0 138.333 -19.333 183 -58c46 -38 69 -83.333 69 -136c0 -34 -9.83301 -64.333 -29.5 -91
s-47.5 -47.334 -83.5 -62.001l-1 -4c44 -12 78.333 -34.167 103 -66.5s37 -70.5 37 -114.5c0 -64.667 -26.667 -119.667 -80 -165c-52.667 -44.667 -127 -67 -223 -67z" />
    <glyph glyph-name="uni0418" unicode="&#x418;" horiz-adv-x="786" 
d="M182 0h-104v739h163v-462l361 462h106v-739h-163v457z" />
    <glyph glyph-name="uni0419" unicode="&#x419;" horiz-adv-x="786" 
d="M187 891l82 85c25.333 -31.333 49 -53.333 71 -66s46.333 -19 73 -19s51 6.33301 73 19s45.667 34.667 71 66l83 -85c-65.333 -79.333 -141.333 -119 -228 -119s-161.667 39.667 -225 119zM182 0h-104v739h163v-462l361 462h106v-739h-163v457z" />
    <glyph glyph-name="uni041A" unicode="&#x41a;" horiz-adv-x="706" 
d="M719 0h-203l-186 281l-87 -105v-176h-165v739h165v-330l259 330h200l-264 -332z" />
    <glyph glyph-name="uni041B" unicode="&#x41b;" horiz-adv-x="700" 
d="M185 0h-179l261 739h171l256 -739h-180l-162 522z" />
    <glyph glyph-name="uni041C" unicode="&#x41c;" horiz-adv-x="946" 
d="M241 0h-163v739h116l279 -402l277 402h118v-739h-165v391l-201 -287h-60l-201 287v-391z" />
    <glyph glyph-name="uni041D" unicode="&#x41d;" horiz-adv-x="775" 
d="M243 0h-165v739h165v-289h288v289h166v-739h-166v291h-288v-291z" />
    <glyph glyph-name="uni041E" unicode="&#x41e;" 
d="M37 368c0 107.333 36.999 198 110.999 272c74.667 74.667 166.334 112 275.001 112s200 -37.333 274 -112c74.667 -74 112 -164.333 112 -271s-37 -197 -111 -271c-74.667 -73.333 -166.667 -110 -276 -110c-110 0 -201.667 36.667 -275 110s-110 163.333 -110 270z
M422.999 151c60.667 0 111.668 20.667 153.001 62c41.333 42.667 61.666 94.667 60.999 156c-1.33301 64 -22.333 116.333 -63 157c-41.333 42 -91.666 63 -150.999 63c-60.667 0 -111.334 -21 -152.001 -63c-41.333 -42.667 -62 -95 -62 -157
c0 -61.333 20.667 -113.333 62 -156c41.333 -41.333 92 -62 152 -62z" />
    <glyph glyph-name="uni041F" unicode="&#x41f;" horiz-adv-x="775" 
d="M243 0h-165v739h619v-739h-166v580h-288v-580z" />
    <glyph glyph-name="uni0420" unicode="&#x420;" horiz-adv-x="650" 
d="M78 739l283 -0.000976562c90 0 157 -24 201 -72c44.667 -47.333 67 -106.666 67 -177.999c0 -70.667 -23 -129 -69 -175s-116.333 -69 -211 -69h-106v-245h-165v739zM243 393.999l111.999 0.000976562c32.667 0 58.334 9.16699 77.001 27.5s28 41.5 28 69.5
c0 27.333 -9 50.166 -27 68.499s-41.667 27.5 -71 27.5h-119v-193z" />
    <glyph glyph-name="uni0421" unicode="&#x421;" horiz-adv-x="761" 
d="M418 -11c-108 0 -198.333 35 -271 105c-72.667 70.667 -109 161.667 -109 273c0 112 37 204 111 276c74.667 72.667 165 109 271 109c65.333 0 126 -13.5 182 -40.5s101 -63.5 135 -109.5l-108 -110c-56 67.333 -122.667 101 -200 101
c-61.333 0 -113.333 -21.333 -156 -64s-64 -96.334 -64 -161.001c0 -63.333 21 -116 63 -158s94 -63 156 -63c80 0 148.333 34 205 102l111 -104c-34.667 -47.333 -81 -85.166 -139 -113.499s-120.333 -42.5 -187 -42.5z" />
    <glyph glyph-name="uni0422" unicode="&#x422;" horiz-adv-x="611" 
d="M223 0v580h-209v159h583v-159h-208v-580h-166z" />
    <glyph glyph-name="uni0423" unicode="&#x423;" horiz-adv-x="640" 
d="M147 -11c-38 0 -71.666 7.66602 -100.999 22.999l12 133c19.333 -8.66699 40.333 -13 63 -13c53.333 0 98 37 134 111l-233 496h194l127 -314l114 314h192l-78 -177c-70.667 -163.333 -119 -271.666 -145 -324.999c-16 -33.333 -28.333 -57.666 -37 -72.999
c-8.66699 -17.333 -22.334 -39 -41.001 -65c-16.667 -24.667 -34 -44.334 -52 -59.001c-44 -34 -93.667 -51 -149 -51z" />
    <glyph glyph-name="uni0424" unicode="&#x424;" horiz-adv-x="955" 
d="M922 370c0 -98.667 -33 -180.666 -99 -245.999s-153.333 -102.666 -262 -111.999v-92h-166v92c-110 9.33301 -197.667 46.666 -263 111.999c-65.333 66.667 -98 148.667 -98 246c0 100 33 182.333 99 247c66.667 65.333 154 102.666 262 111.999v90h166v-90
c107.333 -8.66699 194.333 -46 261 -112c66.667 -64.667 100 -147 100 -247zM200 368.001c0 -60 17.5 -109.167 52.5 -147.5s82.5 -59.833 142.5 -64.5v426c-60 -6.66699 -107.5 -29 -142.5 -67s-52.5 -87 -52.5 -147zM561 582.001v-426c60 5.33301 107.5 27 142.5 65
s52.5 87 52.5 147s-17.5 109 -52.5 147s-82.5 60.333 -142.5 67z" />
    <glyph glyph-name="uni0425" unicode="&#x425;" horiz-adv-x="684" 
d="M196 0h-193l233 373l-216 366h191l132 -241l140 241h193l-229 -366l227 -373h-191l-142 248z" />
    <glyph glyph-name="uni0426" unicode="&#x426;" horiz-adv-x="762" 
d="M723 -150h-165v150h-480v739h166v-580h233v580h167v-580h79v-309z" />
    <glyph glyph-name="uni0427" unicode="&#x427;" horiz-adv-x="704" 
d="M459 384l0.000976562 355h167v-739h-167v228c-52 -17.333 -99 -26 -141 -26c-182 0 -273 90 -273 270v267h166v-243c0 -47.333 9.66699 -81.5 29 -102.5s49.666 -31.5 90.999 -31.5c43.333 0 86 7.33301 128 22z" />
    <glyph glyph-name="uni0428" unicode="&#x428;" horiz-adv-x="1101" 
d="M1023 0h-945v739h166v-580h223v580h167v-580h223v580h166v-739z" />
    <glyph glyph-name="uni0429" unicode="&#x429;" horiz-adv-x="1142" 
d="M1102 -150h-165v150h-859v739h166v-580h223v580h167v-580h223v580h166v-580h79v-309z" />
    <glyph glyph-name="uni042A" unicode="&#x42a;" horiz-adv-x="762" 
d="M464 517c81.333 0 147.333 -23.333 198 -70c51.333 -46 77 -110 77 -192c0 -70.667 -23 -131 -69 -181c-45.333 -49.333 -112.333 -74 -201 -74h-295v597h-160v142h322v-243c41.333 14 84 21 128 21zM336 148l102.999 0.000976562c42.667 0 74.834 9.66699 96.501 29
s32.5 46.666 32.5 81.999c0 73.333 -42 110 -126 110c-32.667 0 -68 -6 -106 -18v-203z" />
    <glyph glyph-name="uni042B" unicode="&#x42b;" horiz-adv-x="976" 
d="M244 492h134.001c49.333 0 92.5 -7.66699 129.5 -23s64.833 -36.333 83.5 -63c36.667 -48 55 -101.667 55 -161c0 -70 -22.667 -128.667 -68 -176c-44.667 -46 -106.334 -69 -185.001 -69h-312v739h163v-247zM732.001 0v739h166v-739h-166zM244.001 145
l121.001 -0.000976562c35.333 0 62.666 9.33301 81.999 28s29 43.334 29 74.001c0 30 -9.5 54.333 -28.5 73s-45.5 28 -79.5 28h-124v-203z" />
    <glyph glyph-name="uni042C" unicode="&#x42c;" horiz-adv-x="667" 
d="M369 517c81.333 0 147.333 -23.333 198 -70c51.333 -46 77 -110 77 -192c0 -70.667 -23 -131 -69 -181c-45.333 -49.333 -112.333 -74 -201 -74h-296v739h163v-242c43.333 13.333 86 20 128 20zM241 148l102 0.000976562c43.333 0 75.833 9.66699 97.5 29
s32.5 46.666 32.5 81.999c0 73.333 -42 110 -126 110c-32.667 0 -68 -6 -106 -18v-203z" />
    <glyph glyph-name="uni042D" unicode="&#x42d;" horiz-adv-x="765" 
d="M345 752c106.667 0 196.667 -36.333 270 -109c74.667 -72 112 -164 112 -276c0 -111.333 -36.333 -202.333 -109 -273c-73.333 -70 -163.666 -105 -270.999 -105c-66.667 0 -129 14.167 -187 42.5s-104.333 66.166 -139 113.499l111 104
c57.333 -68 125.666 -102 204.999 -102c48.667 0 91.667 13.333 129 40s63.333 62.334 78 107.001h-309v146h310c-14 46 -40.167 83 -78.5 111s-81.833 42 -130.5 42c-77.333 0 -144 -33.667 -200 -101l-108 110c34 46 79 82.5 135 109.5s116.667 40.5 182 40.5z" />
    <glyph glyph-name="uni042E" unicode="&#x42e;" horiz-adv-x="1137" 
d="M714 752c108.667 0 200 -37.333 274 -112c74.667 -74 112 -164.333 112 -271s-37 -197 -111 -271c-74.667 -73.333 -166.667 -110 -276 -110c-95.333 0 -177.333 28 -246 84c-69.333 56 -113 127.667 -131 215h-92v-287h-166v739h166v-293h92
c18 88.667 61.667 161.667 131 219c70 58 152.333 87 247 87zM714 151c60.667 0 111.667 20.667 153 62c41.333 42.667 61.666 94.667 60.999 156c-1.33301 64 -22.333 116.333 -63 157c-41.333 42 -91.666 63 -150.999 63c-60 0 -110.667 -21 -152 -63
c-41.333 -42.667 -62 -95 -62 -157c0 -61.333 20.667 -113.333 62 -156c41.333 -41.333 92 -62 152 -62z" />
    <glyph glyph-name="uni042F" unicode="&#x42f;" horiz-adv-x="688" 
d="M342 739l268 0.000976562v-739h-163v246c-27.333 -5.33301 -60 -8.33301 -98 -9l-138 -237h-187l165 264c-88.667 40 -133 114.667 -133 224c0 73.333 24 133.666 72 180.999c48.667 46.667 120 70 214 70zM353 380.001c31.333 0 62.667 3 94 9v200h-96
c-84 0 -126 -34.333 -126 -103c0 -70.667 42.667 -106 128 -106z" />
    <glyph glyph-name="uni0430" unicode="&#x430;" horiz-adv-x="683" 
d="M472 490l0.000976562 58.001h148v-548h-148v56c-46.667 -46.667 -103 -70 -169 -70c-78 0 -142.667 27.667 -194 83c-50.667 55.333 -76 124.666 -76 207.999c0 81.333 25.667 149.333 77 204c51.333 54 115.666 81 192.999 81c66 0 122.333 -24 169 -72z
M190.001 275.001c0 -40.667 12.999 -75.332 38.999 -103.999c27.333 -28 61 -42 101 -42c40.667 0 74.334 14.333 101.001 43c27.333 29.333 41 63.666 41 102.999s-13.667 73.333 -41 102c-27.333 28 -61 42 -101 42s-73.667 -14 -101 -42c-26 -28 -39 -62 -39 -102z" />
    <glyph glyph-name="uni0431" unicode="&#x431;" horiz-adv-x="693" 
d="M388 540c72 0 135.331 -24.668 189.998 -74.001c54.667 -48.667 82 -114.667 82 -198c0 -80.667 -27.333 -148 -82 -202c-54 -54 -126.667 -81 -218 -81c-56 0 -105.5 11.167 -148.5 33.5s-76.833 53.166 -101.5 92.499c-47.333 76 -71 166.333 -71 271
c0 104 22 187.5 66 250.5s104.667 103.833 182 122.5c22 5.33301 45 10 69 14c4.66699 0.666992 26.667 5 66 13c44 12 89.667 36 137 72l59 -124c-27.333 -27.333 -57.333 -47.666 -90 -60.999c-30 -11.333 -83 -24.666 -159 -39.999c-44 -8.66699 -79.333 -21 -106 -37
c-47.333 -26.667 -74.666 -82 -81.999 -166c20 36 48.333 64 85 84s77.334 30 122.001 30zM360.998 125.999c38.667 0 71.667 13.667 99 41c26.667 26.667 40 59.667 40 99c0 38.667 -13.333 71.334 -40 98.001c-26 26.667 -58.333 40 -97 40c-39.333 0 -72.333 -13 -99 -39
c-26.667 -24.667 -40 -57.334 -40 -98.001c0 -38 12.667 -71.333 38 -100c26 -27.333 59 -41 99 -41z" />
    <glyph glyph-name="uni0432" unicode="&#x432;" horiz-adv-x="654" 
d="M485 426c43.333 -12 76.832 -35.8301 100.499 -71.4971s35.5 -78.834 35.5 -129.501c0 -64.667 -25.333 -120.334 -76 -167.001c-50.667 -47.333 -119 -71 -205 -71c-59.333 0 -110.666 11 -153.999 33c-90.667 46 -136 135.333 -136 268v184
c0 103.333 26.667 180.666 80 231.999c53.333 50.667 122 76 206 76c75.333 0 135.333 -18.333 180 -55c46 -36.667 69 -85.667 69 -147c0 -34 -9.16699 -65 -27.5 -93s-42.5 -47.667 -72.5 -59zM333.999 636.003c-42 0 -73.667 -16.667 -95 -50
c-20.667 -32.667 -31 -71 -31 -115v-6h109c38 0 66.167 8.16699 84.5 24.5s27.5 37.833 27.5 64.5c0 25.333 -8.66699 45.333 -26 60s-40.333 22 -69 22zM341.999 130.003c36.667 0 65.667 9.66895 87 29.002s32 43.666 32 72.999c0 66 -39.667 99 -119 99h-134v-42
c0 -50.667 11.333 -89.834 34 -117.501s56 -41.5 100 -41.5z" />
    <glyph glyph-name="uni0433" unicode="&#x433;" horiz-adv-x="514" 
d="M251 -13c-70 0 -124.167 13.832 -162.5 41.499s-57.5 65.167 -57.5 112.5c0 36.667 9.16699 68 27.5 94s40.333 45.5 66 58.5s51.5 24.167 77.5 33.5s48.167 19.166 66.5 29.499s27.5 22.166 27.5 35.499c0 28 -22 42 -66 42c-40.667 0 -89 -10.667 -145 -32l-37 116
c70 29.333 140.667 44 212 44c64 0 115 -13.167 153 -39.5s57 -62.166 57 -107.499c0 -32.667 -8.66699 -61.167 -26 -85.5s-39.666 -43.166 -66.999 -56.499c-11.333 -5.33301 -26.5 -11.833 -45.5 -19.5l-47 -19.5c-12.333 -5.33301 -24.833 -11.5 -37.5 -18.5
s-22.334 -14.667 -29.001 -23s-10 -17.166 -10 -26.499c0 -32 27 -48 81 -48c52 0 107 14 165 42l33 -122c-78 -34 -156.667 -51 -236 -51z" />
    <glyph glyph-name="uni0434" unicode="&#x434;" horiz-adv-x="677" 
d="M475 494l0.00195312 54.001h143v-474c0 -99.333 -27.667 -175.333 -83 -228s-133.333 -79 -234 -79c-64.667 0 -140 13.667 -226 41l33 127c62 -22.667 124.667 -34 188 -34c57.333 0 100.333 12.167 129 36.5s43 59.166 43 104.499v21
c-40.667 -42.667 -94.667 -64 -162 -64c-80.667 -0.666992 -146.334 25.333 -197.001 78s-76 120 -76 202c0 82.667 26.667 150.667 80 204c52.667 52.667 119 79 199 79c65.333 0 119.666 -22.667 162.999 -68zM470.002 278.001c0 40.667 -13.166 74.167 -39.499 100.5
s-59.5 39.5 -99.5 39.5s-73.333 -13.333 -100 -40c-26.667 -26 -40 -59.333 -40 -100c0 -41.333 13.333 -75.333 40 -102c27.333 -27.333 60.666 -41 99.999 -41c40 0 73 13.333 99 40c26.667 26.667 40 61 40 103z" />
    <glyph glyph-name="uni0435" unicode="&#x435;" horiz-adv-x="632" 
d="M600 287c0 -16 -1.66895 -38 -5.00195 -66h-403c18.667 -68.667 68.334 -103 149.001 -103c61.333 0 118.333 17.667 171 53l62 -107c-66.667 -50.667 -146.667 -76 -240 -76c-96.667 0 -171 27.667 -223 83c-51.333 55.333 -77 123.333 -77 204
c0 82 26.667 150.333 80 205c52.667 54.667 122.334 82 209.001 82c80 0 146.333 -24.667 199 -74c52 -49.333 78 -116.333 78 -201zM322.998 435c-32 0 -59.833 -9 -83.5 -27s-39.834 -43 -48.501 -75h258c-7.33301 32 -22.166 57 -44.499 75s-49.5 27 -81.5 27z" />
    <glyph glyph-name="uni0436" unicode="&#x436;" horiz-adv-x="904" 
d="M874 124l6 -119.999c-23.333 -8.66699 -49 -13 -77 -13c-50.667 -0.666992 -94.334 16 -131.001 50c-12.667 14 -24.334 30 -35.001 48l-28 51c-12 22.667 -22.833 38.334 -32.5 47.001s-21.167 13 -34.5 13h-13v-201h-154v201h-13c-13.333 0 -24.833 -4.33301 -34.5 -13
s-20.834 -24.334 -33.501 -47.001l-16 -28c-9.33301 -16.667 -21.333 -35.667 -36 -57c-12 -16.667 -30 -31.667 -54 -45c-22.667 -12.667 -51.667 -19 -87 -19c-28 0 -54 4.33301 -78 13l7 120c14.667 -4 28.667 -6 42 -6c18.667 0 35 7.33301 49 22s39 49.667 75 105
l21 30c-14 11.333 -30.333 35 -49 71l-26 46c-15.333 24 -35.333 36 -60 36c-10 0 -21.667 -0.666992 -35 -2l-7 113c20.667 11.333 44.667 17 72 17c40.667 0 73 -9 97 -27s45.333 -47.333 64 -88l12 -27l21 -40c4 -6.66699 11.667 -14.334 23 -23.001
c8.66699 -5.33301 20.334 -8 35.001 -8h11v205h154v-205h11c16 0 31.333 5.33301 46 16c5.33301 4 12.333 14.667 21 32c12.667 25.333 20.667 42 24 50c18.667 40.667 40 70 64 88s56.333 27 97 27c27.333 0 51.333 -5.66699 72 -17l-7 -113
c-14.667 1.33301 -26.667 2 -36 2c-13.333 0 -25.666 -4 -36.999 -12c-6.66699 -4.66699 -12.5 -10.167 -17.5 -16.5s-8.83301 -12 -11.5 -17l-20 -36.5c-18.667 -36 -34.667 -59.667 -48 -71l21 -30c34.667 -54 59.334 -88.667 74.001 -104c14 -15.333 30.667 -23 50 -23
c12 0 26 2 42 6z" />
    <glyph glyph-name="uni0437" unicode="&#x437;" horiz-adv-x="561" 
d="M259 -231c-92.667 0 -177.663 27.002 -254.996 81.002l53 122c64.667 -41.333 123.667 -62 177 -62c41.333 0 73.666 9.16699 96.999 27.5s35 42.833 35 73.5c0 29.333 -10.833 52.166 -32.5 68.499s-50.834 24.5 -87.501 24.5h-101v133h69c42.667 0 75 8.66699 97 26
s33 40.333 33 69c0 27.333 -9.83301 48.833 -29.5 64.5s-44.834 23.5 -75.501 23.5c-48.667 0 -101.334 -20.333 -158.001 -61l-68 111c28.667 26.667 66 48.667 112 66c46.667 17.333 93 26 139 26c71.333 0 130 -20 176 -60c46 -39.333 69 -87 69 -143
c0 -34.667 -9.66699 -66.5 -29 -95.5s-46.666 -51.167 -81.999 -66.5v-4c41.333 -12 74 -35 98 -69s36 -74 36 -120c0 -66.667 -24.333 -122.334 -73 -167.001c-48.667 -45.333 -115.334 -68 -200.001 -68z" />
    <glyph glyph-name="uni0438" unicode="&#x438;" horiz-adv-x="658" 
d="M442 548h156.002v-548h-151v78c-14.667 -26.667 -38.834 -48.667 -72.501 -66s-70.834 -26 -111.501 -26c-60 0 -109.667 19.333 -149 58c-40 38.667 -60 97.667 -60 177v327h157v-301c0 -37.333 9 -66.166 27 -86.499s43.667 -30.5 77 -30.5
c38.667 0 69.5 12.167 92.5 36.5s34.5 57.166 34.5 98.499v283z" />
    <glyph glyph-name="uni0439" unicode="&#x439;" horiz-adv-x="658" 
d="M329 583c-77.333 0 -144.668 35.667 -202.001 107l74 77c22.667 -28.667 43.834 -48.667 63.501 -60s41.5 -17 65.5 -17s45.833 5.66699 65.5 17s41.167 31.333 64.5 60l75 -77c-59.333 -71.333 -128 -107 -206 -107zM441.998 548h156.002v-548h-151v78
c-14.667 -26.667 -38.834 -48.667 -72.501 -66s-70.834 -26 -111.501 -26c-60 0 -109.667 19.333 -149 58c-40 38.667 -60 97.667 -60 177v327h157v-301c0 -37.333 9 -66.166 27 -86.499s43.667 -30.5 77 -30.5c38.667 0 69.5 12.167 92.5 36.5s34.5 57.166 34.5 98.499v283
z" />
    <glyph glyph-name="uni043A" unicode="&#x43a;" horiz-adv-x="597" 
d="M611 0h-190l-173 227l-31 -29v-198h-157v761h157v-388l184 175h194l-240 -223z" />
    <glyph glyph-name="uni043B" unicode="&#x43b;" horiz-adv-x="623" 
d="M181 0h-174l224 548h167l218 -548h-174l-128 366z" />
    <glyph glyph-name="uni043C" unicode="&#x43c;" horiz-adv-x="786" 
d="M212 0h-152v548h116l217 -275l216 275h116v-548h-151v270l-153 -186h-57l-152 186v-270z" />
    <glyph glyph-name="uni043D" unicode="&#x43d;" horiz-adv-x="636" 
d="M420 344v204h155v-548h-155v203h-204v-203h-156v548h156v-204h204z" />
    <glyph glyph-name="uni043E" unicode="&#x43e;" horiz-adv-x="657" 
d="M328 -15c-86.667 0 -157.667 27.667 -213 83c-54.667 55.333 -82 124 -82 206s27.333 150.333 82 205c55.333 56 126.333 84 213 84c87.333 0 158.666 -28 213.999 -84c55.333 -55.333 83 -123.666 83 -204.999c0 -80.667 -27.667 -149.334 -83 -206.001
c-55.333 -55.333 -126.666 -83 -213.999 -83zM468 275c0 39.333 -13.667 72.666 -41 99.999c-27.333 28 -60.333 42 -99 42s-71.667 -14 -99 -42c-26.667 -26.667 -40 -60 -40 -100c0 -41.333 13.333 -75.666 40 -102.999c27.333 -27.333 60.333 -41 99 -41
s71.667 13.667 99 41c27.333 28.667 41 63 41 103z" />
    <glyph glyph-name="uni043F" unicode="&#x43f;" horiz-adv-x="652" 
d="M217 0h-156.999v548h153v-76c14.667 26.667 37.5 48.5 68.5 65.5s65.833 25.5 104.5 25.5c59.333 0 109.666 -19.667 150.999 -59s62 -95.666 62 -168.999v-335h-157v294c0 39.333 -9.66699 70 -29 92s-45.333 33 -78 33c-35.333 0 -63.833 -11.833 -85.5 -35.5
s-32.5 -54.834 -32.5 -93.501v-290z" />
    <glyph glyph-name="uni0440" unicode="&#x440;" horiz-adv-x="684" 
d="M382 562c77.333 0 141.666 -27.999 192.999 -83.999c50.667 -54.667 76 -122.334 76 -203.001c0 -80 -25.667 -148.333 -77 -205c-50.667 -56 -114.667 -84 -192 -84c-65.333 0 -120.333 23.333 -165 70v-282h-157v774h155v-61c44.667 50 100.334 75 167.001 75z
M492 274.001c0 40 -13 73.667 -39 101c-26 28 -59.333 42 -100 42c-40 0 -73 -14 -99 -42c-26 -27.333 -39 -61 -39 -101c0 -40.667 13 -74.834 39 -102.501s59 -41.5 99 -41.5s73.167 13.833 99.5 41.5s39.5 61.834 39.5 102.501z" />
    <glyph glyph-name="uni0441" unicode="&#x441;" horiz-adv-x="605" 
d="M324 -12c-85.333 0 -155.333 26.666 -210 79.999c-54 54 -81 123 -81 207c0 84.667 27.333 153.334 82 206.001c54.667 54 125.334 81 212.001 81c57.333 0 109.166 -13.667 155.499 -41s80.5 -65.666 102.5 -114.999l-125 -67c-32 52 -75.333 78 -130 78
c-40 0 -73.667 -13.667 -101 -41c-26.667 -26.667 -40 -60.334 -40 -101.001c0 -42 13 -76.333 39 -103c26.667 -26.667 60 -40 100 -40c27.333 0 52.833 7.16699 76.5 21.5s41.167 32.833 52.5 55.5l127 -75c-24 -44.667 -59.167 -80.167 -105.5 -106.5
s-97.833 -39.5 -154.5 -39.5z" />
    <glyph glyph-name="uni0442" unicode="&#x442;" horiz-adv-x="1012" 
d="M733 563c64.667 0 118.334 -19.998 161.001 -59.998s64 -96.667 64 -170v-333h-157v303c0 37.333 -9.16699 66 -27.5 86s-42.833 30 -73.5 30c-33.333 0 -60.333 -11 -81 -33s-31 -51.333 -31 -88v-298h-157v302c0 36 -9.5 64.5 -28.5 85.5s-43.833 31.5 -74.5 31.5
c-32.667 0 -59.334 -11 -80.001 -33s-31 -51.667 -31 -89v-297h-157v548h153v-78c15.333 29.333 38.333 52.333 69 69s64 24.667 100 24c34.667 0 66 -7.83301 94 -23.5s49 -38.834 63 -69.501c20 29.333 47.333 52.166 82 68.499s72 24.5 112 24.5z" />
    <glyph glyph-name="uni0443" unicode="&#x443;" horiz-adv-x="614" 
d="M318 209l118 339h170l-217 -563c-28.667 -74 -62.667 -128.833 -102 -164.5s-87.666 -53.5 -144.999 -53.5c-44.667 0 -81.667 9.66699 -111 29l29 130c23.333 -12.667 47 -19 71 -19c43.333 0 78.666 28 105.999 84l7 16l-239 541h181z" />
    <glyph glyph-name="uni0444" unicode="&#x444;" horiz-adv-x="862" 
d="M829 274c0 -87.333 -29 -155.667 -87 -205c-58 -48.667 -136.667 -75.667 -236 -81v-216h-149v216c-98 4.66699 -176.667 31.667 -236 81c-58.667 50 -88 118.667 -88 206c0 86 29 154.667 87 206c58.667 51.333 137.667 78.333 237 81v199h149v-199
c98.667 -2.66699 177 -29.667 235 -81c58.667 -50 88 -119 88 -207zM357 120.999v306.001c-55.333 -2 -97.5 -16.333 -126.5 -43s-43.5 -63.334 -43.5 -110.001s15 -83.667 45 -111s71.667 -41.333 125 -42zM506 427v-306.002c53.333 0.666992 95 14.834 125 42.501
s45 64.834 45 111.501s-14.5 83.167 -43.5 109.5s-71.167 40.5 -126.5 42.5z" />
    <glyph glyph-name="uni0445" unicode="&#x445;" horiz-adv-x="570" 
d="M388 275l172 -275h-181l-95 171l-101 -171h-179l177 278l-157 270h179l84 -160l92 160h176z" />
    <glyph glyph-name="uni0446" unicode="&#x446;" horiz-adv-x="736" 
d="M599 548l-0.00195312 -360c-1.33301 -34 7.83398 -56.833 27.501 -68.5s53.834 -17.5 102.501 -17.5v-282h-136v170c-36 0 -66 9.83301 -90 29.5s-38 47.167 -42 82.5c-13.333 -34 -38.333 -61.833 -75 -83.5s-77.667 -32.5 -123 -32.5c-60 0 -109.667 19.333 -149 58
c-40 38.667 -60 97.667 -60 177v327h157v-301c0 -37.333 9 -66.166 27 -86.499s43.667 -30.5 77 -30.5c38.667 0 69.5 12.167 92.5 36.5s34.5 57.166 34.5 98.499v283h157z" />
    <glyph glyph-name="uni0447" unicode="&#x447;" horiz-adv-x="596" 
d="M380 297l-0.000976562 251h156v-548h-156v158c-41.333 -10 -80 -15 -116 -15c-63.333 0 -115.666 13.333 -156.999 40c-46.667 32.667 -70 92 -70 178v187h156v-176c0 -57.333 30.333 -86 91 -86c32.667 0 64.667 3.66699 96 11z" />
    <glyph glyph-name="uni0448" unicode="&#x448;" horiz-adv-x="983" 
d="M765 256l-0.00292969 292.001h158v-548h-149v78c-12.667 -24.667 -35 -46.334 -67 -65.001c-31.333 -18 -65 -27 -101 -27c-33.333 0 -63.666 7.66699 -90.999 23s-48 37.333 -62 66c-18.667 -29.333 -44.167 -51.5 -76.5 -66.5s-67.5 -22.5 -105.5 -22.5
c-60.667 0 -112 20 -154 60c-42 41.333 -63 101.666 -63 180.999v321h158v-306c0 -74.667 31 -112 93 -112c32.667 0 58.334 11.333 77.001 34s28 53.334 28 92.001v292h158v-309c0 -34.667 7.83301 -61.5 23.5 -80.5s37.834 -28.5 66.501 -28.5
c32.667 0 58.667 11.5 78 34.5s29 53.5 29 91.5z" />
    <glyph glyph-name="uni0449" unicode="&#x449;" horiz-adv-x="1063" 
d="M922 548l-0.00292969 -360c0 -34 10 -56.833 30 -68.5s54.667 -17.5 104 -17.5v-282h-136v170c-36 0 -66 9.83301 -90 29.5s-37.667 47.167 -41 82.5c-13.333 -34.667 -37.166 -62.667 -71.499 -84s-73.166 -32 -116.499 -32c-32.667 0 -62.167 7.5 -88.5 22.5
s-46.166 36.833 -59.499 65.5c-18.667 -28.667 -44.334 -50.5 -77.001 -65.5s-67.667 -22.5 -105 -22.5c-60.667 0 -112 20 -154 60c-42 41.333 -63 101.666 -63 180.999v321h157v-306c0 -36 8.16699 -63.667 24.5 -83s39.5 -29 69.5 -29c32.667 0 58.334 11.333 77.001 34
s28 53.334 28 92.001v292h157v-309c0 -34.667 8 -61.5 24 -80.5s38.333 -28.5 67 -28.5c32.667 0 58.667 11.5 78 34.5s29 53.5 29 91.5v292h157z" />
    <glyph glyph-name="uni044A" unicode="&#x44a;" horiz-adv-x="659" 
d="M402 449c63.333 0 117.335 -21.334 162.002 -64.001s67 -97 67 -163c0 -65.333 -21 -121 -63 -167s-105.667 -69 -191 -69c-47.333 0 -88.333 8.33301 -123 25s-60.334 39.667 -77.001 69c-30.667 52.667 -46 112.334 -46 179.001v160h-118v129h271v-131
c37.333 21.333 76.666 32 117.999 32zM381.002 120.999c30 0 53.333 9.16797 70 27.501s25 41.833 25 70.5c0 30 -8.66699 53.5 -26 70.5s-42.333 25.5 -75 25.5c-28.667 0 -59 -6.66699 -91 -20v-59c0 -30.667 7 -57.334 21 -80.001c14 -23.333 39.333 -35 76 -35z" />
    <glyph glyph-name="uni044B" unicode="&#x44b;" horiz-adv-x="810" 
d="M209 385l104 -0.00292969c40 0 75.167 -5.66699 105.5 -17s53.5 -26.666 69.5 -45.999s27.833 -39.666 35.5 -60.999s11.5 -43.666 11.5 -66.999c0 -56 -19 -102.667 -57 -140c-38 -36 -91 -54 -159 -54h-259v548h150zM594 -0.00292969v548h156v-548h-156zM208 126.997
h96.001c34 -2 57.667 8.5 71 31.5s13.166 46 -0.500977 69s-36.5 33.5 -68.5 31.5h-97z" />
    <glyph glyph-name="uni044C" unicode="&#x44c;" horiz-adv-x="581" 
d="M322 449c66 0 120.669 -21.334 164.002 -64.001c44.667 -42 67 -96.333 67 -163c0 -65.333 -21 -121 -63 -167s-105.667 -69 -191 -69c-47.333 0 -88.333 8.33301 -123 25s-60.334 39.667 -77.001 69c-30.667 52.667 -46 112.334 -46 179.001v289h154v-128
c37.333 19.333 75.666 29 114.999 29zM303.002 120.999c30 0 53.333 9.16699 70 27.5s25 41.833 25 70.5c0 30 -8.66699 53.5 -26 70.5s-42.333 25.5 -75 25.5c-28 0 -58 -6.66699 -90 -20v-59c0 -76.667 32 -115 96 -115z" />
    <glyph glyph-name="uni044D" unicode="&#x44d;" horiz-adv-x="604" 
d="M280 562c85.333 0 155.001 -26.998 209.001 -80.998c54 -52.667 81 -121.334 81 -206.001c0 -83.333 -26.667 -152.333 -80 -207c-53.333 -53.333 -122.333 -80 -207 -80c-58 0 -110.167 13.167 -156.5 39.5s-81.5 61.833 -105.5 106.5l122 73
c12 -22.667 30.5 -41.667 55.5 -57s51.5 -23 79.5 -23c29.333 0 56 8.5 80 25.5s41.333 39.5 52 67.5h-182v109h182c-10.667 28 -28.334 50.5 -53.001 67.5s-52 25.5 -82 25.5c-27.333 0 -53 -7.33301 -77 -22s-43 -34.334 -57 -59.001l-122 65c24 50 59 88.5 105 115.5
s98 40.5 156 40.5z" />
    <glyph glyph-name="uni044E" unicode="&#x44e;" horiz-adv-x="894" 
d="M565 563c87.333 0 158.331 -27.999 212.998 -83.999c55.333 -55.333 83 -123.666 83 -204.999c0 -80.667 -27.667 -149.334 -83 -206.001c-55.333 -55.333 -126.333 -83 -213 -83c-73.333 0 -136.333 20.667 -189 62c-51.333 42 -84.666 96 -99.999 162h-61v-209h-155
v761h155v-425h60c14 65.333 47 119.666 99 162.999c52.667 42.667 116.334 64 191.001 64zM703.998 275.001c0 40.667 -13.333 74.333 -40 101c-27.333 27.333 -60.333 41 -99 41c-39.333 0 -72.333 -14 -99 -42c-26.667 -26.667 -40 -60 -40 -100
c0 -41.333 13.333 -75.666 40 -102.999c27.333 -27.333 60.333 -41 99 -41s71.667 13.667 99 41c26.667 27.333 40 61.666 40 102.999z" />
    <glyph glyph-name="uni044F" unicode="&#x44f;" horiz-adv-x="589" 
d="M299 548h230v-548h-152v172c-31.333 -4 -59.333 -6.33301 -84 -7l-103 -165h-170l130 190c-67.333 31.333 -101 87 -101 167c0 59.333 21.5 106 64.5 140s104.833 51 185.5 51zM298 288c24.667 0 51 2.33301 79 7v129h-72c-66.667 0 -100 -23.333 -100 -70
c0 -44 31 -66 93 -66z" />
    <glyph glyph-name="uni0451" unicode="&#x451;" horiz-adv-x="632" 
d="M220 599c-26 0 -47.499 8.33301 -64.499 25s-25.5 38 -25.5 64c0 24.667 8.66699 45.5 26 62.5s38.666 25.5 63.999 25.5s46.5 -8.5 63.5 -25.5s25.5 -37.833 25.5 -62.5c0 -26 -8.5 -47.333 -25.5 -64s-38.167 -25 -63.5 -25zM444.001 599
c-26 0 -47.499 8.33301 -64.499 25s-25.5 38 -25.5 64c0 24.667 8.66699 45.5 26 62.5s38.666 25.5 63.999 25.5s46.5 -8.5 63.5 -25.5s25.5 -37.833 25.5 -62.5c0 -26 -8.5 -47.333 -25.5 -64s-38.167 -25 -63.5 -25zM600.002 287c0 -16 -1.66895 -38 -5.00195 -66h-403
c18.667 -68.667 68.334 -103 149.001 -103c61.333 0 118.333 17.667 171 53l62 -107c-66.667 -50.667 -146.667 -76 -240 -76c-96.667 0 -171 27.667 -223 83c-51.333 55.333 -77 123.333 -77 204c0 82 26.667 150.333 80 205c52.667 54.667 122.334 82 209.001 82
c80 0 146.333 -24.667 199 -74c52 -49.333 78 -116.333 78 -201zM323 435c-32 0 -59.833 -9 -83.5 -27s-39.834 -43 -48.501 -75h258c-7.33301 32 -22.166 57 -44.499 75s-49.5 27 -81.5 27z" />
    <glyph glyph-name="Wgrave" unicode="&#x1e80;" horiz-adv-x="1078" 
d="M551 984l66 -189h-149l-99 189h182zM395 0h-149l-242 739h182l138 -481l159 481h111l161 -481l136 481h182l-241 -739h-149l-144 460z" />
    <glyph glyph-name="wgrave" unicode="&#x1e81;" horiz-adv-x="890" 
d="M460 806l63 -179h-140l-94 179h171zM332 1h-139l-187 547h165l103 -341l115 341h111l117 -341l101 341h165l-185 -547h-139l-114 320z" />
    <glyph glyph-name="Wacute" unicode="&#x1e82;" horiz-adv-x="1078" 
d="M619 794h-147l65 188h180zM395 0h-149l-242 739h182l138 -481l159 481h111l161 -481l136 481h182l-241 -739h-149l-144 460z" />
    <glyph glyph-name="wacute" unicode="&#x1e83;" horiz-adv-x="890" 
d="M518 628h-140l62 179h172zM332 1h-139l-187 547h165l103 -341l115 341h111l117 -341l101 341h165l-185 -547h-139l-114 320z" />
    <glyph glyph-name="Wdieresis" unicode="&#x1e84;" horiz-adv-x="1078" 
d="M335 884c0 24.667 8.83398 45.667 26.501 63s39.167 26 64.5 26s46.666 -8.5 63.999 -25.5s26 -38.167 26 -63.5c0 -26 -8.5 -47.5 -25.5 -64.5s-38.5 -25.5 -64.5 -25.5s-47.667 8.5 -65 25.5s-26 38.5 -26 64.5zM653.001 794c-26 0 -47.667 8.5 -65 25.5
s-26 38.5 -26 64.5c0 24.667 8.83301 45.667 26.5 63s39.167 26 64.5 26s46.666 -8.66699 63.999 -26s26 -38.333 26 -63c0 -26 -8.66699 -47.5 -26 -64.5s-38.666 -25.5 -63.999 -25.5zM395.001 0h-149l-242 739h182l138 -481l159 481h111l161 -481l136 481h182l-241 -739
h-149l-144 460z" />
    <glyph glyph-name="wdieresis" unicode="&#x1e85;" horiz-adv-x="890" 
d="M334 616c-26 0 -47.499 8.33301 -64.499 25s-25.5 38 -25.5 64c0 24.667 8.66699 45.5 26 62.5s38.666 25.5 63.999 25.5s46.5 -8.5 63.5 -25.5s25.5 -37.833 25.5 -62.5c0 -26 -8.5 -47.333 -25.5 -64s-38.167 -25 -63.5 -25zM558.001 616
c-26 0 -47.499 8.33301 -64.499 25s-25.5 38 -25.5 64c0 24.667 8.66699 45.5 26 62.5s38.666 25.5 63.999 25.5s46.5 -8.5 63.5 -25.5s25.5 -37.833 25.5 -62.5c0 -26 -8.5 -47.333 -25.5 -64s-38.167 -25 -63.5 -25zM332.002 1h-139l-187 547h165l103 -341l115 341h111
l117 -341l101 341h165l-185 -547h-139l-114 320z" />
    <glyph glyph-name="Ygrave" unicode="&#x1ef2;" horiz-adv-x="693" 
d="M366 984l66 -189h-149l-99 189h182zM493 739h193l-257 -486v-253h-165v253l-255 486h193l144 -306z" />
    <glyph glyph-name="ygrave" unicode="&#x1ef3;" horiz-adv-x="614" 
d="M325 807l63 -179h-140l-94 179h171zM319 209l117.999 339h170l-217 -563c-28.667 -74 -62.667 -128.833 -102 -164.5s-87.666 -53.5 -144.999 -53.5c-44.667 0 -81.667 9.66699 -111 29l29 130c23.333 -12.667 47 -19 71 -19c44 0 79.333 28 106 84l7 16l-239 541h181z
" />
    <glyph glyph-name="uni2009" unicode="&#x2009;" horiz-adv-x="78" 
 />
    <glyph glyph-name="endash" unicode="&#x2013;" horiz-adv-x="721" 
d="M664 204h-606v146h606v-146z" />
    <glyph glyph-name="emdash" unicode="&#x2014;" horiz-adv-x="1040" 
d="M983 204h-925v146h925v-146z" />
    <glyph glyph-name="quoteleft" unicode="&#x2018;" horiz-adv-x="257" 
d="M137 684c20 0 37.502 -7.83301 52.502 -23.5s22.5 -34.167 22.5 -55.5c0 -24 -8.83301 -44.5 -26.5 -61.5s-38.834 -25.5 -63.501 -25.5c-26.667 0 -48.834 9.66699 -66.501 29s-26.5 43.333 -26.5 72c0 74 52 144.333 156 211l43 -62
c-48.667 -36.667 -79 -64.667 -91 -84z" />
    <glyph glyph-name="quoteright" unicode="&#x2019;" horiz-adv-x="255" 
d="M138 824c26.667 0 49.001 -9.50098 67.001 -28.501s27 -43.167 27 -72.5c0 -72.667 -52 -142.667 -156 -210l-43 61c48.667 36.667 79 64.667 91 84c-20.667 0 -38.334 7.83301 -53.001 23.5s-22 34.167 -22 55.5c0 24.667 8.66699 45.334 26 62.001s38.333 25 63 25z
" />
    <glyph glyph-name="quotesinglbase" unicode="&#x201a;" horiz-adv-x="264" 
d="M130 158c26.667 0 49.001 -9.50098 67.001 -28.501s27 -43.167 27 -72.5c0 -72.667 -52 -142.667 -156 -210l-43 61c48.667 36.667 79 64.667 91 84c-20.667 0 -38.334 7.83301 -53.001 23.5s-22 34.167 -22 55.5c0 24.667 8.66699 45.334 26 62.001s38.333 25 63 25z
" />
    <glyph glyph-name="quotedblleft" unicode="&#x201c;" horiz-adv-x="513" 
d="M187 830l43.002 -62c-48.667 -36.667 -79 -64.667 -91 -84c20 0 37.5 -7.83301 52.5 -23.5s22.5 -34.167 22.5 -55.5c0 -24 -8.83301 -44.5 -26.5 -61.5s-38.834 -25.5 -63.501 -25.5c-26.667 0 -48.834 9.66699 -66.501 29s-26.5 43.333 -26.5 72
c0 74 52 144.333 156 211zM394.002 684c20 0 37.502 -7.83301 52.502 -23.5s22.5 -34.167 22.5 -55.5c0 -24 -8.83301 -44.5 -26.5 -61.5s-38.834 -25.5 -63.501 -25.5c-26.667 0 -48.834 9.66699 -66.501 29s-26.5 43.333 -26.5 72c0 74 52 144.333 156 211l43 -62
c-48.667 -36.667 -79 -64.667 -91 -84z" />
    <glyph glyph-name="quotedblright" unicode="&#x201d;" horiz-adv-x="508" 
d="M137 828c26.667 0 48.832 -9.66699 66.499 -29s26.5 -43.333 26.5 -72c0 -74 -52 -144.333 -156 -211l-43 62c48.667 36.667 79 64.667 91 84c-20 0 -37.5 7.83301 -52.5 23.5s-22.5 34.167 -22.5 55.5c0 24 8.83301 44.5 26.5 61.5s38.834 25.5 63.501 25.5z
M391.998 828c26.667 0 48.832 -9.66699 66.499 -29s26.5 -43.333 26.5 -72c0 -74 -52 -144.333 -156 -211l-43 62c48.667 36.667 79 64.667 91 84c-20 0 -37.5 7.83301 -52.5 23.5s-22.5 34.167 -22.5 55.5c0 24 8.83301 44.5 26.5 61.5s38.834 25.5 63.501 25.5z" />
    <glyph glyph-name="quotedblbase" unicode="&#x201e;" horiz-adv-x="517" 
d="M128 157c26.667 0 48.832 -9.66699 66.499 -29s26.5 -43.333 26.5 -72c0 -74 -52 -144.333 -156 -211l-43 62c48.667 36.667 79 64.667 91 84c-20 0 -37.5 7.83301 -52.5 23.5s-22.5 34.167 -22.5 55.5c0 24 8.83301 44.5 26.5 61.5s38.834 25.5 63.501 25.5z
M382.998 157c26.667 0 48.832 -9.66699 66.499 -29s26.5 -43.333 26.5 -72c0 -74 -52 -144.333 -156 -211l-43 62c48.667 36.667 79 64.667 91 84c-20 0 -37.5 7.83301 -52.5 23.5s-22.5 34.167 -22.5 55.5c0 24 8.83301 44.5 26.5 61.5s38.834 25.5 63.501 25.5z" />
    <glyph glyph-name="dagger" unicode="&#x2020;" horiz-adv-x="518" 
d="M337 541h143v-143h-143v-576h-156v576h-144v143h144v308h156v-308z" />
    <glyph glyph-name="daggerdbl" unicode="&#x2021;" horiz-adv-x="518" 
d="M481 583v-143h-144v-210h144v-143h-144v-265h-156v265h-144v143h144v210h-144v143h144v266h156v-266h144z" />
    <glyph glyph-name="bullet" unicode="&#x2022;" horiz-adv-x="472" 
d="M235 166c-47.333 0 -88 17 -122 51s-51 75 -51 123c0 48.667 17 90 51 124s74.667 51 122 51c48.667 0 90 -17 124 -51c34.667 -34 52 -75.333 52 -124c0 -48 -17.333 -89 -52 -123c-34 -34 -75.333 -51 -124 -51z" />
    <glyph glyph-name="ellipsis" unicode="&#x2026;" horiz-adv-x="760" 
d="M128 -16c-25.333 0 -46.5 8.33203 -63.5 24.999s-25.5 37.667 -25.5 63c0 24.667 8.5 45.334 25.5 62.001s38.167 25 63.5 25c24 0 44.333 -8.5 61 -25.5s25 -37.5 25 -61.5c0 -25.333 -8.33301 -46.333 -25 -63s-37 -25 -61 -25zM381 -16.001
c-25.333 0 -46.5 8.33203 -63.5 24.999s-25.5 37.667 -25.5 63c0 24.667 8.5 45.334 25.5 62.001s38.167 25 63.5 25c23.333 0 43.5 -8.5 60.5 -25.5s25.5 -37.5 25.5 -61.5c0 -25.333 -8.33301 -46.333 -25 -63s-37 -25 -61 -25zM635 -16.002
c-25.333 0 -46.5 8.33203 -63.5 24.999s-25.5 37.667 -25.5 63c0 24.667 8.5 45.334 25.5 62.001s38.167 25 63.5 25c23.333 0 43.5 -8.5 60.5 -25.5s25.5 -37.5 25.5 -61.5c0 -25.333 -8.33301 -46.333 -25 -63s-37 -25 -61 -25z" />
    <glyph glyph-name="perthousand" unicode="&#x2030;" horiz-adv-x="1321" 
d="M221 384c-52.667 0 -97.668 17.667 -135.001 53c-37.333 36 -56 79 -56 129c0 51.333 18.667 95 56 131s82.333 54 135 54c54 0 99.333 -18 136 -54c37.333 -36 56 -79.667 56 -131c0 -50 -18.667 -93 -56 -129c-37.333 -35.333 -82.666 -53 -135.999 -53zM258.999 0
h-150l537 739h150zM166.999 512c15.333 -14 33.333 -21 54 -21s38.667 7 54 21c15.333 14.667 23 33 23 55s-7.66699 40.333 -23 55s-33.333 22 -54 22s-38.667 -7.33301 -54 -22c-14.667 -14.667 -22 -33 -22 -55s7.33301 -40.333 22 -55zM688.999 -12
c-52.667 0 -97.668 17.667 -135.001 53c-37.333 36 -56 79.333 -56 130s18.667 94 56 130s82.333 54 135 54c54 0 99.333 -18 136 -54c37.333 -36 56 -79.333 56 -130s-18.667 -94 -56 -130c-37.333 -35.333 -82.666 -53 -135.999 -53zM1105 -12
c-53.333 0 -98.667 17.667 -136 53c-37.333 36 -56 79.333 -56 130s18.667 93.667 56 129c36.667 36 82 54 136 54c52.667 0 97.667 -18 135 -54c37.333 -35.333 56 -78.333 56 -129s-18.667 -94 -56 -130c-37.333 -35.333 -82.333 -53 -135 -53zM1105 91
c22 0 40.834 7.83301 56.501 23.5s23.5 34.5 23.5 56.5c0 23.333 -7.83301 42.666 -23.5 57.999s-34.5 23 -56.5 23c-22.667 0 -41.834 -7.66699 -57.501 -23s-23.5 -34.666 -23.5 -57.999c0 -22 8 -40.833 24 -56.5s35 -23.5 57 -23.5zM688.998 95
c22 0 40.501 7.33301 55.501 22s22.5 33 22.5 55c0 21.333 -7.83301 39.5 -23.5 54.5s-33.834 22.5 -54.501 22.5s-38.5 -7.33301 -53.5 -22s-22.5 -33 -22.5 -55s7.5 -40.333 22.5 -55s32.833 -22 53.5 -22z" />
    <glyph glyph-name="guilsinglleft" unicode="&#x2039;" horiz-adv-x="372" 
d="M329 88h-165l-134 203l134 203h165l-139 -203z" />
    <glyph glyph-name="guilsinglright" unicode="&#x203a;" horiz-adv-x="372" 
d="M342 291l-134 -203h-165l139 203l-139 203h165z" />
    <glyph glyph-name="fraction" unicode="&#x2044;" horiz-adv-x="221" 
d="M-114 0h-125l578 739h123z" />
    <glyph glyph-name="uni2070" unicode="&#x2070;" horiz-adv-x="391" 
d="M23 706c0 62.667 15.167 112.667 45.5 150s72.833 56 127.5 56s97.167 -18.667 127.5 -56s45.5 -87.333 45.5 -150c0 -62 -15.167 -111.667 -45.5 -149s-72.833 -56 -127.5 -56s-97.167 18.667 -127.5 56s-45.5 87 -45.5 149zM196 594c44.667 0 67 37.333 67 112
s-22.333 112 -67 112c-45.333 0 -68 -37.333 -68 -112s22.667 -112 68 -112z" />
    <glyph glyph-name="uni2074" unicode="&#x2074;" horiz-adv-x="372" 
d="M300 674h42v-81h-42v-86h-93v86h-175l-21 61l209 249h80v-229zM207 778l-89 -104h89v104z" />
    <glyph glyph-name="uni2075" unicode="&#x2075;" horiz-adv-x="339" 
d="M175 764c41.333 0 74.5 -12 99.5 -36s37.5 -55 37.5 -93c0 -38.667 -14.333 -70.667 -43 -96s-66.334 -38 -113.001 -38c-52.667 0 -99.667 14.667 -141 44l38 79c34.667 -22.667 67.334 -34 98.001 -34c19.333 0 34.833 4.66699 46.5 14s17.5 21 17.5 35
s-5.33301 25.333 -16 34s-25 13 -43 13c-22.667 0 -44.667 -8.66699 -66 -26l-48 48l24 192h218v-84h-151l-8 -60c16 5.33301 32.667 8 50 8z" />
    <glyph glyph-name="uni2076" unicode="&#x2076;" horiz-adv-x="356" 
d="M197 764c39.333 0 71.499 -11.999 96.499 -35.999s37.5 -54.667 37.5 -92c0 -40 -14 -72.333 -42 -97c-27.333 -25.333 -62.333 -38 -105 -38c-50.667 0 -90 17.667 -118 53s-42 81.666 -42 138.999c0 62.667 15.667 114.667 47 156c32 42 78 63 138 63
c44 0 82.667 -11.667 116 -35l-39 -72c-23.333 15.333 -47.333 23 -72 23c-27.333 0 -50.166 -9 -68.499 -27s-29.5 -41.667 -33.5 -71c20 22.667 48.333 34 85 34zM182.999 582.001c16 0 29.334 5 40.001 15s16 22.667 16 38c0 14.667 -5.33301 27 -16 37
s-23.667 15 -39 15c-16 0 -29.167 -4.83301 -39.5 -14.5s-15.5 -22.167 -15.5 -37.5s5.16699 -28 15.5 -38s23.166 -15 38.499 -15z" />
    <glyph glyph-name="uni2077" unicode="&#x2077;" horiz-adv-x="304" 
d="M12 809v93h278v-71l-147 -321h-109l140 299h-162z" />
    <glyph glyph-name="uni2078" unicode="&#x2078;" horiz-adv-x="373" 
d="M187 501c-48 0 -86.168 10.832 -114.501 32.499s-42.5 49.5 -42.5 83.5c0 45.333 26.333 79.333 79 102v1c-18.667 7.33301 -33.5 18.5 -44.5 33.5s-16.5 31.5 -16.5 49.5c0 32 12.667 58.167 38 78.5s59 30.5 101 30.5c41.333 0 74.833 -10.167 100.5 -30.5
s38.5 -46.5 38.5 -78.5c0 -38 -21 -65.667 -63 -83v-2c53.333 -21.333 80 -54.666 80 -99.999c0 -34 -14.167 -62 -42.5 -84s-66.166 -33 -113.499 -33zM185.999 750.999c22 0 37.167 8.50098 45.5 25.501s4.83301 32.167 -10.5 45.5
c-13.333 13.333 -31.333 16.166 -54 8.49902s-32.667 -20.5 -30 -38.5c0 -11.333 4.66699 -21 14 -29s21 -12 35 -12zM186.999 581c17.333 0 31.5 4.50293 42.5 13.5029s16.5 20.5 16.5 34.5s-5.5 25.5 -16.5 34.5s-25.5 13.5 -43.5 13.5
c-24.667 1.33301 -42 -6.33398 -52 -23.001s-9.83301 -33.334 0.5 -50.001s27.833 -24.334 52.5 -23.001z" />
    <glyph glyph-name="uni2079" unicode="&#x2079;" horiz-adv-x="362" 
d="M172 912c50.667 0 89.666 -17.499 116.999 -52.499s41 -82.167 41 -141.5c0 -62 -15.667 -113.667 -47 -155s-76.666 -62 -135.999 -62c-46 0 -84.667 11.667 -116 35l37 72c25.333 -15.333 50 -23 74 -23c27.333 0 50 9.16699 68 27.5s29 42.833 33 73.5
c-22 -24.667 -51 -37 -87 -37c-40 0 -72 11.667 -96 35s-36 53.666 -36 90.999c0 40.667 13.667 73.667 41 99s63 38 107 38zM225.999 777.001c0 15.333 -5.16797 28.166 -15.501 38.499s-23.166 15.5 -38.499 15.5c-16 0 -29.333 -5.16699 -40 -15.5
s-16 -23.166 -16 -38.499c0 -14.667 5.16699 -26.834 15.5 -36.501s23.5 -14.5 39.5 -14.5s29.167 4.83301 39.5 14.5s15.5 21.834 15.5 36.501z" />
    <glyph glyph-name="uni2080" unicode="&#x2080;" horiz-adv-x="391" 
d="M23 44c0 62.667 15.167 112.667 45.5 150s72.833 56 127.5 56s97.167 -18.667 127.5 -56s45.5 -87.333 45.5 -150c0 -62 -15.167 -111.667 -45.5 -149s-72.833 -56 -127.5 -56s-97.167 18.667 -127.5 56s-45.5 87 -45.5 149zM196 -68c44.667 0 67 37.333 67 112
s-22.333 112 -67 112c-45.333 0 -68 -37.333 -68 -112s22.667 -112 68 -112z" />
    <glyph glyph-name="uni2081" unicode="&#x2081;" horiz-adv-x="281" 
d="M8 130l147 110h76v-395h-102v254l-69 -50z" />
    <glyph glyph-name="uni2082" unicode="&#x2082;" horiz-adv-x="347" 
d="M254 10l-74.998 -76.002h133v-89h-276v81l129 130c28 29.333 42 52 42 68c0 10.667 -3.83301 19.334 -11.5 26.001s-17.834 10 -30.501 10c-25.333 0 -57.333 -18.333 -96 -55l-48 74c43.333 47.333 93.666 71 150.999 71c40 0 73 -11.667 99 -35s39 -53.333 39 -90
c0 -37.333 -18.667 -75.666 -56 -114.999z" />
    <glyph glyph-name="uni2083" unicode="&#x2083;" horiz-adv-x="334" 
d="M147 -161c-48 0 -94.334 13.332 -139.001 39.999l40 78c38 -18 69.333 -27 94 -27c38 0 57 12.667 57 38c0 10.667 -5.16699 19.334 -15.5 26.001s-23.833 10 -40.5 10h-54v85h47c14.667 0 27.334 3 38.001 9s16 15 16 27c0 21.333 -15.667 32 -47 32
c-22 0 -47.667 -8.66699 -77 -26l-48 71c38.667 32 84.667 48 138 48c38.667 0 71 -10 97 -30c26.667 -20 40 -44.667 40 -74c0 -21.333 -6.5 -39.833 -19.5 -55.5s-30.5 -26.834 -52.5 -33.501v-2c26 -6 46.333 -17.5 61 -34.5s22 -37.5 22 -61.5
c0 -35.333 -14.5 -64.166 -43.5 -86.499s-66.833 -33.5 -113.5 -33.5z" />
    <glyph glyph-name="uni2084" unicode="&#x2084;" horiz-adv-x="372" 
d="M300 12h42v-81h-42v-86h-93v86h-175l-21 61l209 249h80v-229zM207 116l-89 -104h89v104z" />
    <glyph glyph-name="uni2085" unicode="&#x2085;" horiz-adv-x="339" 
d="M175 102c41.333 0 74.5 -12 99.5 -36s37.5 -55 37.5 -93c0 -38.667 -14.333 -70.667 -43 -96s-66.334 -38 -113.001 -38c-52.667 0 -99.667 14.667 -141 44l38 79c34.667 -22.667 67.334 -34 98.001 -34c19.333 0 34.833 4.66699 46.5 14s17.5 21 17.5 35
s-5.33301 25.333 -16 34s-25 13 -43 13c-22.667 0 -44.667 -8.66699 -66 -26l-48 48l24 192h218v-84h-151l-8 -60c16 5.33301 32.667 8 50 8z" />
    <glyph glyph-name="uni2086" unicode="&#x2086;" horiz-adv-x="356" 
d="M197 102c39.333 0 71.499 -11.999 96.499 -35.999s37.5 -54.667 37.5 -92c0 -40 -14 -72.333 -42 -97c-27.333 -25.333 -62.333 -38 -105 -38c-50.667 0 -90 17.667 -118 53s-42 81.666 -42 138.999c0 62.667 15.667 114.667 47 156c32 42 78 63 138 63
c44 0 82.667 -11.667 116 -35l-39 -72c-23.333 15.333 -47.333 23 -72 23c-27.333 0 -50.166 -9 -68.499 -27s-29.5 -41.667 -33.5 -71c20 22.667 48.333 34 85 34zM182.999 -79.999c16 0 29.334 5 40.001 15s16 22.667 16 38c0 14.667 -5.33301 27 -16 37
s-23.667 15 -39 15c-16 0 -29.167 -4.83301 -39.5 -14.5s-15.5 -22.167 -15.5 -37.5s5.16699 -28 15.5 -38s23.166 -15 38.499 -15z" />
    <glyph glyph-name="uni2087" unicode="&#x2087;" horiz-adv-x="304" 
d="M12 147v93h278v-71l-147 -321h-109l140 299h-162z" />
    <glyph glyph-name="uni2088" unicode="&#x2088;" horiz-adv-x="373" 
d="M187 -161c-48 0 -86.168 10.832 -114.501 32.499s-42.5 49.5 -42.5 83.5c0 45.333 26.333 79.333 79 102v1c-18.667 7.33301 -33.5 18.5 -44.5 33.5s-16.5 31.5 -16.5 49.5c0 32 12.667 58.167 38 78.5s59 30.5 101 30.5c41.333 0 74.833 -10.167 100.5 -30.5
s38.5 -46.5 38.5 -78.5c0 -38 -21 -65.667 -63 -83v-2c53.333 -21.333 80 -54.666 80 -99.999c0 -34 -14.167 -62 -42.5 -84s-66.166 -33 -113.499 -33zM185.999 88.999c22 0 37.167 8.50098 45.5 25.501s4.83301 32.167 -10.5 45.5
c-13.333 13.333 -31.333 16.166 -54 8.49902s-32.667 -20.5 -30 -38.5c0 -11.333 4.66699 -21 14 -29s21 -12 35 -12zM186.999 -81c17.333 0 31.5 4.50293 42.5 13.5029s16.5 20.5 16.5 34.5s-5.5 25.5 -16.5 34.5s-25.5 13.5 -43.5 13.5
c-24.667 1.33301 -42 -6.33398 -52 -23.001s-9.83301 -33.334 0.5 -50.001s27.833 -24.334 52.5 -23.001z" />
    <glyph glyph-name="uni2089" unicode="&#x2089;" horiz-adv-x="362" 
d="M172 250c50.667 0 89.666 -17.499 116.999 -52.499s41 -82.167 41 -141.5c0 -62 -15.667 -113.667 -47 -155s-76.666 -62 -135.999 -62c-46 0 -84.667 11.667 -116 35l37 72c25.333 -15.333 50 -23 74 -23c27.333 0 50 9.16699 68 27.5s29 42.833 33 73.5
c-22 -24.667 -51 -37 -87 -37c-40 0 -72 11.667 -96 35s-36 53.666 -36 90.999c0 40.667 13.667 73.667 41 99s63 38 107 38zM225.999 115.001c0 15.333 -5.16797 28.166 -15.501 38.499s-23.166 15.5 -38.499 15.5c-16 0 -29.333 -5.16699 -40 -15.5
s-16 -23.166 -16 -38.499c0 -14.667 5.16699 -26.834 15.5 -36.501s23.5 -14.5 39.5 -14.5s29.167 4.83301 39.5 14.5s15.5 21.834 15.5 36.501z" />
    <glyph glyph-name="Euro" unicode="&#x20ac;" horiz-adv-x="773" 
d="M561 245h-226.999c20 -32 46 -57 78 -75s67.333 -27 106 -27c63.333 0 123 16 179 48v-156c-24 -14 -54.667 -25.167 -92 -33.5s-73.333 -12.5 -108 -12.5c-82.667 0 -155.334 23.333 -218.001 70c-63.333 47.333 -107 109.333 -131 186h-121l40 100h64
c-1.33301 16 -1.33301 32 0 48h-85l40 100h62c22.667 78 65.667 140.667 129 188s136.666 71 219.999 71c44 0 87.667 -6.16699 131 -18.5s80 -29.166 110 -50.499l-77 -130c-43.333 30 -90.333 45 -141 45c-39.333 0 -75.166 -9.33301 -107.499 -28
s-58.5 -44.334 -78.5 -77.001h328l-45 -100h-315c-1.33301 -16 -1.33301 -32 0 -48h300z" />
    <glyph glyph-name="trademark" unicode="&#x2122;" horiz-adv-x="817" 
d="M128 652h-96v87h283v-87h-96v-263h-91v263zM548 555l130 184h69v-350h-89v171l-90 -126h-38l-89 124v-169h-90v350h70z" />
    </font>
</defs>
</svg>
